SplineFontDB: 3.0
FontName: Fontin-SmallCaps
FullName: Fontin SmallCaps
FamilyName: Fontin SmallCaps
Weight: Book
Copyright: Copyright (c) Jos Buivenga, 2004. All rights reserved.
Version: 001.000 (TrueType)
ItalicAngle: 0
UnderlinePosition: -306
UnderlineWidth: 40
Ascent: 1638
Descent: 410
InvalidEm: 0
sfntRevision: 0x00010000
LayerCount: 2
Layer: 0 1 "Back" 1
Layer: 1 1 "Fore" 0
XUID: [1021 583 -1689197667 23218]
StyleMap: 0x0000
FSType: 0
OS2Version: 1
OS2_WeightWidthSlopeOnly: 0
OS2_UseTypoMetrics: 0
CreationTime: 1165423030
ModificationTime: 1440692517
PfmFamily: 17
TTFWeight: 400
TTFWidth: 5
LineGap: 184
VLineGap: 0
Panose: 2 0 5 3 0 0 0 0 0 0
OS2TypoAscent: 1638
OS2TypoAOffset: 0
OS2TypoDescent: -410
OS2TypoDOffset: 0
OS2TypoLinegap: 184
OS2WinAscent: 1821
OS2WinAOffset: 0
OS2WinDescent: 520
OS2WinDOffset: 0
HheadAscent: 1821
HheadAOffset: 0
HheadDescent: -520
HheadDOffset: 0
OS2SubXSize: 1331
OS2SubYSize: 1433
OS2SubXOff: 0
OS2SubYOff: 983
OS2SupXSize: 1331
OS2SupYSize: 1433
OS2SupXOff: 0
OS2SupYOff: 0
OS2StrikeYSize: 102
OS2StrikeYPos: 530
OS2Vendor: 'PfEd'
OS2CodePages: 20000000.80940000
OS2UnicodeRanges: 800000af.5000204a.00000000.00000000
Lookup: 4 0 1 "'liga' Standard Ligatures in Latin lookup 0" { "'liga' Standard Ligatures in Latin lookup 0 subtable"  } ['liga' ('latn' <'dflt' > ) ]
Lookup: 4 0 0 "'dlig' Discretionary Ligatures in Latin lookup 1" { "'dlig' Discretionary Ligatures in Latin lookup 1 subtable"  } ['dlig' ('latn' <'dflt' > ) ]
Lookup: 4 0 0 "'frac' Diagonal Fractions in Latin lookup 2" { "'frac' Diagonal Fractions in Latin lookup 2 subtable"  } ['frac' ('latn' <'dflt' > ) ]
DEI: 91125
ShortTable: maxp 16
  1
  0
  239
  102
  7
  85
  4
  2
  0
  1
  1
  0
  64
  0
  2
  1
EndShort
LangName: 1033 "" "" "" "FontForge 1.0 : Fontin SmallCaps : 6-12-2006"
GaspTable: 1 65535 2 0
Encoding: UnicodeBmp
UnicodeInterp: none
NameList: AGL For New Fonts
DisplaySize: -48
AntiAlias: 1
FitToEm: 0
WidthSeparation: 500
WinInfo: 38 19 14

StartChar: exclam
Encoding: 33 33 4
Width: 667
GlyphClass: 2
Flags: W
HStem: -27 220<253.519 406.482>
VStem: 220 220<6.51892 159.482> 294 76<311 469.015>
LayerCount: 2
Fore
SplineSet
370 311 m 1,0,-1
 294 311 l 1,1,-1
 237 1022 l 2,2,3
 234 1059 234 1059 224.5 1087.5 c 128,-1,4
 215 1116 215 1116 207 1126 c 2,5,-1
 198 1135 l 1,6,-1
 198 1174 l 1,7,-1
 215 1184 l 2,8,9
 231 1193 231 1193 260 1202.5 c 128,-1,10
 289 1212 289 1212 315 1212 c 0,11,12
 391 1212 391 1212 422.5 1183 c 128,-1,13
 454 1154 454 1154 454 1096 c 0,14,15
 454 1060 454 1060 437 967 c 0,16,17
 419 859 419 859 415 807 c 2,18,-1
 370 311 l 1,0,-1
440 84 m 0,19,20
 440 38 440 38 407.5 5.5 c 128,-1,21
 375 -27 375 -27 331 -27 c 0,22,23
 285 -27 285 -27 252.5 5.5 c 128,-1,24
 220 38 220 38 220 84 c 0,25,26
 220 128 220 128 252.5 160.5 c 128,-1,27
 285 193 285 193 331 193 c 0,28,29
 375 193 375 193 407.5 160.5 c 128,-1,30
 440 128 440 128 440 84 c 0,19,20
EndSplineSet
Validated: 1
EndChar

StartChar: quotedbl
Encoding: 34 34 5
Width: 1025
GlyphClass: 2
Flags: W
HStem: 1111 443
VStem: 205 618
LayerCount: 2
Fore
SplineSet
389 1554 m 2,0,-1
 496 1554 l 1,1,-1
 473 1389 l 2,2,3
 443 1179 443 1179 287 1118 c 0,4,5
 262 1109 262 1109 236 1111 c 128,-1,6
 210 1113 210 1113 205 1118 c 1,7,8
 245 1154 245 1154 268.5 1213 c 128,-1,9
 292 1272 292 1272 300.5 1328.5 c 128,-1,10
 309 1385 309 1385 316 1437.5 c 128,-1,11
 323 1490 323 1490 340 1522 c 128,-1,12
 357 1554 357 1554 389 1554 c 2,0,-1
717 1554 m 2,13,-1
 823 1554 l 1,14,-1
 801 1389 l 2,15,16
 770 1179 770 1179 615 1118 c 0,17,18
 590 1109 590 1109 564 1111 c 128,-1,19
 538 1113 538 1113 533 1118 c 1,20,21
 573 1154 573 1154 596.5 1213 c 128,-1,22
 620 1272 620 1272 628 1328.5 c 128,-1,23
 636 1385 636 1385 643.5 1437.5 c 128,-1,24
 651 1490 651 1490 668 1522 c 128,-1,25
 685 1554 685 1554 717 1554 c 2,13,-1
EndSplineSet
Validated: 1
EndChar

StartChar: numbersign
Encoding: 35 35 6
Width: 1604
GlyphClass: 2
Flags: W
HStem: 395 123<189.074 476 611 874 1009 1347.17> 782 123<226.073 517 654 914 1052 1384.17> 1356 20G<600 631.5 997.5 1028.5>
VStem: 175 14<522 526> 212 14<909 913> 429 139<16 373.749> 546 141<913.632 1334.88> 826 140<16 362.006> 943 141<913.816 1334.66>
LayerCount: 2
Fore
SplineSet
212 782 m 1,0,-1
 226 913 l 2,1,2
 226 909 226 909 527 905 c 1,3,4
 546 1115 546 1115 546 1210 c 0,5,6
 546 1269 546 1269 529 1337 c 1,7,8
 580 1376 580 1376 620 1376 c 0,9,10
 643 1376 643 1376 657.5 1365.5 c 128,-1,11
 672 1355 672 1355 678 1332 c 128,-1,12
 684 1309 684 1309 685.5 1289 c 128,-1,13
 687 1269 687 1269 687 1233 c 0,14,15
 687 1183 687 1183 654 905 c 1,16,-1
 925 905 l 1,17,18
 943 1121 943 1121 943 1210 c 0,19,20
 943 1262 943 1262 927 1337 c 1,21,22
 978 1376 978 1376 1017 1376 c 0,23,24
 1040 1376 1040 1376 1054.5 1365.5 c 128,-1,25
 1069 1355 1069 1355 1075 1332 c 128,-1,26
 1081 1309 1081 1309 1082.5 1289 c 128,-1,27
 1084 1269 1084 1269 1084 1233 c 0,28,29
 1084 1189 1084 1189 1052 905 c 1,30,-1
 1150 905 l 2,31,32
 1204 905 1204 905 1252 905 c 128,-1,33
 1300 905 1300 905 1337.5 906 c 128,-1,34
 1375 907 1375 907 1400.5 911 c 128,-1,35
 1426 915 1426 915 1435 922 c 1,36,37
 1430 891 1430 891 1417.5 867.5 c 128,-1,38
 1405 844 1405 844 1387.5 829.5 c 128,-1,39
 1370 815 1370 815 1347.5 805 c 128,-1,40
 1325 795 1325 795 1299.5 790.5 c 128,-1,41
 1274 786 1274 786 1246 783.5 c 128,-1,42
 1218 781 1218 781 1189.5 782 c 128,-1,43
 1161 783 1161 783 1132 782 c 2,44,-1
 1037 782 l 1,45,46
 1032 736 1032 736 1023 648 c 128,-1,47
 1014 560 1014 560 1009 518 c 1,48,-1
 1113 518 l 2,49,50
 1167 518 1167 518 1215.5 518 c 128,-1,51
 1264 518 1264 518 1301 519 c 128,-1,52
 1338 520 1338 520 1363.5 524 c 128,-1,53
 1389 528 1389 528 1398 535 c 1,54,55
 1393 504 1393 504 1380.5 480.5 c 128,-1,56
 1368 457 1368 457 1350.5 442.5 c 128,-1,57
 1333 428 1333 428 1310.5 418 c 128,-1,58
 1288 408 1288 408 1262.5 403.5 c 128,-1,59
 1237 399 1237 399 1209 396.5 c 128,-1,60
 1181 394 1181 394 1152.5 395 c 128,-1,61
 1124 396 1124 396 1095 395 c 2,62,-1
 996 395 l 1,63,64
 973 182 973 182 966 16 c 1,65,-1
 826 -14 l 1,66,67
 856 228 856 228 874 395 c 1,68,-1
 599 395 l 1,69,70
 574 167 574 167 568 16 c 1,71,-1
 429 -14 l 1,72,73
 462 253 462 253 476 397 c 1,74,-1
 212 397 l 2,75,76
 183 397 183 397 175 395 c 1,77,-1
 189 526 l 2,78,79
 189 522 189 522 491 518 c 1,80,81
 514 758 514 758 517 784 c 1,82,-1
 249 784 l 2,83,84
 220 784 220 784 212 782 c 1,0,-1
886 518 m 1,85,86
 890 553 890 553 914 782 c 1,87,-1
 642 782 l 1,88,-1
 611 518 l 1,89,-1
 886 518 l 1,85,86
EndSplineSet
Validated: 1
EndChar

StartChar: dollar
Encoding: 36 36 7
Width: 1137
GlyphClass: 2
Flags: W
HStem: -27 136<315.461 509> 1102 21G<872 884.5> 1243 133<402.419 507 605 781.287>
VStem: 181 158<964.334 1182.9> 509 94<-217 -27 119 535 864 1239 1372 1504.34> 759 194<187.053 427.067> 875 19<1113.45 1131.31>
LayerCount: 2
Fore
SplineSet
607 -217 m 1,0,-1
 507 -217 l 1,1,2
 507 -88 507 -88 509 -27 c 1,3,4
 375 -26 375 -26 294.5 30.5 c 128,-1,5
 214 87 214 87 214 158 c 0,6,7
 214 197 214 197 238 227 c 1,8,9
 251 182 251 182 329.5 145.5 c 128,-1,10
 408 109 408 109 503 109 c 2,11,-1
 509 109 l 1,12,13
 513 481 513 481 513 592 c 1,14,15
 470 620 470 620 459 627.5 c 128,-1,16
 448 635 448 635 408.5 662.5 c 128,-1,17
 369 690 369 690 355.5 702 c 128,-1,18
 342 714 342 714 310.5 741.5 c 128,-1,19
 279 769 279 769 266.5 786.5 c 128,-1,20
 254 804 254 804 233 833.5 c 128,-1,21
 212 863 212 863 203.5 888.5 c 128,-1,22
 195 914 195 914 188 946 c 128,-1,23
 181 978 181 978 181 1012 c 0,24,25
 181 1097 181 1097 216.5 1173.5 c 128,-1,26
 252 1250 252 1250 328 1306.5 c 128,-1,27
 404 1363 404 1363 507 1374 c 1,28,29
 506 1404 506 1404 498 1516 c 1,30,31
 546 1526 546 1526 556 1526 c 0,32,33
 585 1526 585 1526 597 1505 c 128,-1,34
 609 1484 609 1484 607 1450.5 c 128,-1,35
 605 1417 605 1417 605 1376 c 1,36,37
 728 1368 728 1368 811 1316 c 128,-1,38
 894 1264 894 1264 894 1180 c 0,39,40
 894 1143 894 1143 875 1102 c 1,41,42
 869 1156 869 1156 787 1196.5 c 128,-1,43
 705 1237 705 1237 603 1243 c 1,44,45
 602 1187 602 1187 601 1036.5 c 128,-1,46
 600 886 600 886 599 813 c 1,47,48
 650 782 650 782 684.5 760 c 128,-1,49
 719 738 719 738 764.5 703.5 c 128,-1,50
 810 669 810 669 840 635.5 c 128,-1,51
 870 602 870 602 898 560.5 c 128,-1,52
 926 519 926 519 939.5 469.5 c 128,-1,53
 953 420 953 420 953 365 c 0,54,55
 953 221 953 221 857 114 c 128,-1,56
 761 7 761 7 603 -18 c 1,57,-1
 607 -217 l 1,0,-1
759 305 m 0,58,59
 759 370 759 370 717 424 c 128,-1,60
 675 478 675 478 597 535 c 1,61,62
 595 420 595 420 599 119 c 1,63,64
 670 137 670 137 714.5 183 c 128,-1,65
 759 229 759 229 759 305 c 0,58,59
339 1067 m 0,66,67
 339 1012 339 1012 383.5 964.5 c 128,-1,68
 428 917 428 917 513 864 c 1,69,70
 513 1143 513 1143 511 1239 c 1,71,72
 433 1228 433 1228 386 1185.5 c 128,-1,73
 339 1143 339 1143 339 1067 c 0,66,67
EndSplineSet
Validated: 33
EndChar

StartChar: percent
Encoding: 37 37 8
Width: 1754
GlyphClass: 2
Flags: W
HStem: -23 82<1163.56 1367> 0 21G<333 596> 0 21G<333 596> 578 84<1145.42 1357.02> 694 82<395.564 598.996> 1294 84<377.417 589.023>
VStem: 179 137<862.969 1209.65> 673 133<876.709 1205.28> 947 137<145.969 492.165> 1234 143<1254.4 1373.74> 1441 133<158.857 488.577>
LayerCount: 2
Fore
SplineSet
478 0 m 1,0,-1
 333 0 l 1,1,2
 859 751 859 751 1044.5 1026 c 128,-1,3
 1230 1301 1230 1301 1234 1350 c 1,4,5
 1274 1380 1274 1380 1316 1380 c 0,6,7
 1377 1380 1377 1380 1377 1339 c 0,8,9
 1377 1321 1377 1321 1364.5 1294.5 c 128,-1,10
 1352 1268 1352 1268 1338 1248 c 128,-1,11
 1324 1228 1324 1228 1304.5 1201.5 c 128,-1,12
 1285 1175 1285 1175 1281 1169 c 0,13,14
 1279 1166 1279 1166 1095.5 907 c 128,-1,15
 912 648 912 648 724.5 375 c 128,-1,16
 537 102 537 102 478 0 c 1,0,-1
1295 662 m 0,17,18
 1140 662 1140 662 1043.5 563 c 128,-1,19
 947 464 947 464 947 307 c 0,20,21
 947 146 947 146 1023.5 61.5 c 128,-1,22
 1100 -23 1100 -23 1217 -23 c 0,23,24
 1373 -23 1373 -23 1472 80 c 128,-1,25
 1571 183 1571 183 1574 334 c 0,26,27
 1574 490 1574 490 1495.5 576 c 128,-1,28
 1417 662 1417 662 1295 662 c 0,17,18
1267 59 m 0,29,30
 1181 59 1181 59 1132.5 138 c 128,-1,31
 1084 217 1084 217 1084 350 c 0,32,33
 1084 456 1084 456 1128 517 c 128,-1,34
 1172 578 1172 578 1246 578 c 0,35,36
 1335 578 1335 578 1388 502 c 128,-1,37
 1441 426 1441 426 1441 297 c 0,38,39
 1441 190 1441 190 1390.5 124.5 c 128,-1,40
 1340 59 1340 59 1267 59 c 0,29,30
527 1378 m 0,41,42
 372 1378 372 1378 275.5 1279.5 c 128,-1,43
 179 1181 179 1181 179 1024 c 0,44,45
 179 863 179 863 255.5 778.5 c 128,-1,46
 332 694 332 694 449 694 c 0,47,48
 605 694 605 694 704 797 c 128,-1,49
 803 900 803 900 806 1051 c 0,50,51
 806 1207 806 1207 727.5 1292.5 c 128,-1,52
 649 1378 649 1378 527 1378 c 0,41,42
499 776 m 0,53,54
 413 776 413 776 364.5 855 c 128,-1,55
 316 934 316 934 316 1067 c 0,56,57
 316 1172 316 1172 360 1233 c 128,-1,58
 404 1294 404 1294 478 1294 c 0,59,60
 567 1294 567 1294 620 1218.5 c 128,-1,61
 673 1143 673 1143 673 1014 c 0,62,63
 673 906 673 906 622.5 841 c 128,-1,64
 572 776 572 776 499 776 c 0,53,54
EndSplineSet
Validated: 9
EndChar

StartChar: ampersand
Encoding: 38 38 9
Width: 1566
GlyphClass: 2
Flags: W
HStem: -20 120<484.567 780.264 1127.05 1353.63> 696 111<1200 1314.06> 1155 82<487.625 720.529>
VStem: 182 172<230.536 448.01> 283 165<858.684 1111.56> 764 137<897.322 1113.95> 1012 108<411.441 697.146>
LayerCount: 2
Fore
SplineSet
1014 807 m 1,0,-1
 997 782 l 1,1,-1
 1004 734 l 2,2,3
 1012 686 1012 686 1012 651 c 0,4,5
 1012 600 1012 600 1010.5 568 c 128,-1,6
 1009 536 1009 536 1003 482.5 c 128,-1,7
 997 429 997 429 981 380 c 128,-1,8
 965 331 965 331 940 287 c 1,9,10
 759 449 759 449 602 674 c 1,11,12
 625 687 625 687 646.5 700.5 c 128,-1,13
 668 714 668 714 719 753.5 c 128,-1,14
 770 793 770 793 806 831 c 128,-1,15
 842 869 842 869 871.5 923.5 c 128,-1,16
 901 978 901 978 901 1030 c 0,17,18
 901 1122 901 1122 823 1179.5 c 128,-1,19
 745 1237 745 1237 620 1237 c 0,20,21
 466 1237 466 1237 374.5 1162 c 128,-1,22
 283 1087 283 1087 283 965 c 0,23,24
 283 909 283 909 317 819.5 c 128,-1,25
 351 730 351 730 412 633 c 1,26,27
 304 561 304 561 243 473 c 128,-1,28
 182 385 182 385 182 289 c 0,29,30
 182 161 182 161 279.5 70.5 c 128,-1,31
 377 -20 377 -20 539 -20 c 0,32,33
 765 -20 765 -20 893 96 c 1,34,35
 970 39 970 39 1054.5 9.5 c 128,-1,36
 1139 -20 1139 -20 1212 -20 c 0,37,38
 1303 -20 1303 -20 1352 20.5 c 128,-1,39
 1401 61 1401 61 1401 115 c 1,40,41
 1346 92 1346 92 1294 92 c 0,42,43
 1172 92 1172 92 1003 231 c 1,44,45
 1107 416 1107 416 1120 698 c 1,46,47
 1134 698 1134 698 1161.5 697 c 128,-1,48
 1189 696 1189 696 1200 696 c 0,49,50
 1254 696 1254 696 1294.5 724 c 128,-1,51
 1335 752 1335 752 1335 793 c 2,52,-1
 1333 825 l 1,53,-1
 1329 820 l 2,54,55
 1325 816 1325 816 1309.5 811.5 c 128,-1,56
 1294 807 1294 807 1270 807 c 2,57,-1
 1014 807 l 1,0,-1
448 578 m 1,58,59
 628 310 628 310 823 150 c 1,60,61
 758 100 758 100 643 100 c 0,62,63
 520 100 520 100 437 183.5 c 128,-1,64
 354 267 354 267 354 381 c 0,65,66
 354 508 354 508 448 578 c 1,58,59
764 995 m 0,67,68
 764 857 764 857 565 731 c 1,69,70
 448 910 448 910 448 1020 c 0,71,72
 448 1084 448 1084 488.5 1119.5 c 128,-1,73
 529 1155 529 1155 600 1155 c 0,74,75
 680 1155 680 1155 722 1113.5 c 128,-1,76
 764 1072 764 1072 764 995 c 0,67,68
EndSplineSet
Validated: 9
EndChar

StartChar: quoteright
Encoding: 8217 8217 10
Width: 705
GlyphClass: 2
Flags: W
HStem: 1055 487
VStem: 339 162<1270.42 1413.92>
LayerCount: 2
Fore
SplineSet
240 1055 m 1,0,-1
 204 1104 l 1,1,2
 339 1233 339 1233 339 1329 c 0,3,4
 339 1381 339 1381 323 1400 c 128,-1,5
 307 1419 307 1419 279 1419 c 1,6,7
 273 1468 273 1468 305.5 1505 c 128,-1,8
 338 1542 338 1542 384 1542 c 0,9,10
 442 1542 442 1542 471.5 1508 c 128,-1,11
 501 1474 501 1474 501 1411 c 0,12,13
 501 1331 501 1331 432.5 1232.5 c 128,-1,14
 364 1134 364 1134 240 1055 c 1,0,-1
EndSplineSet
Validated: 33
EndChar

StartChar: parenleft
Encoding: 40 40 11
Width: 843
GlyphClass: 2
Flags: W
VStem: 198 182<96.2164 853.8>
LayerCount: 2
Fore
SplineSet
198 485 m 0,0,1
 198 241 198 241 265.5 8.5 c 128,-1,2
 333 -224 333 -224 447.5 -372 c 128,-1,3
 562 -520 562 -520 688 -520 c 1,4,5
 678 -520 678 -520 645 -472.5 c 128,-1,6
 612 -425 612 -425 567 -331 c 128,-1,7
 522 -237 522 -237 480 -119.5 c 128,-1,8
 438 -2 438 -2 409 160.5 c 128,-1,9
 380 323 380 323 380 485 c 0,10,11
 380 640 380 640 407.5 787.5 c 128,-1,12
 435 935 435 935 475 1038.5 c 128,-1,13
 515 1142 515 1142 559.5 1222 c 128,-1,14
 604 1302 604 1302 638.5 1341 c 128,-1,15
 673 1380 673 1380 688 1380 c 1,16,17
 551 1380 551 1380 437 1251.5 c 128,-1,18
 323 1123 323 1123 260.5 918 c 128,-1,19
 198 713 198 713 198 485 c 0,0,1
EndSplineSet
Validated: 9
EndChar

StartChar: parenright
Encoding: 41 41 12
Width: 845
GlyphClass: 2
Flags: W
VStem: 466 183<96.5338 853.8>
LayerCount: 2
Fore
SplineSet
649 485 m 0,0,1
 649 242 649 242 581 9 c 128,-1,2
 513 -224 513 -224 398.5 -372 c 128,-1,3
 284 -520 284 -520 159 -520 c 1,4,5
 169 -520 169 -520 202 -472.5 c 128,-1,6
 235 -425 235 -425 279.5 -331 c 128,-1,7
 324 -237 324 -237 366 -119.5 c 128,-1,8
 408 -2 408 -2 437 160.5 c 128,-1,9
 466 323 466 323 466 485 c 0,10,11
 466 640 466 640 438.5 787.5 c 128,-1,12
 411 935 411 935 371 1038.5 c 128,-1,13
 331 1142 331 1142 286.5 1222 c 128,-1,14
 242 1302 242 1302 208 1341 c 128,-1,15
 174 1380 174 1380 159 1380 c 1,16,17
 296 1380 296 1380 410 1251.5 c 128,-1,18
 524 1123 524 1123 586.5 918 c 128,-1,19
 649 713 649 713 649 485 c 0,0,1
EndSplineSet
Validated: 1
EndChar

StartChar: asterisk
Encoding: 42 42 13
Width: 1177
GlyphClass: 2
Flags: W
HStem: 1120 123<224.675 467 684 939.238>
VStem: 385 59<863.552 891.808> 719 59<1500.65 1526.98>
LayerCount: 2
Fore
SplineSet
702 1274 m 2,0,-1
 688 1249 l 1,1,-1
 682 1243 l 1,2,-1
 743 1243 l 2,3,4
 824 1243 824 1243 862 1243.5 c 128,-1,5
 900 1244 900 1244 939 1248 c 128,-1,6
 978 1252 978 1252 989 1260 c 1,7,8
 983 1223 983 1223 966 1196.5 c 128,-1,9
 949 1170 949 1170 927.5 1155.5 c 128,-1,10
 906 1141 906 1141 873 1133 c 128,-1,11
 840 1125 840 1125 811.5 1122.5 c 128,-1,12
 783 1120 783 1120 743 1120 c 2,13,-1
 684 1120 l 1,14,-1
 692 1108 l 2,15,16
 730 1044 730 1044 759.5 993.5 c 128,-1,17
 789 943 789 943 812 909.5 c 128,-1,18
 835 876 835 876 848 870 c 1,19,20
 814 858 814 858 786 858 c 128,-1,21
 758 858 758 858 732 870 c 128,-1,22
 706 882 706 882 689 896 c 128,-1,23
 672 910 672 910 650 942.5 c 128,-1,24
 628 975 628 975 617.5 992.5 c 128,-1,25
 607 1010 607 1010 584 1053 c 1,26,-1
 575 1077 l 1,27,-1
 565 1053 l 1,28,29
 539 1008 539 1008 516.5 969.5 c 128,-1,30
 494 931 494 931 478 901 c 128,-1,31
 462 871 462 871 453 848.5 c 128,-1,32
 444 826 444 826 444 813 c 2,33,-1
 444 809 l 1,34,35
 385 857 385 857 385 924 c 0,36,37
 385 954 385 954 398.5 992.5 c 128,-1,38
 412 1031 412 1031 426 1057 c 128,-1,39
 440 1083 440 1083 467 1128 c 1,40,41
 428 1130 428 1130 356 1130 c 0,42,43
 206 1130 206 1130 182 1112 c 1,44,45
 187 1141 187 1141 199.5 1163.5 c 128,-1,46
 212 1186 212 1186 226 1200.5 c 128,-1,47
 240 1215 240 1215 264.5 1225 c 128,-1,48
 289 1235 289 1235 307.5 1240 c 128,-1,49
 326 1245 326 1245 358.5 1247.5 c 128,-1,50
 391 1250 391 1250 410 1250.5 c 128,-1,51
 429 1251 429 1251 465 1251 c 2,52,-1
 479 1251 l 1,53,-1
 475 1257 l 1,54,55
 352 1481 352 1481 317 1495 c 1,56,57
 352 1507 352 1507 377 1507 c 0,58,59
 409 1507 409 1507 437 1493 c 128,-1,60
 465 1479 465 1479 491.5 1448 c 128,-1,61
 518 1417 518 1417 533 1394.5 c 128,-1,62
 548 1372 548 1372 575 1327 c 1,63,-1
 584 1305 l 1,64,-1
 592 1327 l 1,65,66
 719 1534 719 1534 719 1577 c 2,67,-1
 719 1581 l 1,68,69
 778 1533 778 1533 778 1468 c 0,70,71
 778 1440 778 1440 765 1403 c 128,-1,72
 752 1366 752 1366 739.5 1342 c 128,-1,73
 727 1318 727 1318 702 1274 c 2,0,-1
EndSplineSet
Validated: 1
EndChar

StartChar: plus
Encoding: 43 43 14
Width: 1152
GlyphClass: 2
Flags: W
HStem: 457.5 122.5<204.255 503 628 904.735>
VStem: 503 127<139.255 457 580 885.076>
LayerCount: 2
Fore
SplineSet
626 139 m 1,0,-1
 494 139 l 2,1,2
 503 139 503 139 503 457 c 1,3,4
 454 457 454 457 393 457.5 c 128,-1,5
 332 458 332 458 289 458.5 c 128,-1,6
 246 459 246 459 241 459 c 0,7,8
 212 459 212 459 204 457 c 1,9,-1
 204 588 l 2,10,11
 204 580 204 580 503 580 c 1,12,-1
 503 606 l 2,13,14
 503 660 503 660 503 708 c 128,-1,15
 503 756 503 756 502 793 c 128,-1,16
 501 830 501 830 497 855 c 128,-1,17
 493 880 493 880 486 889 c 1,18,19
 533 899 533 899 552 899 c 0,20,21
 584 899 584 899 602 885.5 c 128,-1,22
 620 872 620 872 624.5 849.5 c 128,-1,23
 629 827 629 827 630.5 797 c 128,-1,24
 632 767 632 767 630 735 c 0,25,26
 630 731 630 731 629 677.5 c 128,-1,27
 628 624 628 624 628 580 c 1,28,-1
 671 580 l 2,29,30
 725 580 725 580 773 580 c 128,-1,31
 821 580 821 580 858 581 c 128,-1,32
 895 582 895 582 920.5 586 c 128,-1,33
 946 590 946 590 955 596 c 1,34,35
 950 565 950 565 937.5 542 c 128,-1,36
 925 519 925 519 907.5 504.5 c 128,-1,37
 890 490 890 490 867.5 479.5 c 128,-1,38
 845 469 845 469 819.5 465 c 128,-1,39
 794 461 794 461 766 458.5 c 128,-1,40
 738 456 738 456 709.5 457 c 128,-1,41
 681 458 681 458 652 457 c 2,42,-1
 626 457 l 1,43,44
 623 358 623 358 623 176 c 0,45,46
 623 147 623 147 626 139 c 1,0,-1
EndSplineSet
Validated: 1
EndChar

StartChar: comma
Encoding: 44 44 15
Width: 714
GlyphClass: 2
Flags: W
HStem: -295 488
VStem: 336 162<-79.1721 67.5319>
LayerCount: 2
Fore
SplineSet
238 -295 m 1,0,-1
 201 -246 l 1,1,2
 336 -117 336 -117 336 -20 c 0,3,4
 336 70 336 70 277 70 c 1,5,6
 271 118 271 118 303.5 155.5 c 128,-1,7
 336 193 336 193 381 193 c 0,8,9
 439 193 439 193 468.5 158.5 c 128,-1,10
 498 124 498 124 498 61 c 0,11,12
 498 -19 498 -19 429.5 -117 c 128,-1,13
 361 -215 361 -215 238 -295 c 1,0,-1
EndSplineSet
Validated: 33
EndChar

StartChar: hyphen
Encoding: 45 45 16
Width: 955
GlyphClass: 2
Flags: W
HStem: 436 123<227.286 682.175>
VStem: 227 506
LayerCount: 2
Fore
SplineSet
227 436 m 1,0,-1
 227 567 l 2,1,2
 227 559 227 559 449 559 c 0,3,4
 503 559 503 559 551 559 c 128,-1,5
 599 559 599 559 636 560 c 128,-1,6
 673 561 673 561 698.5 565 c 128,-1,7
 724 569 724 569 733 575 c 1,8,9
 728 544 728 544 715.5 521 c 128,-1,10
 703 498 703 498 685.5 483.5 c 128,-1,11
 668 469 668 469 645.5 458.5 c 128,-1,12
 623 448 623 448 597.5 444 c 128,-1,13
 572 440 572 440 544 437.5 c 128,-1,14
 516 435 516 435 487.5 436 c 128,-1,15
 459 437 459 437 430 436 c 0,16,17
 403 436 403 436 340 437 c 128,-1,18
 277 438 277 438 264 438 c 0,19,20
 236 438 236 438 227 436 c 1,0,-1
EndSplineSet
Validated: 1
EndChar

StartChar: period
Encoding: 46 46 17
Width: 656
GlyphClass: 2
Flags: W
HStem: -27 220<255.519 407.997>
VStem: 222 219<6.51892 159.997>
LayerCount: 2
Fore
SplineSet
441 84 m 0,0,1
 441 38 441 38 409 5.5 c 128,-1,2
 377 -27 377 -27 333 -27 c 0,3,4
 287 -27 287 -27 254.5 5.5 c 128,-1,5
 222 38 222 38 222 84 c 0,6,7
 222 129 222 129 254.5 161 c 128,-1,8
 287 193 287 193 333 193 c 0,9,10
 377 193 377 193 409 160.5 c 128,-1,11
 441 128 441 128 441 84 c 0,0,1
EndSplineSet
Validated: 1
EndChar

StartChar: slash
Encoding: 47 47 18
Width: 896
GlyphClass: 2
Flags: W
HStem: 1371 20G<654 696>
VStem: 536 185<1112.85 1369.7>
LayerCount: 2
Fore
SplineSet
309 -500 m 1,0,-1
 147 -500 l 1,1,2
 331 236 331 236 438 747.5 c 128,-1,3
 545 1259 545 1259 536 1341 c 1,4,5
 545 1356 545 1356 589.5 1373.5 c 128,-1,6
 634 1391 634 1391 674 1391 c 0,7,8
 718 1391 718 1391 721 1337 c 0,9,10
 724 1313 724 1313 717.5 1280 c 128,-1,11
 711 1247 711 1247 701.5 1212.5 c 128,-1,12
 692 1178 692 1178 690 1169 c 0,13,14
 689 1164 689 1164 649 997.5 c 128,-1,15
 609 831 609 831 559.5 622 c 128,-1,16
 510 413 510 413 456.5 182.5 c 128,-1,17
 403 -48 403 -48 361.5 -238 c 128,-1,18
 320 -428 320 -428 309 -500 c 1,0,-1
EndSplineSet
Validated: 33
EndChar

StartChar: zero
Encoding: 48 48 19
Width: 1232
GlyphClass: 2
Flags: W
HStem: -29 107<530.797 723.288> 1077 127<489.933 692.836>
VStem: 197 178<332.292 861.072> 852 183<316.457 842.568>
LayerCount: 2
Fore
SplineSet
658 1204 m 0,0,1
 519 1204 519 1204 413.5 1121 c 128,-1,2
 308 1038 308 1038 252.5 893.5 c 128,-1,3
 197 749 197 749 197 567 c 0,4,5
 197 444 197 444 217.5 343.5 c 128,-1,6
 238 243 238 243 273.5 174.5 c 128,-1,7
 309 106 309 106 357 59.5 c 128,-1,8
 405 13 405 13 457.5 -8 c 128,-1,9
 510 -29 510 -29 568 -29 c 0,10,11
 713 -29 713 -29 820.5 58.5 c 128,-1,12
 928 146 928 146 981.5 290.5 c 128,-1,13
 1035 435 1035 435 1035 614 c 0,14,15
 1035 760 1035 760 1005 875 c 128,-1,16
 975 990 975 990 923 1060.5 c 128,-1,17
 871 1131 871 1131 803.5 1167.5 c 128,-1,18
 736 1204 736 1204 658 1204 c 0,0,1
633 78 m 0,19,20
 525 78 525 78 452.5 241 c 128,-1,21
 380 404 380 404 375 651 c 1,22,23
 377 828 377 828 437 952.5 c 128,-1,24
 497 1077 497 1077 582 1077 c 0,25,26
 694 1077 694 1077 773 924.5 c 128,-1,27
 852 772 852 772 852 537 c 0,28,29
 852 409 852 409 819 301.5 c 128,-1,30
 786 194 786 194 736 136 c 128,-1,31
 686 78 686 78 633 78 c 0,19,20
EndSplineSet
Validated: 9
EndChar

StartChar: one
Encoding: 49 49 20
Width: 955
GlyphClass: 2
Flags: W
HStem: 0 21G<528 731> 0 21G<528 731>
VStem: 528 203<0 534.156> 528 186<2.31396 998.074>
LayerCount: 2
Fore
SplineSet
731 0 m 1,0,-1
 528 0 l 1,1,-1
 528 8 l 1,2,-1
 534 860 l 2,3,4
 534 970 534 970 497 999 c 1,5,-1
 200 907 l 1,6,-1
 163 1010 l 1,7,-1
 634 1208 l 1,8,-1
 665 1208 l 1,9,-1
 716 1122 l 1,10,-1
 713 1054 l 2,11,12
 710 986 710 986 710 965 c 2,13,-1
 714 154 l 2,14,15
 714 74 714 74 731 0 c 1,0,-1
EndSplineSet
Validated: 1
EndChar

StartChar: two
Encoding: 50 50 21
Width: 1125
GlyphClass: 2
Flags: W
HStem: 0 139<780 909.315> 1102 102<383.414 609.267>
VStem: 188 156<960.752 1061.87> 677 207<717.472 1028.65>
LayerCount: 2
Fore
SplineSet
184 0 m 1,0,-1
 780 0 l 2,1,2
 873 0 873 0 910.5 34 c 128,-1,3
 948 68 948 68 948 117 c 0,4,5
 948 143 948 143 942 164 c 1,6,7
 923 145 923 145 887.5 142 c 128,-1,8
 852 139 852 139 698 139 c 2,9,-1
 348 139 l 1,10,-1
 387 172 l 2,11,12
 427 204 427 204 487 258 c 128,-1,13
 547 312 547 312 616 389.5 c 128,-1,14
 685 467 685 467 745 549.5 c 128,-1,15
 805 632 805 632 844.5 729.5 c 128,-1,16
 884 827 884 827 884 913 c 0,17,18
 884 969 884 969 864 1019 c 128,-1,19
 844 1069 844 1069 802.5 1111.5 c 128,-1,20
 761 1154 761 1154 687.5 1179 c 128,-1,21
 614 1204 614 1204 518 1204 c 0,22,23
 435 1204 435 1204 359.5 1180.5 c 128,-1,24
 284 1157 284 1157 236 1113.5 c 128,-1,25
 188 1070 188 1070 188 1018 c 0,26,27
 188 984 188 984 214 960 c 128,-1,28
 240 936 240 936 278 936 c 0,29,30
 312 936 312 936 344 958 c 1,31,-1
 344 973 l 2,32,33
 344 1023 344 1023 389 1062.5 c 128,-1,34
 434 1102 434 1102 497 1102 c 0,35,36
 587 1102 587 1102 632 1029 c 128,-1,37
 677 956 677 956 677 850 c 0,38,39
 677 758 677 758 626.5 646.5 c 128,-1,40
 576 535 576 535 503.5 441 c 128,-1,41
 431 347 431 347 359 267.5 c 128,-1,42
 287 188 287 188 235 139 c 2,43,-1
 184 90 l 1,44,-1
 184 0 l 1,0,-1
EndSplineSet
Validated: 9
EndChar

StartChar: three
Encoding: 51 51 22
Width: 1108
GlyphClass: 2
Flags: W
HStem: -170 86<179.594 455.1> 1102 102<390.206 617.828>
VStem: 195 156<945.382 1061.26> 672 201<809.248 1048.1> 703 215<124.789 464.093>
LayerCount: 2
Fore
SplineSet
269 -170 m 0,0,1
 236 -170 236 -170 212 -156 c 128,-1,2
 188 -142 188 -142 178 -125 c 128,-1,3
 168 -108 168 -108 164 -94 c 2,4,-1
 160 -80 l 1,5,6
 194 -84 194 -84 214 -84 c 0,7,8
 279 -84 279 -84 343 -73 c 128,-1,9
 407 -62 407 -62 472 -35 c 128,-1,10
 537 -8 537 -8 586.5 32 c 128,-1,11
 636 72 636 72 668.5 135 c 128,-1,12
 701 198 701 198 703 276 c 0,13,14
 703 328 703 328 693.5 371 c 128,-1,15
 684 414 684 414 670 443 c 128,-1,16
 656 472 656 472 632.5 495.5 c 128,-1,17
 609 519 609 519 588 532 c 128,-1,18
 567 545 567 545 536.5 555.5 c 128,-1,19
 506 566 506 566 486 570.5 c 128,-1,20
 466 575 466 575 435 580 c 1,21,-1
 457 635 l 1,22,-1
 461 637 l 2,23,24
 552 679 552 679 612 756 c 128,-1,25
 672 833 672 833 672 915 c 0,26,27
 672 960 672 960 657 1000.5 c 128,-1,28
 642 1041 642 1041 602.5 1071.5 c 128,-1,29
 563 1102 563 1102 504 1102 c 0,30,31
 439 1102 439 1102 392 1062.5 c 128,-1,32
 345 1023 345 1023 351 958 c 1,33,34
 296 921 296 921 245.5 942.5 c 128,-1,35
 195 964 195 964 195 1018 c 0,36,37
 195 1096 195 1096 288.5 1150 c 128,-1,38
 382 1204 382 1204 509 1204 c 0,39,40
 602 1204 602 1204 674 1181 c 128,-1,41
 746 1158 746 1158 788 1119.5 c 128,-1,42
 830 1081 830 1081 851.5 1037 c 128,-1,43
 873 993 873 993 873 946 c 0,44,45
 873 857 873 857 806.5 779.5 c 128,-1,46
 740 702 740 702 621 641 c 1,47,48
 668 634 668 634 704.5 623.5 c 128,-1,49
 741 613 741 613 783 590 c 128,-1,50
 825 567 825 567 853 533.5 c 128,-1,51
 881 500 881 500 899.5 444 c 128,-1,52
 918 388 918 388 918 315 c 0,53,54
 918 215 918 215 877 132 c 128,-1,55
 836 49 836 49 770 -5.5 c 128,-1,56
 704 -60 704 -60 617.5 -98.5 c 128,-1,57
 531 -137 531 -137 443.5 -153.5 c 128,-1,58
 356 -170 356 -170 269 -170 c 0,0,1
EndSplineSet
Validated: 33
EndChar

StartChar: four
Encoding: 52 52 23
Width: 1245
GlyphClass: 2
Flags: W
HStem: 203 139<344 686 868 1060.3>
VStem: 684 203<-168 198.333> 684 186<-165.686 203 342 1001.62>
LayerCount: 2
Fore
SplineSet
190 203 m 1,0,-1
 164 233 l 1,1,2
 205 362 205 362 323 580.5 c 128,-1,3
 441 799 441 799 566 983.5 c 128,-1,4
 691 1168 691 1168 751 1208 c 1,5,-1
 876 1208 l 1,6,-1
 872 1122 l 1,7,-1
 869 1054 l 2,8,9
 866 986 866 986 866 965 c 2,10,-1
 866 342 l 1,11,12
 979 342 979 342 1020.5 346 c 128,-1,13
 1062 350 1062 350 1079 367 c 1,14,15
 1118 205 1118 205 917 203 c 2,16,-1
 868 203 l 1,17,18
 868 53 868 53 870 -14 c 0,19,20
 870 -94 870 -94 887 -168 c 1,21,-1
 684 -168 l 1,22,-1
 684 -160 l 1,23,-1
 686 203 l 1,24,-1
 190 203 l 1,0,-1
704 1004 m 1,25,26
 641 933 641 933 522 717.5 c 128,-1,27
 403 502 403 502 344 342 c 1,28,-1
 686 342 l 1,29,-1
 690 848 l 2,30,31
 692 928 692 928 704 1004 c 1,25,26
EndSplineSet
Validated: 33
EndChar

StartChar: five
Encoding: 53 53 24
Width: 1071
GlyphClass: 2
Flags: W
HStem: -170 86<187.594 429.348> 648 102<338 489.821> 1038 140<351 833.477> 1182 20G<843 854.5>
VStem: 650 215<127.246 490.956>
LayerCount: 2
Fore
SplineSet
277 1178 m 1,0,-1
 609 1178 l 2,1,2
 763 1178 763 1178 798.5 1181 c 128,-1,3
 834 1184 834 1184 852 1202 c 1,4,5
 857 1181 857 1181 858.5 1161.5 c 128,-1,6
 860 1142 860 1142 853 1118.5 c 128,-1,7
 846 1095 846 1095 829.5 1078.5 c 128,-1,8
 813 1062 813 1062 777.5 1050.5 c 128,-1,9
 742 1039 742 1039 691 1038 c 2,10,-1
 351 1038 l 1,11,-1
 338 750 l 1,12,13
 865 750 865 750 865 336 c 0,14,15
 865 236 865 236 830.5 151 c 128,-1,16
 796 66 796 66 738 8 c 128,-1,17
 680 -50 680 -50 604 -91 c 128,-1,18
 528 -132 528 -132 445 -151 c 128,-1,19
 362 -170 362 -170 277 -170 c 0,20,21
 244 -170 244 -170 220 -156 c 128,-1,22
 196 -142 196 -142 186 -125 c 128,-1,23
 176 -108 176 -108 172 -94 c 2,24,-1
 168 -80 l 1,25,26
 202 -84 202 -84 222 -84 c 0,27,28
 301 -84 301 -84 374 -62 c 128,-1,29
 447 -40 447 -40 508.5 4.5 c 128,-1,30
 570 49 570 49 608.5 124.5 c 128,-1,31
 647 200 647 200 650 297 c 0,32,33
 650 369 650 369 632.5 427.5 c 128,-1,34
 615 486 615 486 588 522.5 c 128,-1,35
 561 559 561 559 524 585 c 128,-1,36
 487 611 487 611 452.5 623.5 c 128,-1,37
 418 636 418 636 381 641 c 0,38,39
 312 652 312 652 271 648 c 2,40,-1
 230 643 l 1,41,-1
 211 676 l 1,42,-1
 244 1151 l 1,43,-1
 277 1178 l 1,0,-1
EndSplineSet
Validated: 33
EndChar

StartChar: six
Encoding: 54 54 25
Width: 1215
GlyphClass: 2
Flags: W
HStem: -27 105<525.291 747.557> 739 109<508.346 728.532> 1249 119<596.871 915.949>
VStem: 196 203<261.761 478.5 569 708.18> 821 193<236.131 631.114>
LayerCount: 2
Fore
SplineSet
698 848 m 0,0,1
 551 848 551 848 403 741 c 1,2,3
 422 998 422 998 514.5 1123.5 c 128,-1,4
 607 1249 607 1249 743 1249 c 0,5,6
 820 1249 820 1249 880 1225 c 128,-1,7
 940 1201 940 1201 968 1157 c 1,8,9
 977 1184 977 1184 977 1214 c 0,10,11
 977 1258 977 1258 953 1289.5 c 128,-1,12
 929 1321 929 1321 887 1337.5 c 128,-1,13
 845 1354 845 1354 800 1361 c 128,-1,14
 755 1368 755 1368 702 1368 c 0,15,16
 631 1368 631 1368 562.5 1343 c 128,-1,17
 494 1318 494 1318 427 1258 c 128,-1,18
 360 1198 360 1198 309.5 1109 c 128,-1,19
 259 1020 259 1020 227.5 881 c 128,-1,20
 196 742 196 742 196 569 c 0,21,22
 196 480 196 480 208 398 c 128,-1,23
 220 316 220 316 249 237 c 128,-1,24
 278 158 278 158 321.5 100.5 c 128,-1,25
 365 43 365 43 433.5 8 c 128,-1,26
 502 -27 502 -27 588 -27 c 0,27,28
 723 -27 723 -27 821.5 45 c 128,-1,29
 920 117 920 117 967 229.5 c 128,-1,30
 1014 342 1014 342 1014 477 c 0,31,32
 1014 664 1014 664 927 756 c 128,-1,33
 840 848 840 848 698 848 c 0,0,1
399 633 m 2,34,-1
 399 686 l 1,35,36
 436 709 436 709 490.5 724 c 128,-1,37
 545 739 545 739 596 739 c 0,38,39
 821 739 821 739 821 397 c 0,40,41
 821 78 821 78 637 78 c 0,42,43
 580 78 580 78 536.5 112.5 c 128,-1,44
 493 147 493 147 467.5 200.5 c 128,-1,45
 442 254 442 254 426 330 c 128,-1,46
 410 406 410 406 404.5 478.5 c 128,-1,47
 399 551 399 551 399 633 c 2,34,-1
EndSplineSet
Validated: 9
EndChar

StartChar: seven
Encoding: 55 55 26
Width: 1189
GlyphClass: 2
Flags: W
HStem: 991 187<257.763 382.5 485 795.547>
LayerCount: 2
Fore
SplineSet
507 -49 m 2,0,-1
 1021 1143 l 1,1,-1
 989 1178 l 1,2,-1
 446 1178 l 2,3,4
 399 1178 399 1178 362 1178 c 128,-1,5
 325 1178 325 1178 297 1178.5 c 128,-1,6
 269 1179 269 1179 248.5 1180 c 128,-1,7
 228 1181 228 1181 213.5 1184 c 128,-1,8
 199 1187 199 1187 189.5 1191 c 128,-1,9
 180 1195 180 1195 173 1202 c 1,10,11
 170 1189 170 1189 170 1175 c 128,-1,12
 170 1161 170 1161 172.5 1143 c 128,-1,13
 175 1125 175 1125 184.5 1108 c 128,-1,14
 194 1091 194 1091 208.5 1073.5 c 128,-1,15
 223 1056 223 1056 247.5 1041.5 c 128,-1,16
 272 1027 272 1027 304 1015.5 c 128,-1,17
 336 1004 336 1004 382.5 997.5 c 128,-1,18
 429 991 429 991 485 991 c 0,19,20
 582 991 582 991 660 999.5 c 128,-1,21
 738 1008 738 1008 767 1016 c 2,22,-1
 796 1024 l 1,23,-1
 399 80 l 2,24,25
 368 -2 368 -2 340.5 -51 c 128,-1,26
 313 -100 313 -100 297.5 -114 c 128,-1,27
 282 -128 282 -128 261 -137 c 1,28,29
 283 -153 283 -153 312.5 -161.5 c 128,-1,30
 342 -170 342 -170 378 -168.5 c 128,-1,31
 414 -167 414 -167 449 -137 c 128,-1,32
 484 -107 484 -107 507 -49 c 2,0,-1
EndSplineSet
Validated: 41
EndChar

StartChar: eight
Encoding: 56 56 27
Width: 1198
GlyphClass: 2
Flags: W
HStem: -27 109<440.634 716.596> 1266 102<456.88 728.668>
VStem: 191 151<180.134 482.872> 225 181<978.098 1203.04> 791 147<951.277 1202.8> 821 193<189.641 421.554>
LayerCount: 2
Fore
SplineSet
191 291 m 0,0,1
 191 375 191 375 219 447 c 128,-1,2
 247 519 247 519 292.5 568 c 128,-1,3
 338 617 338 617 377 646 c 128,-1,4
 416 675 416 675 457 696 c 1,5,6
 405 737 405 737 368 771.5 c 128,-1,7
 331 806 331 806 296 848 c 128,-1,8
 261 890 261 890 243 935.5 c 128,-1,9
 225 981 225 981 225 1028 c 0,10,11
 225 1181 225 1181 329 1274.5 c 128,-1,12
 433 1368 433 1368 612 1368 c 0,13,14
 757 1368 757 1368 847.5 1296.5 c 128,-1,15
 938 1225 938 1225 938 1110 c 0,16,17
 938 1058 938 1058 919 1007.5 c 128,-1,18
 900 957 900 957 874 921.5 c 128,-1,19
 848 886 848 886 812 852.5 c 128,-1,20
 776 819 776 819 750.5 801 c 128,-1,21
 725 783 725 783 700 768 c 1,22,23
 758 725 758 725 794 697 c 128,-1,24
 830 669 830 669 876.5 625 c 128,-1,25
 923 581 923 581 949.5 545 c 128,-1,26
 976 509 976 509 995 462.5 c 128,-1,27
 1014 416 1014 416 1014 369 c 0,28,29
 1014 197 1014 197 883.5 85 c 128,-1,30
 753 -27 753 -27 559 -27 c 0,31,32
 507 -27 507 -27 457.5 -17 c 128,-1,33
 408 -7 408 -7 359 17 c 128,-1,34
 310 41 310 41 273 76 c 128,-1,35
 236 111 236 111 213.5 166.5 c 128,-1,36
 191 222 191 222 191 291 c 0,0,1
578 82 m 0,37,38
 669 81 669 81 745 148 c 128,-1,39
 821 215 821 215 821 297 c 0,40,41
 821 329 821 329 809.5 360.5 c 128,-1,42
 798 392 798 392 777 420.5 c 128,-1,43
 756 449 756 449 728 478 c 128,-1,44
 700 507 700 507 667 533.5 c 128,-1,45
 634 560 634 560 597.5 589 c 128,-1,46
 561 618 561 618 524 645 c 1,47,48
 342 547 342 547 342 332 c 0,49,50
 342 221 342 221 409.5 152.5 c 128,-1,51
 477 84 477 84 578 82 c 0,37,38
406 1096 m 0,52,53
 406 1026 406 1026 464.5 961.5 c 128,-1,54
 523 897 523 897 635 815 c 1,55,56
 660 828 660 828 683.5 846.5 c 128,-1,57
 707 865 707 865 733 895 c 128,-1,58
 759 925 759 925 775 970 c 128,-1,59
 791 1015 791 1015 791 1067 c 0,60,61
 791 1161 791 1161 737.5 1213.5 c 128,-1,62
 684 1266 684 1266 590 1266 c 0,63,64
 506 1266 506 1266 456 1221 c 128,-1,65
 406 1176 406 1176 406 1096 c 0,52,53
EndSplineSet
Validated: 33
EndChar

StartChar: nine
Encoding: 57 57 28
Width: 1210
GlyphClass: 2
Flags: W
HStem: -190 118<300.798 611.632> 330 110<483.888 700.627> 1100 104<464.693 686.546>
VStem: 197 193<545.127 934.984> 810 202<469.837 618 756 919.413>
LayerCount: 2
Fore
SplineSet
488 330 m 1,0,-1
 511 330 l 2,1,2
 653 330 653 330 803 434 c 1,3,4
 781 177 781 177 692 52.5 c 128,-1,5
 603 -72 603 -72 465 -72 c 0,6,7
 391 -72 391 -72 321.5 -38.5 c 128,-1,8
 252 -5 252 -5 220 41 c 1,9,10
 212 13 212 13 212 -14 c 0,11,12
 212 -74 212 -74 259.5 -115.5 c 128,-1,13
 307 -157 307 -157 371.5 -173.5 c 128,-1,14
 436 -190 436 -190 509 -190 c 0,15,16
 580 -190 580 -190 648 -164.5 c 128,-1,17
 716 -139 716 -139 783 -78.5 c 128,-1,18
 850 -18 850 -18 900 72 c 128,-1,19
 950 162 950 162 981 303 c 128,-1,20
 1012 444 1012 444 1012 618 c 0,21,22
 1012 707 1012 707 1000 788 c 128,-1,23
 988 869 988 869 958.5 946 c 128,-1,24
 929 1023 929 1023 885.5 1079.5 c 128,-1,25
 842 1136 842 1136 774 1170 c 128,-1,26
 706 1204 706 1204 621 1204 c 0,27,28
 519 1204 519 1204 437 1162.5 c 128,-1,29
 355 1121 355 1121 303.5 1050 c 128,-1,30
 252 979 252 979 224.5 887.5 c 128,-1,31
 197 796 197 796 197 694 c 0,32,33
 197 519 197 519 276.5 427 c 128,-1,34
 356 335 356 335 488 330 c 1,0,-1
582 1100 m 2,35,36
 647 1097 647 1097 694 1049 c 128,-1,37
 741 1001 741 1001 765 921 c 128,-1,38
 789 841 789 841 799.5 756 c 128,-1,39
 810 671 810 671 810 573 c 0,40,41
 810 516 810 516 808 489 c 1,42,43
 772 469 772 469 717.5 454.5 c 128,-1,44
 663 440 663 440 615 440 c 0,45,46
 390 440 390 440 390 776 c 0,47,48
 390 1100 390 1100 572 1100 c 2,49,-1
 582 1100 l 2,35,36
EndSplineSet
Validated: 9
EndChar

StartChar: colon
Encoding: 58 58 29
Width: 680
GlyphClass: 2
Flags: W
HStem: -31 232<260.551 422.45> 559 232<261.066 422.45>
VStem: 226 231<4.06616 166.45 594.066 755.934>
LayerCount: 2
Fore
SplineSet
457 86 m 0,0,1
 457 37 457 37 423.5 3 c 128,-1,2
 390 -31 390 -31 342 -31 c 0,3,4
 293 -31 293 -31 259.5 3 c 128,-1,5
 226 37 226 37 226 86 c 0,6,7
 226 134 226 134 259.5 167.5 c 128,-1,8
 293 201 293 201 342 201 c 0,9,10
 390 201 390 201 423.5 167.5 c 128,-1,11
 457 134 457 134 457 86 c 0,0,1
457 676 m 0,12,13
 457 627 457 627 423.5 593 c 128,-1,14
 390 559 390 559 342 559 c 0,15,16
 293 559 293 559 259.5 593 c 128,-1,17
 226 627 226 627 226 676 c 0,18,19
 226 724 226 724 260 757.5 c 128,-1,20
 294 791 294 791 342 791 c 128,-1,21
 390 791 390 791 423.5 757 c 128,-1,22
 457 723 457 723 457 676 c 0,12,13
EndSplineSet
Validated: 1
EndChar

StartChar: semicolon
Encoding: 59 59 30
Width: 710
GlyphClass: 2
Flags: W
HStem: 559 219<300.003 452.997>
VStem: 267 219<592.519 744.997> 326 162<-79.1721 67.5319>
LayerCount: 2
Fore
SplineSet
486 670 m 0,0,1
 486 624 486 624 454 591.5 c 128,-1,2
 422 559 422 559 377 559 c 0,3,4
 331 559 331 559 299 591.5 c 128,-1,5
 267 624 267 624 267 670 c 0,6,7
 267 714 267 714 299 746 c 128,-1,8
 331 778 331 778 377 778 c 0,9,10
 422 778 422 778 454 746 c 128,-1,11
 486 714 486 714 486 670 c 0,0,1
228 -295 m 1,12,-1
 191 -246 l 1,13,14
 326 -117 326 -117 326 -20 c 0,15,16
 326 70 326 70 267 70 c 1,17,18
 261 118 261 118 293.5 155.5 c 128,-1,19
 326 193 326 193 371 193 c 0,20,21
 429 193 429 193 458.5 158.5 c 128,-1,22
 488 124 488 124 488 61 c 0,23,24
 488 -19 488 -19 419.5 -117 c 128,-1,25
 351 -215 351 -215 228 -295 c 1,12,-1
EndSplineSet
Validated: 33
EndChar

StartChar: less
Encoding: 60 60 31
Width: 963
GlyphClass: 2
Flags: W
LayerCount: 2
Fore
SplineSet
382 506 m 1,0,-1
 408 527 l 2,1,2
 434 548 434 548 450 569 c 2,3,-1
 677 872 l 1,4,-1
 692 890 l 2,5,6
 707 908 707 908 731 929 c 128,-1,7
 755 950 755 950 773 956 c 1,8,-1
 743 956 l 2,9,10
 683 956 683 956 612.5 933 c 128,-1,11
 542 910 542 910 503 866 c 2,12,-1
 235 547 l 1,13,-1
 194 506 l 1,14,-1
 239 461 l 1,15,-1
 511 139 l 2,16,17
 548 96 548 96 615.5 73.5 c 128,-1,18
 683 51 683 51 743 51 c 2,19,-1
 773 51 l 1,20,21
 752 60 752 60 730 78.5 c 128,-1,22
 708 97 708 97 696 111 c 2,23,-1
 685 125 l 1,24,-1
 454 438 l 2,25,26
 435 461 435 461 408 484 c 2,27,-1
 382 506 l 1,0,-1
EndSplineSet
Validated: 9
EndChar

StartChar: equal
Encoding: 61 61 32
Width: 1197
GlyphClass: 2
Flags: W
HStem: 293 123<228.85 926.175> 600 123<228.85 926.175>
LayerCount: 2
Fore
SplineSet
226 600 m 1,0,-1
 226 731 l 2,1,2
 226 723 226 723 693 723 c 0,3,4
 747 723 747 723 795 723 c 128,-1,5
 843 723 843 723 880 724 c 128,-1,6
 917 725 917 725 942.5 729 c 128,-1,7
 968 733 968 733 977 739 c 1,8,9
 972 708 972 708 959.5 685 c 128,-1,10
 947 662 947 662 929.5 647.5 c 128,-1,11
 912 633 912 633 889.5 622.5 c 128,-1,12
 867 612 867 612 841.5 608 c 128,-1,13
 816 604 816 604 788 601.5 c 128,-1,14
 760 599 760 599 731.5 600 c 128,-1,15
 703 601 703 601 674 600 c 0,16,17
 647 600 647 600 461.5 601 c 128,-1,18
 276 602 276 602 263 602 c 0,19,20
 234 602 234 602 226 600 c 1,0,-1
226 293 m 1,21,-1
 226 424 l 2,22,23
 226 416 226 416 693 416 c 0,24,25
 747 416 747 416 795 416 c 128,-1,26
 843 416 843 416 880 417 c 128,-1,27
 917 418 917 418 942.5 422 c 128,-1,28
 968 426 968 426 977 432 c 1,29,30
 972 401 972 401 959.5 378 c 128,-1,31
 947 355 947 355 929.5 340.5 c 128,-1,32
 912 326 912 326 889.5 315.5 c 128,-1,33
 867 305 867 305 841.5 301 c 128,-1,34
 816 297 816 297 788 294.5 c 128,-1,35
 760 292 760 292 731.5 293 c 128,-1,36
 703 294 703 294 674 293 c 0,37,38
 647 293 647 293 461.5 294 c 128,-1,39
 276 295 276 295 263 295 c 0,40,41
 234 295 234 295 226 293 c 1,21,-1
EndSplineSet
Validated: 1
EndChar

StartChar: greater
Encoding: 62 62 33
Width: 968
GlyphClass: 2
Flags: W
VStem: 192 580
LayerCount: 2
Fore
SplineSet
583 506 m 1,0,-1
 557 527 l 2,1,2
 531 548 531 548 516 569 c 2,3,-1
 288 872 l 1,4,-1
 273 890 l 2,5,6
 258 908 258 908 234 929 c 128,-1,7
 210 950 210 950 192 956 c 1,8,-1
 223 956 l 2,9,10
 282 956 282 956 352.5 933 c 128,-1,11
 423 910 423 910 462 866 c 2,12,-1
 733 547 l 2,13,14
 743 534 743 534 758 520 c 2,15,-1
 772 506 l 1,16,-1
 726 461 l 1,17,-1
 454 139 l 2,18,19
 418 96 418 96 350 73.5 c 128,-1,20
 282 51 282 51 223 51 c 2,21,-1
 192 51 l 1,22,23
 213 60 213 60 235 78.5 c 128,-1,24
 257 97 257 97 268 111 c 2,25,-1
 280 125 l 1,26,-1
 511 438 l 2,27,28
 530 461 530 461 556 484 c 2,29,-1
 583 506 l 1,0,-1
EndSplineSet
Validated: 1
EndChar

StartChar: question
Encoding: 63 63 34
Width: 954
GlyphClass: 2
Flags: W
HStem: -27 220<328.519 480.997> 1118 92<370.017 564.349>
VStem: 170 174<958.009 1093.38> 281 135<347.213 510.307> 295 219<6.51892 159.997> 604 166<878.847 1079>
LayerCount: 2
Fore
SplineSet
453 319 m 1,0,-1
 406 297 l 1,1,2
 355 317 355 317 318 354.5 c 128,-1,3
 281 392 281 392 281 446 c 0,4,5
 281 524 281 524 314.5 594.5 c 128,-1,6
 348 665 348 665 395 714.5 c 128,-1,7
 442 764 442 764 489.5 807 c 128,-1,8
 537 850 537 850 570.5 891.5 c 128,-1,9
 604 933 604 933 604 969 c 0,10,11
 604 1039 604 1039 562.5 1078.5 c 128,-1,12
 521 1118 521 1118 455 1118 c 0,13,14
 408 1118 408 1118 376 1089.5 c 128,-1,15
 344 1061 344 1061 344 1008 c 0,16,17
 344 984 344 984 352 963 c 1,18,19
 323 924 323 924 268 924 c 0,20,21
 219 924 219 924 194.5 951.5 c 128,-1,22
 170 979 170 979 170 1012 c 0,23,24
 170 1076 170 1076 211.5 1122.5 c 128,-1,25
 253 1169 253 1169 314 1189.5 c 128,-1,26
 375 1210 375 1210 445 1210 c 0,27,28
 576 1210 576 1210 673 1135.5 c 128,-1,29
 770 1061 770 1061 770 932 c 0,30,31
 770 869 770 869 733.5 808 c 128,-1,32
 697 747 697 747 645 697.5 c 128,-1,33
 593 648 593 648 541 600 c 128,-1,34
 489 552 489 552 452.5 498.5 c 128,-1,35
 416 445 416 445 416 393 c 0,36,37
 416 349 416 349 453 319 c 1,0,-1
514 84 m 0,38,39
 514 38 514 38 482 5.5 c 128,-1,40
 450 -27 450 -27 406 -27 c 0,41,42
 360 -27 360 -27 327.5 5.5 c 128,-1,43
 295 38 295 38 295 84 c 0,44,45
 295 129 295 129 327.5 161 c 128,-1,46
 360 193 360 193 406 193 c 0,47,48
 450 193 450 193 482 160.5 c 128,-1,49
 514 128 514 128 514 84 c 0,38,39
EndSplineSet
Validated: 1
EndChar

StartChar: at
Encoding: 64 64 35
Width: 1990
GlyphClass: 2
Flags: W
HStem: -381 109<740.385 959.995> -55 131<1261 1480.17> -23 148<838.058 991.358> 946 90<959.082 1138> 1225 123<806.653 1262.31>
VStem: 192 149<168.798 699.01> 550 184<242.998 637.322> 1123 177<94.2891 174 182.373 332.218> 1138 166<559.99 944.867> 1674 127<352.951 814.133>
LayerCount: 2
Fore
SplineSet
1300 348 m 0,0,1
 1301 305 1301 305 1300 265 c 128,-1,2
 1299 225 1299 225 1303.5 190.5 c 128,-1,3
 1308 156 1308 156 1317.5 130.5 c 128,-1,4
 1327 105 1327 105 1347.5 90.5 c 128,-1,5
 1368 76 1368 76 1400 76 c 0,6,7
 1467 76 1467 76 1530 142.5 c 128,-1,8
 1593 209 1593 209 1633.5 326.5 c 128,-1,9
 1674 444 1674 444 1674 578 c 0,10,11
 1674 753 1674 753 1587.5 902 c 128,-1,12
 1501 1051 1501 1051 1351 1138 c 128,-1,13
 1201 1225 1201 1225 1023 1225 c 0,14,15
 829 1225 829 1225 673 1125 c 128,-1,16
 517 1025 517 1025 429 848.5 c 128,-1,17
 341 672 341 672 341 455 c 0,18,19
 341 168 341 168 488.5 -28.5 c 128,-1,20
 636 -225 636 -225 878 -268 c 0,21,22
 892 -272 892 -272 927 -272 c 0,23,24
 985 -272 985 -272 1005 -260 c 1,25,26
 972 -381 972 -381 816 -381 c 0,27,28
 690 -381 690 -381 573 -313.5 c 128,-1,29
 456 -246 456 -246 373.5 -137 c 128,-1,30
 291 -28 291 -28 241.5 115.5 c 128,-1,31
 192 259 192 259 192 406 c 0,32,33
 192 597 192 597 262 771 c 128,-1,34
 332 945 332 945 449.5 1071.5 c 128,-1,35
 567 1198 567 1198 730 1273 c 128,-1,36
 893 1348 893 1348 1072 1348 c 0,37,38
 1275 1348 1275 1348 1442 1255 c 128,-1,39
 1609 1162 1609 1162 1705 997.5 c 128,-1,40
 1801 833 1801 833 1801 631 c 0,41,42
 1801 456 1801 456 1737 299 c 128,-1,43
 1673 142 1673 142 1558 43.5 c 128,-1,44
 1443 -55 1443 -55 1306 -55 c 0,45,46
 1216 -55 1216 -55 1165 0.5 c 128,-1,47
 1114 56 1114 56 1123 174 c 1,48,49
 1074 76 1074 76 999.5 26.5 c 128,-1,50
 925 -23 925 -23 851 -23 c 0,51,52
 729 -23 729 -23 639.5 98.5 c 128,-1,53
 550 220 550 220 550 381 c 0,54,55
 550 521 550 521 597 644 c 128,-1,56
 644 767 644 767 724 852.5 c 128,-1,57
 804 938 804 938 911.5 987 c 128,-1,58
 1019 1036 1019 1036 1138 1036 c 0,59,60
 1231 1036 1231 1036 1326 1006 c 1,61,62
 1316 924 1316 924 1311.5 825 c 128,-1,63
 1307 726 1307 726 1304 556.5 c 128,-1,64
 1301 387 1301 387 1300 348 c 0,0,1
1111 219 m 1,65,-1
 1138 946 l 1,66,67
 1126 946 1126 946 1120 946 c 128,-1,68
 1114 946 1114 946 1082.5 942 c 128,-1,69
 1051 938 1051 938 1027 930 c 128,-1,70
 1003 922 1003 922 964.5 904 c 128,-1,71
 926 886 926 886 897.5 861.5 c 128,-1,72
 869 837 869 837 836.5 795.5 c 128,-1,73
 804 754 804 754 783 703 c 128,-1,74
 762 652 762 652 748 578 c 128,-1,75
 734 504 734 504 734 416 c 0,76,77
 734 299 734 299 798.5 212 c 128,-1,78
 863 125 863 125 949 125 c 0,79,80
 1039 125 1039 125 1111 219 c 1,65,-1
EndSplineSet
Validated: 33
EndChar

StartChar: A
Encoding: 65 65 36
Width: 1472
GlyphClass: 2
Flags: W
HStem: 0 21G<153 305.5 1090.5 1341> 0 21G<153 305.5 1090.5 1341> 471 98<501 907> 1375 20G<854 865.5>
LayerCount: 2
Fore
SplineSet
860 1395 m 1,0,1
 871 1338 871 1338 909 1221 c 2,2,-1
 1269 164 l 1,3,4
 1294 77 1294 77 1341 0 c 1,5,-1
 1093 0 l 1,6,7
 1088 46 1088 46 1079 70 c 2,8,-1
 942 471 l 1,9,-1
 467 471 l 1,10,-1
 311 27 l 2,11,12
 309 20 309 20 307.5 11 c 128,-1,13
 306 2 306 2 305 0 c 2,14,-1
 153 0 l 1,15,-1
 618 1221 l 2,16,17
 630 1260 630 1260 649 1289.5 c 128,-1,18
 668 1319 668 1319 687 1335 c 128,-1,19
 706 1351 706 1351 732 1362.5 c 128,-1,20
 758 1374 758 1374 776 1378 c 128,-1,21
 794 1382 794 1382 821 1387 c 128,-1,22
 848 1392 848 1392 860 1395 c 1,0,1
907 569 m 1,23,-1
 708 1153 l 1,24,-1
 501 569 l 1,25,-1
 907 569 l 1,23,-1
EndSplineSet
Validated: 1
EndChar

StartChar: B
Encoding: 66 66 37
Width: 1225
GlyphClass: 2
Flags: W
HStem: 0 98<450 757.681> 698 99<448 691.875> 1243 115<456 701.435>
VStem: 241 209<98 702 797 1243> 786 174<912.28 1158.82> 868 182<221.2 539.212>
LayerCount: 2
Fore
SplineSet
239 0 m 1,0,-1
 241 139 l 1,1,-1
 241 1085 l 2,2,3
 241 1131 241 1131 237.5 1167.5 c 128,-1,4
 234 1204 234 1204 229 1225.5 c 128,-1,5
 224 1247 224 1247 217 1264.5 c 128,-1,6
 210 1282 210 1282 202.5 1291.5 c 128,-1,7
 195 1301 195 1301 188 1313 c 1,8,-1
 202 1348 l 1,9,-1
 565 1358 l 2,10,11
 662 1361 662 1361 740 1336.5 c 128,-1,12
 818 1312 818 1312 864.5 1269 c 128,-1,13
 911 1226 911 1226 935.5 1173.5 c 128,-1,14
 960 1121 960 1121 960 1065 c 0,15,16
 960 975 960 975 907.5 900 c 128,-1,17
 855 825 855 825 762 770 c 1,18,19
 823 752 823 752 872 724 c 128,-1,20
 921 696 921 696 962.5 654 c 128,-1,21
 1004 612 1004 612 1027 551 c 128,-1,22
 1050 490 1050 490 1050 414 c 0,23,24
 1050 225 1050 225 918 112.5 c 128,-1,25
 786 0 786 0 563 0 c 2,26,-1
 239 0 l 1,0,-1
532 698 m 2,27,-1
 446 702 l 1,28,29
 442 301 442 301 450 98 c 1,30,-1
 581 98 l 2,31,32
 724 98 724 98 796 170.5 c 128,-1,33
 868 243 868 243 868 346 c 0,34,35
 868 513 868 513 775 602.5 c 128,-1,36
 682 692 682 692 532 698 c 2,27,-1
557 797 m 2,37,38
 626 797 626 797 694 784 c 1,39,40
 786 872 786 872 786 1008 c 0,41,42
 786 1118 786 1118 720.5 1182.5 c 128,-1,43
 655 1247 655 1247 557 1245 c 2,44,-1
 456 1243 l 1,45,46
 456 1112 456 1112 454 1024 c 0,47,48
 448 802 448 802 448 797 c 1,49,-1
 557 797 l 2,37,38
EndSplineSet
Validated: 33
EndChar

StartChar: C
Encoding: 67 67 38
Width: 1409
GlyphClass: 2
Flags: W
HStem: -27 140<671.915 1025.78> 1249 123<621.476 962.276>
VStem: 175 226<450.019 931.199>
LayerCount: 2
Fore
SplineSet
1226 311 m 1,0,1
 1234 295 1234 295 1234 268 c 0,2,3
 1234 181 1234 181 1171 113 c 128,-1,4
 1108 45 1108 45 1002.5 9 c 128,-1,5
 897 -27 897 -27 769 -27 c 0,6,7
 628 -27 628 -27 514.5 24.5 c 128,-1,8
 401 76 401 76 327 166.5 c 128,-1,9
 253 257 253 257 214 379 c 128,-1,10
 175 501 175 501 175 645 c 0,11,12
 175 856 175 856 256.5 1021.5 c 128,-1,13
 338 1187 338 1187 487.5 1279.5 c 128,-1,14
 637 1372 637 1372 831 1372 c 0,15,16
 962 1372 962 1372 1079 1321.5 c 128,-1,17
 1196 1271 1196 1271 1230 1202 c 1,18,19
 1230 1166 1230 1166 1190 1101.5 c 128,-1,20
 1150 1037 1150 1037 1101 1016 c 1,21,-1
 1068 1042 l 1,22,23
 1068 1065 1068 1065 1052.5 1097.5 c 128,-1,24
 1037 1130 1037 1130 1008 1165 c 128,-1,25
 979 1200 979 1200 925.5 1224.5 c 128,-1,26
 872 1249 872 1249 806 1249 c 0,27,28
 724 1249 724 1249 656 1221 c 128,-1,29
 588 1193 588 1193 541.5 1144.5 c 128,-1,30
 495 1096 495 1096 463 1029.5 c 128,-1,31
 431 963 431 963 416 888.5 c 128,-1,32
 401 814 401 814 401 733 c 0,33,34
 401 611 401 611 430 501 c 128,-1,35
 459 391 459 391 514 303.5 c 128,-1,36
 569 216 569 216 658.5 164.5 c 128,-1,37
 748 113 748 113 860 113 c 0,38,39
 959 113 959 113 1066.5 165 c 128,-1,40
 1174 217 1174 217 1226 311 c 1,0,1
EndSplineSet
Validated: 1
EndChar

StartChar: D
Encoding: 68 68 39
Width: 1476
GlyphClass: 2
Flags: W
HStem: 0 109<452 845.963> 1243 115<456 767.149>
VStem: 241 211<109 1239> 1071 223<433.054 881.268>
LayerCount: 2
Fore
SplineSet
673 0 m 2,0,-1
 239 0 l 1,1,2
 241 35 241 35 241 96 c 2,3,-1
 241 139 l 1,4,-1
 241 1069 l 2,5,6
 241 1122 241 1122 239 1156.5 c 128,-1,7
 237 1191 237 1191 224.5 1237 c 128,-1,8
 212 1283 212 1283 188 1313 c 1,9,-1
 202 1348 l 1,10,-1
 665 1358 l 2,11,12
 763 1360 763 1360 854 1335.5 c 128,-1,13
 945 1311 945 1311 1025.5 1258.5 c 128,-1,14
 1106 1206 1106 1206 1165.5 1131 c 128,-1,15
 1225 1056 1225 1056 1259.5 949 c 128,-1,16
 1294 842 1294 842 1294 715 c 0,17,18
 1294 564 1294 564 1249.5 433 c 128,-1,19
 1205 302 1205 302 1125.5 206 c 128,-1,20
 1046 110 1046 110 929 55 c 128,-1,21
 812 0 812 0 673 0 c 2,0,-1
698 109 m 2,22,23
 766 109 766 109 832.5 145 c 128,-1,24
 899 181 899 181 951.5 244.5 c 128,-1,25
 1004 308 1004 308 1037 403 c 128,-1,26
 1070 498 1070 498 1071 608 c 0,27,28
 1073 785 1073 785 1006.5 933 c 128,-1,29
 940 1081 940 1081 824 1164.5 c 128,-1,30
 708 1248 708 1248 571 1243 c 2,31,-1
 456 1239 l 1,32,33
 456 1232 456 1232 451 949 c 128,-1,34
 446 666 446 666 446 508 c 0,35,36
 446 277 446 277 452 109 c 1,37,-1
 698 109 l 2,22,23
EndSplineSet
Validated: 33
EndChar

StartChar: E
Encoding: 69 69 40
Width: 1096
GlyphClass: 2
Flags: W
HStem: 0 129<447.272 900.094> 621 124<444 827.139> 1245 103<458 785.305>
VStem: 241 203<129.249 614.669 745 1244.78>
LayerCount: 2
Fore
SplineSet
241 1085 m 2,0,1
 241 1131 241 1131 237.5 1167.5 c 128,-1,2
 234 1204 234 1204 229 1225.5 c 128,-1,3
 224 1247 224 1247 217 1264.5 c 128,-1,4
 210 1282 210 1282 202.5 1291.5 c 128,-1,5
 195 1301 195 1301 188 1313 c 1,6,-1
 202 1348 l 1,7,-1
 510 1348 l 1,8,-1
 860 1354 l 1,9,10
 883 1330 883 1330 893.5 1278.5 c 128,-1,11
 904 1227 904 1227 901 1182.5 c 128,-1,12
 898 1138 898 1138 886 1126 c 1,13,-1
 848 1126 l 1,14,15
 838 1173 838 1173 778 1204.5 c 128,-1,16
 718 1236 718 1236 632 1239 c 2,17,-1
 458 1245 l 1,18,19
 444 1002 444 1002 444 745 c 1,20,-1
 766 745 l 2,21,22
 794 745 794 745 813 751.5 c 128,-1,23
 832 758 832 758 836 765 c 2,24,-1
 841 772 l 2,25,26
 845 772 845 772 845 731 c 0,27,28
 845 707 845 707 838 688.5 c 128,-1,29
 831 670 831 670 822 658.5 c 128,-1,30
 813 647 813 647 795 638.5 c 128,-1,31
 777 630 777 630 764.5 626 c 128,-1,32
 752 622 752 622 728.5 620 c 128,-1,33
 705 618 705 618 694.5 618 c 128,-1,34
 684 618 684 618 661 618 c 0,35,36
 659 618 659 618 610.5 619 c 128,-1,37
 562 620 562 620 519.5 621 c 128,-1,38
 477 622 477 622 442 621 c 1,39,40
 440 419 440 419 448 141 c 0,41,42
 448 137 448 137 452 129 c 1,43,-1
 841 129 l 2,44,45
 869 129 869 129 888 135.5 c 128,-1,46
 907 142 907 142 912 149 c 2,47,-1
 917 156 l 2,48,49
 921 156 921 156 921 115 c 0,50,51
 921 87 921 87 913 66.5 c 128,-1,52
 905 46 905 46 888.5 34 c 128,-1,53
 872 22 872 22 856.5 14.5 c 128,-1,54
 841 7 841 7 816 4 c 128,-1,55
 791 1 791 1 776.5 0.5 c 128,-1,56
 762 0 762 0 737 0 c 2,57,-1
 239 0 l 1,58,-1
 241 139 l 1,59,-1
 241 1085 l 2,0,1
EndSplineSet
Validated: 33
EndChar

StartChar: F
Encoding: 70 70 41
Width: 1057
GlyphClass: 2
Flags: W
HStem: 0 21G<239 465> 0 21G<239 465> 621 124<444 827.139> 1245 103<458 787.305>
VStem: 241 217<0 556.02 753.028 1244.78> 241 207<1.75708 621 745 1237.4>
LayerCount: 2
Fore
SplineSet
465 0 m 1,0,-1
 239 0 l 1,1,-1
 241 139 l 1,2,-1
 241 1085 l 2,3,4
 241 1131 241 1131 237.5 1167.5 c 128,-1,5
 234 1204 234 1204 229 1225.5 c 128,-1,6
 224 1247 224 1247 217 1264.5 c 128,-1,7
 210 1282 210 1282 202.5 1291.5 c 128,-1,8
 195 1301 195 1301 188 1313 c 1,9,-1
 202 1348 l 1,10,-1
 512 1348 l 1,11,-1
 862 1354 l 1,12,13
 885 1330 885 1330 895.5 1278.5 c 128,-1,14
 906 1227 906 1227 903 1182.5 c 128,-1,15
 900 1138 900 1138 888 1126 c 1,16,-1
 850 1126 l 1,17,18
 840 1173 840 1173 780 1204.5 c 128,-1,19
 720 1236 720 1236 635 1239 c 2,20,-1
 458 1245 l 1,21,22
 444 1002 444 1002 444 745 c 1,23,-1
 766 745 l 2,24,25
 794 745 794 745 813 751.5 c 128,-1,26
 832 758 832 758 836 765 c 2,27,-1
 841 772 l 2,28,29
 845 772 845 772 845 731 c 0,30,31
 845 707 845 707 838 688.5 c 128,-1,32
 831 670 831 670 822 658.5 c 128,-1,33
 813 647 813 647 795 638.5 c 128,-1,34
 777 630 777 630 764.5 626 c 128,-1,35
 752 622 752 622 728.5 620 c 128,-1,36
 705 618 705 618 694.5 618 c 128,-1,37
 684 618 684 618 661 618 c 0,38,39
 659 618 659 618 610.5 619 c 128,-1,40
 562 620 562 620 519.5 621 c 128,-1,41
 477 622 477 622 442 621 c 1,42,43
 440 419 440 419 448 141 c 0,44,45
 448 56 448 56 465 0 c 1,0,-1
EndSplineSet
Validated: 33
EndChar

StartChar: G
Encoding: 71 71 42
Width: 1468
GlyphClass: 2
Flags: W
HStem: -27 129<682.811 1038.89> 1249 123<625.83 959.5>
VStem: 174 228<452.407 931.601> 1043 207<133 504.553>
LayerCount: 2
Fore
SplineSet
830 1372 m 2,0,-1
 832 1372 l 2,1,2
 963 1372 963 1372 1080 1321.5 c 128,-1,3
 1197 1271 1197 1271 1231 1202 c 1,4,5
 1231 1166 1231 1166 1191 1101.5 c 128,-1,6
 1151 1037 1151 1037 1102 1016 c 1,7,-1
 1069 1042 l 1,8,9
 1069 1065 1069 1065 1053.5 1097.5 c 128,-1,10
 1038 1130 1038 1130 1008.5 1165 c 128,-1,11
 979 1200 979 1200 925 1224.5 c 128,-1,12
 871 1249 871 1249 805 1249 c 0,13,14
 631 1249 631 1249 519.5 1119.5 c 128,-1,15
 408 990 408 990 402 750 c 0,16,17
 402 625 402 625 428 518 c 128,-1,18
 454 411 454 411 497.5 335.5 c 128,-1,19
 541 260 541 260 599 206.5 c 128,-1,20
 657 153 657 153 722 127.5 c 128,-1,21
 787 102 787 102 854 102 c 0,22,23
 896 102 896 102 970 118 c 2,24,-1
 1043 133 l 1,25,-1
 1043 291 l 2,26,27
 1043 348 1043 348 1038 389.5 c 128,-1,28
 1033 431 1033 431 1025 451 c 128,-1,29
 1017 471 1017 471 1007.5 488.5 c 128,-1,30
 998 506 998 506 990 516 c 1,31,-1
 1004 551 l 1,32,-1
 1022 558 l 2,33,34
 1040 564 1040 564 1075 571 c 128,-1,35
 1110 578 1110 578 1145 578 c 0,36,37
 1208 578 1208 578 1262 553 c 1,38,39
 1250 321 1250 321 1248 229 c 2,40,-1
 1250 43 l 1,41,-1
 1192 33 l 1,42,43
 914 -27 914 -27 738 -27 c 0,44,45
 628 -27 628 -27 527 19 c 128,-1,46
 426 65 426 65 347 149 c 128,-1,47
 268 233 268 233 221 362 c 128,-1,48
 174 491 174 491 174 645 c 0,49,50
 174 856 174 856 255.5 1021.5 c 128,-1,51
 337 1187 337 1187 486.5 1279.5 c 128,-1,52
 636 1372 636 1372 830 1372 c 2,0,-1
EndSplineSet
Validated: 1
EndChar

StartChar: H
Encoding: 72 72 43
Width: 1583
GlyphClass: 2
Flags: W
HStem: 0 21G<238 464 1132 1354> 0 21G<238 464 1132 1354> 629 106<441 1131>
VStem: 242 219<0 560.25 797.492 1302.4> 1129 203<1.57788 629 735 1073.34> 1133 219<0 525.672 794.054 1301.55>
LayerCount: 2
Fore
SplineSet
1332 541 m 0,0,1
 1332 47 1332 47 1354 0 c 1,2,-1
 1135 0 l 1,3,4
 1129 35 1129 35 1129 119 c 0,5,6
 1129 120 1129 120 1129.5 198 c 128,-1,7
 1130 276 1130 276 1130.5 398 c 128,-1,8
 1131 520 1131 520 1131 629 c 1,9,-1
 441 629 l 1,10,-1
 441 541 l 2,11,12
 441 47 441 47 464 0 c 1,13,-1
 238 0 l 1,14,15
 242 136 242 136 242 1087 c 0,16,17
 242 1144 242 1144 237 1185.5 c 128,-1,18
 232 1227 232 1227 224 1247.5 c 128,-1,19
 216 1268 216 1268 207 1285.5 c 128,-1,20
 198 1303 198 1303 189 1313 c 1,21,-1
 203 1348 l 1,22,-1
 249 1361 l 2,23,24
 296 1374 296 1374 345 1374 c 0,25,26
 410 1374 410 1374 461 1350 c 1,27,28
 446 1018 446 1018 441 735 c 1,29,-1
 1131 735 l 1,30,31
 1133 887 1133 887 1133 1087 c 0,32,33
 1133 1144 1133 1144 1128 1185.5 c 128,-1,34
 1123 1227 1123 1227 1115 1247.5 c 128,-1,35
 1107 1268 1107 1268 1097.5 1285.5 c 128,-1,36
 1088 1303 1088 1303 1080 1313 c 1,37,-1
 1094 1348 l 1,38,-1
 1111 1354 l 2,39,40
 1129 1361 1129 1361 1164 1367.5 c 128,-1,41
 1199 1374 1199 1374 1234 1374 c 0,42,43
 1297 1374 1297 1374 1352 1350 c 1,44,45
 1332 890 1332 890 1332 541 c 0,0,1
EndSplineSet
Validated: 1
EndChar

StartChar: I
Encoding: 73 73 44
Width: 692
GlyphClass: 2
Flags: W
HStem: 0 21G<238 464> 0 21G<238 464> 1356 20G<320.5 377.5>
VStem: 242 219<0 525.672 795.192 1304.4>
LayerCount: 2
Fore
SplineSet
464 0 m 1,0,-1
 238 0 l 1,1,2
 242 136 242 136 242 1090 c 0,3,4
 242 1147 242 1147 237 1188 c 128,-1,5
 232 1229 232 1229 224 1249.5 c 128,-1,6
 216 1270 216 1270 207 1287.5 c 128,-1,7
 198 1305 198 1305 189 1315 c 1,8,-1
 203 1350 l 1,9,-1
 249 1363 l 2,10,11
 296 1376 296 1376 345 1376 c 0,12,13
 410 1376 410 1376 461 1352 c 1,14,15
 441 892 441 892 441 541 c 0,16,17
 441 47 441 47 464 0 c 1,0,-1
EndSplineSet
Validated: 1
EndChar

StartChar: J
Encoding: 74 74 45
Width: 996
GlyphClass: 2
Flags: W
HStem: -387 133<252.923 468.534> 1356 20G<629.5 686>
VStem: 97 143<-241.183 -189.784> 551 219<795.192 1304.4> 555 197<-98.1208 1075.14>
LayerCount: 2
Fore
SplineSet
752 121 m 0,0,1
 751 22 751 22 722 -62.5 c 128,-1,2
 693 -147 693 -147 644.5 -206 c 128,-1,3
 596 -265 596 -265 533 -306.5 c 128,-1,4
 470 -348 470 -348 402 -367.5 c 128,-1,5
 334 -387 334 -387 265 -387 c 0,6,7
 187 -387 187 -387 142 -345.5 c 128,-1,8
 97 -304 97 -304 97 -252 c 0,9,10
 97 -214 97 -214 122.5 -189 c 128,-1,11
 148 -164 148 -164 195 -164 c 0,12,13
 216 -164 216 -164 240 -170 c 1,14,15
 251 -254 251 -254 346 -254 c 0,16,17
 462 -254 462 -254 508.5 -162 c 128,-1,18
 555 -70 555 -70 555 127 c 0,19,20
 555 1008 555 1008 551 1090 c 0,21,22
 551 1147 551 1147 546 1188 c 128,-1,23
 541 1229 541 1229 533 1249.5 c 128,-1,24
 525 1270 525 1270 516 1287.5 c 128,-1,25
 507 1305 507 1305 498 1315 c 1,26,-1
 512 1350 l 1,27,-1
 558 1363 l 2,28,29
 605 1376 605 1376 654 1376 c 0,30,31
 718 1376 718 1376 770 1352 c 1,32,33
 750 892 750 892 750 541 c 0,34,35
 750 484 750 484 751 328.5 c 128,-1,36
 752 173 752 173 752 121 c 0,0,1
EndSplineSet
Validated: 1
EndChar

StartChar: K
Encoding: 75 75 46
Width: 1349
GlyphClass: 2
Flags: W
HStem: 0 21G<238 464 872 1205> 0 21G<238 464 872 1205> 1356 20G<320.5 377.5>
VStem: 242 219<0 559.141 797.663 1304.4>
LayerCount: 2
Fore
SplineSet
464 0 m 1,0,-1
 238 0 l 1,1,2
 242 136 242 136 242 1090 c 0,3,4
 242 1147 242 1147 237 1188 c 128,-1,5
 232 1229 232 1229 224 1249.5 c 128,-1,6
 216 1270 216 1270 207 1287.5 c 128,-1,7
 198 1305 198 1305 189 1315 c 1,8,-1
 203 1350 l 1,9,-1
 249 1363 l 2,10,11
 296 1376 296 1376 345 1376 c 0,12,13
 410 1376 410 1376 461 1352 c 1,14,15
 446 1011 446 1011 441 713 c 1,16,-1
 865 1180 l 2,17,18
 910 1226 910 1226 910 1276 c 0,19,20
 910 1295 910 1295 900 1315 c 1,21,-1
 914 1350 l 1,22,23
 970 1372 970 1372 1053 1372 c 0,24,25
 1145 1372 1145 1372 1168 1352 c 1,26,27
 1129 1281 1129 1281 1093.5 1236.5 c 128,-1,28
 1058 1192 1058 1192 950 1081 c 128,-1,29
 842 970 842 970 629 756 c 1,30,31
 667 706 667 706 829.5 487 c 128,-1,32
 992 268 992 268 1093 136 c 128,-1,33
 1194 4 1194 4 1205 0 c 1,34,-1
 920 0 l 1,35,36
 824 153 824 153 699 333.5 c 128,-1,37
 574 514 574 514 488 612 c 1,38,-1
 441 670 l 1,39,-1
 441 541 l 2,40,41
 441 47 441 47 464 0 c 1,0,-1
EndSplineSet
Validated: 1
EndChar

StartChar: L
Encoding: 76 76 47
Width: 1105
GlyphClass: 2
Flags: W
HStem: 0 113<447 852.773> 1356 20G<320.5 377.5>
VStem: 242 199<113 1075.14>
LayerCount: 2
Fore
SplineSet
912 0 m 1,0,-1
 238 0 l 1,1,2
 242 136 242 136 242 1090 c 0,3,4
 242 1147 242 1147 237 1188 c 128,-1,5
 232 1229 232 1229 224 1249.5 c 128,-1,6
 216 1270 216 1270 207 1287.5 c 128,-1,7
 198 1305 198 1305 189 1315 c 1,8,-1
 203 1350 l 1,9,-1
 249 1363 l 2,10,11
 296 1376 296 1376 345 1376 c 0,12,13
 410 1376 410 1376 461 1352 c 1,14,15
 441 892 441 892 441 541 c 0,16,17
 441 225 441 225 447 113 c 1,18,-1
 683 113 l 2,19,20
 771 113 771 113 829.5 143.5 c 128,-1,21
 888 174 888 174 898 221 c 1,22,-1
 937 221 l 1,23,24
 958 196 958 196 950.5 113.5 c 128,-1,25
 943 31 943 31 912 0 c 1,0,-1
EndSplineSet
Validated: 33
EndChar

StartChar: M
Encoding: 77 77 48
Width: 1884
GlyphClass: 2
Flags: W
HStem: 0 21G<220 369 1438 1664> 0 21G<220 369 1438 1664> 1356 20G<336.5 412.5>
VStem: 224 137<1.04102 501.66> 254 121<265.064 1072.83> 1438 226<0 556.79> 1440 209<1.22925 1079>
LayerCount: 2
Fore
SplineSet
980 -43 m 1,0,-1
 894 -25 l 2,1,2
 858 -18 858 -18 830 0.5 c 128,-1,3
 802 19 802 19 785 44 c 128,-1,4
 768 69 768 69 759 89.5 c 128,-1,5
 750 110 750 110 744 131 c 2,6,-1
 406 961 l 2,7,8
 391 1001 391 1001 371 1079 c 1,9,10
 375 1023 375 1023 375 944 c 0,11,12
 362 133 362 133 361 106 c 0,13,14
 361 33 361 33 369 0 c 1,15,-1
 220 0 l 1,16,-1
 224 33 l 1,17,18
 241 345 241 345 254 717.5 c 128,-1,19
 267 1090 267 1090 269 1237 c 1,20,21
 233 1302 233 1302 214 1315 c 1,22,-1
 228 1350 l 1,23,24
 304 1376 304 1376 369 1376 c 0,25,26
 456 1376 456 1376 498 1346 c 1,27,28
 535 1202 535 1202 701 788.5 c 128,-1,29
 867 375 867 375 949 201 c 1,30,-1
 1369 1276 l 2,31,32
 1380 1304 1380 1304 1406 1321.5 c 128,-1,33
 1432 1339 1432 1339 1468 1346.5 c 128,-1,34
 1504 1354 1504 1354 1549 1359.5 c 128,-1,35
 1594 1365 1594 1365 1643 1368 c 1,36,37
 1640 1320 1640 1320 1639.5 1285 c 128,-1,38
 1639 1250 1639 1250 1639 1182 c 128,-1,39
 1639 1114 1639 1114 1637 1032 c 0,40,41
 1630 682 1630 682 1649 121 c 0,42,43
 1653 39 1653 39 1664 0 c 1,44,-1
 1438 0 l 1,45,-1
 1440 123 l 2,46,47
 1444 356 1444 356 1440 606.5 c 128,-1,48
 1436 857 1436 857 1432 956 c 0,49,50
 1432 975 1432 975 1430 1022.5 c 128,-1,51
 1428 1070 1428 1070 1428 1079 c 2,52,-1
 1385 946 l 1,53,-1
 1035 131 l 1,54,-1
 980 -43 l 1,0,-1
EndSplineSet
Validated: 33
EndChar

StartChar: N
Encoding: 78 78 49
Width: 1579
GlyphClass: 2
Flags: W
HStem: 0 21G<239 387 1209.51 1339> 0 21G<239 387 1209.51 1339>
VStem: 239 148<0 476.728> 242 124<167.109 1016.75> 1194 135<311.797 440> 1198 156<864.287 1304.72>
LayerCount: 2
Fore
SplineSet
1194 440 m 1,0,1
 1198 440 1198 440 1198 1094 c 0,2,3
 1198 1253 1198 1253 1145 1315 c 1,4,-1
 1159 1350 l 1,5,6
 1195 1374 1195 1374 1261 1374 c 0,7,8
 1324 1374 1324 1374 1354 1352 c 1,9,10
 1329 827 1329 827 1329 391 c 0,11,12
 1329 160 1329 160 1339 0 c 1,13,-1
 1227 0 l 1,14,-1
 448 891 l 1,15,-1
 410 943 l 2,16,17
 373 995 373 995 364 1018 c 1,18,19
 371 978 371 978 371 928 c 128,-1,20
 371 878 371 878 368.5 777 c 128,-1,21
 366 676 366 676 366 625 c 0,22,23
 366 169 366 169 387 0 c 1,24,-1
 239 0 l 1,25,-1
 239 33 l 2,26,27
 242 299 242 299 242 764 c 2,28,-1
 242 1094 l 2,29,30
 242 1177 242 1177 231 1224.5 c 128,-1,31
 220 1272 220 1272 188 1315 c 1,32,-1
 203 1350 l 1,33,34
 282 1382 282 1382 325 1370 c 1,35,-1
 1132 442 l 2,36,37
 1159 413 1159 413 1184 362 c 2,38,-1
 1208 311 l 1,39,-1
 1201 362 l 2,40,41
 1194 413 1194 413 1194 440 c 1,0,1
EndSplineSet
Validated: 33
EndChar

StartChar: O
Encoding: 79 79 50
Width: 1545
GlyphClass: 2
Flags: W
HStem: -27 123<649.892 932.164> 1245 127<602.635 889.505>
VStem: 175 222<438.754 930.596> 1138 223<429.668 910.16>
LayerCount: 2
Fore
SplineSet
816 1372 m 0,0,1
 680 1372 680 1372 561 1318.5 c 128,-1,2
 442 1265 442 1265 357 1171 c 128,-1,3
 272 1077 272 1077 223.5 942 c 128,-1,4
 175 807 175 807 175 651 c 0,5,6
 175 522 175 522 204.5 410.5 c 128,-1,7
 234 299 234 299 284.5 220 c 128,-1,8
 335 141 335 141 402 84.5 c 128,-1,9
 469 28 469 28 543.5 0.5 c 128,-1,10
 618 -27 618 -27 696 -27 c 0,11,12
 894 -27 894 -27 1045 69.5 c 128,-1,13
 1196 166 1196 166 1276.5 330 c 128,-1,14
 1357 494 1357 494 1361 698 c 0,15,16
 1361 860 1361 860 1318 989.5 c 128,-1,17
 1275 1119 1275 1119 1200 1201.5 c 128,-1,18
 1125 1284 1125 1284 1027 1328 c 128,-1,19
 929 1372 929 1372 816 1372 c 0,0,1
794 96 m 0,20,21
 686 96 686 96 593.5 185 c 128,-1,22
 501 274 501 274 449 416.5 c 128,-1,23
 397 559 397 559 397 717 c 0,24,25
 397 861 397 861 442 982 c 128,-1,26
 487 1103 487 1103 567 1174 c 128,-1,27
 647 1245 647 1245 745 1245 c 0,28,29
 849 1245 849 1245 939.5 1162.5 c 128,-1,30
 1030 1080 1030 1080 1084 937.5 c 128,-1,31
 1138 795 1138 795 1138 629 c 0,32,33
 1138 484 1138 484 1093.5 362 c 128,-1,34
 1049 240 1049 240 969.5 168 c 128,-1,35
 890 96 890 96 794 96 c 0,20,21
EndSplineSet
Validated: 9
EndChar

StartChar: P
Encoding: 80 80 51
Width: 1224
GlyphClass: 2
Flags: W
HStem: 0 21G<240 464> 0 21G<240 464> 512 102<446.459 735.302> 1245 115<451 720.875>
VStem: 240 224<0 509.968> 240 205<2.34277 524 619.682 1241> 863 182<757.68 1096.4>
LayerCount: 2
Fore
SplineSet
464 0 m 1,0,-1
 240 0 l 1,1,-1
 240 33 l 2,2,3
 240 96 240 96 241.5 275.5 c 128,-1,4
 243 455 243 455 242 545 c 0,5,6
 242 605 242 605 243 713 c 128,-1,7
 244 821 244 821 244 880 c 128,-1,8
 244 939 244 939 242 1021.5 c 128,-1,9
 240 1104 240 1104 234.5 1152 c 128,-1,10
 229 1200 229 1200 217 1245.5 c 128,-1,11
 205 1291 205 1291 187 1313 c 1,12,-1
 201 1348 l 1,13,-1
 570 1360 l 1,14,-1
 593 1360 l 2,15,16
 659 1360 659 1360 719 1349 c 128,-1,17
 779 1338 779 1338 840 1308.5 c 128,-1,18
 901 1279 901 1279 945 1233.5 c 128,-1,19
 989 1188 989 1188 1017 1113 c 128,-1,20
 1045 1038 1045 1038 1045 942 c 0,21,22
 1045 819 1045 819 978.5 720 c 128,-1,23
 912 621 912 621 800 566.5 c 128,-1,24
 688 512 688 512 554 512 c 0,25,26
 501 512 501 512 445 524 c 1,27,28
 454 72 454 72 464 0 c 1,0,-1
574 614 m 0,29,30
 696 614 696 614 779.5 692 c 128,-1,31
 863 770 863 770 863 897 c 0,32,33
 863 990 863 990 834.5 1061 c 128,-1,34
 806 1132 806 1132 760.5 1171 c 128,-1,35
 715 1210 715 1210 664 1228.5 c 128,-1,36
 613 1247 613 1247 562 1245 c 2,37,-1
 451 1241 l 1,38,39
 445 1167 445 1167 445 694 c 2,40,-1
 445 633 l 1,41,42
 482 614 482 614 574 614 c 0,29,30
EndSplineSet
Validated: 33
EndChar

StartChar: Q
Encoding: 81 81 52
Width: 1548
GlyphClass: 2
Flags: W
HStem: -387 131<1075.12 1348> -27 123<649.892 819.465> 1245 127<602.635 889.505>
VStem: 175 222<438.754 930.596> 1138 223<430.044 910.16>
LayerCount: 2
Fore
SplineSet
816 1372 m 0,0,1
 680 1372 680 1372 561 1318.5 c 128,-1,2
 442 1265 442 1265 357 1171 c 128,-1,3
 272 1077 272 1077 223.5 942 c 128,-1,4
 175 807 175 807 175 651 c 0,5,6
 175 522 175 522 204.5 410.5 c 128,-1,7
 234 299 234 299 284.5 220 c 128,-1,8
 335 141 335 141 402 84.5 c 128,-1,9
 469 28 469 28 543.5 0.5 c 128,-1,10
 618 -27 618 -27 696 -27 c 0,11,12
 699 -27 699 -27 705 -26 c 128,-1,13
 711 -25 711 -25 714 -25 c 0,14,15
 735 -189 735 -189 849 -288 c 128,-1,16
 963 -387 963 -387 1107 -387 c 0,17,18
 1205 -387 1205 -387 1264 -355 c 128,-1,19
 1323 -323 1323 -323 1375 -252 c 1,20,21
 1359 -256 1359 -256 1337 -256 c 0,22,23
 1231 -256 1231 -256 1135.5 -231.5 c 128,-1,24
 1040 -207 1040 -207 959 -150 c 128,-1,25
 878 -93 878 -93 843 -10 c 1,26,27
 1077 38 1077 38 1216 232.5 c 128,-1,28
 1355 427 1355 427 1361 698 c 0,29,30
 1361 860 1361 860 1318 989.5 c 128,-1,31
 1275 1119 1275 1119 1200 1201.5 c 128,-1,32
 1125 1284 1125 1284 1027 1328 c 128,-1,33
 929 1372 929 1372 816 1372 c 0,0,1
794 96 m 0,34,35
 686 96 686 96 593.5 185 c 128,-1,36
 501 274 501 274 449 416.5 c 128,-1,37
 397 559 397 559 397 717 c 0,38,39
 397 861 397 861 442 982 c 128,-1,40
 487 1103 487 1103 567 1174 c 128,-1,41
 647 1245 647 1245 745 1245 c 0,42,43
 849 1245 849 1245 939.5 1162.5 c 128,-1,44
 1030 1080 1030 1080 1084 937.5 c 128,-1,45
 1138 795 1138 795 1138 629 c 0,46,47
 1138 484 1138 484 1093.5 362 c 128,-1,48
 1049 240 1049 240 969.5 168 c 128,-1,49
 890 96 890 96 794 96 c 0,34,35
EndSplineSet
Validated: 9
EndChar

StartChar: R
Encoding: 82 82 53
Width: 1353
GlyphClass: 2
Flags: W
HStem: 0 21G<240 464 944 1234> 0 21G<240 464 944 1234> 512 102<446.749 592.828> 1245 113<451 720.875>
VStem: 240 224<0 509.968> 240 205<2.34277 524 619.682 1241> 863 182<755.992 1097.25>
LayerCount: 2
Fore
SplineSet
464 0 m 1,0,-1
 240 0 l 1,1,-1
 240 33 l 2,2,3
 240 96 240 96 241.5 275.5 c 128,-1,4
 243 455 243 455 242 545 c 0,5,6
 242 605 242 605 243 713 c 128,-1,7
 244 821 244 821 244 880 c 128,-1,8
 244 939 244 939 242 1021.5 c 128,-1,9
 240 1104 240 1104 234.5 1152 c 128,-1,10
 229 1200 229 1200 217 1245.5 c 128,-1,11
 205 1291 205 1291 187 1313 c 1,12,-1
 201 1348 l 1,13,14
 578 1358 578 1358 593 1358 c 0,15,16
 659 1358 659 1358 719 1347 c 128,-1,17
 779 1336 779 1336 840 1307 c 128,-1,18
 901 1278 901 1278 945 1233 c 128,-1,19
 989 1188 989 1188 1017 1113 c 128,-1,20
 1045 1038 1045 1038 1045 942 c 0,21,22
 1045 808 1045 808 968 703.5 c 128,-1,23
 891 599 891 599 763 551 c 1,24,25
 789 538 789 538 998 279 c 128,-1,26
 1207 20 1207 20 1234 0 c 1,27,-1
 957 0 l 1,28,29
 931 53 931 53 881.5 122.5 c 128,-1,30
 832 192 832 192 777 257 c 128,-1,31
 722 322 722 322 661.5 391 c 128,-1,32
 601 460 601 460 554 512 c 1,33,34
 501 512 501 512 445 524 c 1,35,36
 454 72 454 72 464 0 c 1,0,-1
574 614 m 0,37,38
 696 614 696 614 779.5 692 c 128,-1,39
 863 770 863 770 863 897 c 0,40,41
 863 991 863 991 834.5 1062.5 c 128,-1,42
 806 1134 806 1134 760 1172.5 c 128,-1,43
 714 1211 714 1211 664 1229 c 128,-1,44
 614 1247 614 1247 562 1245 c 2,45,-1
 451 1241 l 1,46,47
 445 1167 445 1167 445 694 c 2,48,-1
 445 633 l 1,49,50
 482 614 482 614 574 614 c 0,37,38
EndSplineSet
Validated: 33
EndChar

StartChar: S
Encoding: 83 83 54
Width: 1157
GlyphClass: 2
Flags: W
HStem: -27 144<332.692 704.763> 1268 110<421.775 706.429>
VStem: 196 22<202 233.54> 202 157<977.17 1188.62> 779 195<186.945 428.608>
LayerCount: 2
Fore
SplineSet
532 -27 m 0,0,1
 399 -27 399 -27 297.5 36.5 c 128,-1,2
 196 100 196 100 196 180 c 0,3,4
 196 212 196 212 218 248 c 1,5,6
 231 202 231 202 329 159.5 c 128,-1,7
 427 117 427 117 523 117 c 0,8,9
 572 117 572 117 614.5 126 c 128,-1,10
 657 135 657 135 695.5 155.5 c 128,-1,11
 734 176 734 176 756.5 214 c 128,-1,12
 779 252 779 252 779 305 c 0,13,14
 779 360 779 360 747 410.5 c 128,-1,15
 715 461 715 461 664.5 500.5 c 128,-1,16
 614 540 614 540 552.5 580 c 128,-1,17
 491 620 491 620 429 663.5 c 128,-1,18
 367 707 367 707 316.5 755.5 c 128,-1,19
 266 804 266 804 234 870 c 128,-1,20
 202 936 202 936 202 1012 c 0,21,22
 202 1080 202 1080 226.5 1144.5 c 128,-1,23
 251 1209 251 1209 297 1261.5 c 128,-1,24
 343 1314 343 1314 417 1346 c 128,-1,25
 491 1378 491 1378 581 1378 c 0,26,27
 658 1378 658 1378 728.5 1360 c 128,-1,28
 799 1342 799 1342 829.5 1326.5 c 128,-1,29
 860 1311 860 1311 902 1286 c 1,30,31
 910 1259 910 1259 911.5 1218 c 128,-1,32
 913 1177 913 1177 902 1132 c 128,-1,33
 891 1087 891 1087 867 1063 c 1,34,-1
 828 1071 l 1,35,36
 806 1139 806 1139 754.5 1186 c 128,-1,37
 703 1233 703 1233 653 1250.5 c 128,-1,38
 603 1268 603 1268 558 1268 c 0,39,40
 481 1268 481 1268 420 1222 c 128,-1,41
 359 1176 359 1176 359 1094 c 0,42,43
 359 1040 359 1040 393 991 c 128,-1,44
 427 942 427 942 481 903 c 128,-1,45
 535 864 535 864 601 824 c 128,-1,46
 667 784 667 784 732.5 739 c 128,-1,47
 798 694 798 694 852 643 c 128,-1,48
 906 592 906 592 940 520 c 128,-1,49
 974 448 974 448 974 365 c 0,50,51
 974 201 974 201 850 87 c 128,-1,52
 726 -27 726 -27 532 -27 c 0,0,1
EndSplineSet
Validated: 33
EndChar

StartChar: T
Encoding: 84 84 55
Width: 1355
GlyphClass: 2
Flags: W
HStem: 1126 234<153.27 207.261 1134.44 1154.85 1161.85 1189.27> 1235 113<230.385 462.85 558.85 564.334 939.85 1111.31>
VStem: 134.35 52.5<1126.41 1176.17> 567.85 208.5<0 90 314 314 553.941 611 1079 1235>
LayerCount: 2
Fore
SplineSet
878.849609375 1348 m 1,0,-1
 462.849609375 1348 l 1,1,-1
 180.849609375 1360 l 1,2,3
 150.849609375 1327 150.849609375 1327 140.349609375 1273 c 128,-1,4
 129.849609375 1219 129.849609375 1219 134.349609375 1179 c 128,-1,5
 138.849609375 1139 138.849609375 1139 147.849609375 1126 c 1,6,-1
 186.849609375 1126 l 1,7,8
 192.849609375 1173 192.849609375 1173 252.349609375 1204 c 128,-1,9
 311.849609375 1235 311.849609375 1235 401.849609375 1235 c 2,10,-1
 558.849609375 1235 l 1,11,12
 567.849609375 1187 567.849609375 1187 567.849609375 1079 c 2,13,-1
 568.849609375 756 l 2,14,15
 570.849609375 432 570.849609375 432 567.849609375 33 c 2,16,-1
 567.849609375 0 l 1,17,-1
 790.849609375 0 l 1,18,19
 778.849609375 75 778.849609375 75 778.849609375 90 c 0,20,21
 776.849609375 170 776.849609375 170 776.349609375 314 c 128,-1,22
 775.849609375 458 775.849609375 458 776.849609375 611 c 128,-1,23
 777.849609375 764 777.849609375 764 779.349609375 901.5 c 128,-1,24
 780.849609375 1039 780.849609375 1039 781.849609375 1136 c 128,-1,25
 782.849609375 1233 782.849609375 1233 782.849609375 1235 c 2,26,-1
 939.849609375 1235 l 2,27,28
 1029.84960938 1235 1029.84960938 1235 1089.34960938 1204 c 128,-1,29
 1148.84960938 1173 1148.84960938 1173 1154.84960938 1126 c 1,30,-1
 1193.84960938 1126 l 1,31,32
 1202.84960938 1139 1202.84960938 1139 1207.34960938 1179 c 128,-1,33
 1211.84960938 1219 1211.84960938 1219 1201.84960938 1273 c 128,-1,34
 1191.84960938 1327 1191.84960938 1327 1161.84960938 1360 c 1,35,-1
 878.849609375 1348 l 1,0,-1
EndSplineSet
Validated: 524329
EndChar

StartChar: U
Encoding: 85 85 56
Width: 1482
GlyphClass: 2
Flags: W
HStem: -29 138<566.252 937.123> 1356 20G<300.5 357>
VStem: 232 199<249.557 1286.4> 1113 156<861.88 1304.72>
LayerCount: 2
Fore
SplineSet
1248 444 m 0,0,1
 1248 239 1248 239 1108.5 105 c 128,-1,2
 969 -29 969 -29 726 -29 c 0,3,4
 637 -29 637 -29 567 -16.5 c 128,-1,5
 497 -4 497 -4 434.5 27.5 c 128,-1,6
 372 59 372 59 329.5 110.5 c 128,-1,7
 287 162 287 162 261 242 c 128,-1,8
 235 322 235 322 232 428 c 0,9,10
 222 818 222 818 222 1090 c 0,11,12
 222 1147 222 1147 217 1188.5 c 128,-1,13
 212 1230 212 1230 204 1250 c 128,-1,14
 196 1270 196 1270 186.5 1287.5 c 128,-1,15
 177 1305 177 1305 169 1315 c 1,16,-1
 183 1350 l 1,17,-1
 229 1363 l 2,18,19
 276 1376 276 1376 325 1376 c 0,20,21
 389 1376 389 1376 441 1352 c 1,22,23
 431 1098 431 1098 431 455 c 0,24,25
 431 369 431 369 452.5 304 c 128,-1,26
 474 239 474 239 506 203 c 128,-1,27
 538 167 538 167 582.5 144.5 c 128,-1,28
 627 122 627 122 665 115.5 c 128,-1,29
 703 109 703 109 744 109 c 0,30,31
 894 109 894 109 995.5 188.5 c 128,-1,32
 1097 268 1097 268 1105 383 c 1,33,34
 1113 383 1113 383 1113 1094 c 0,35,36
 1113 1253 1113 1253 1060 1315 c 1,37,-1
 1074 1350 l 1,38,39
 1110 1374 1110 1374 1177 1374 c 0,40,41
 1239 1374 1239 1374 1269 1352 c 1,42,43
 1248 911 1248 911 1248 444 c 0,0,1
EndSplineSet
Validated: 1
EndChar

StartChar: V
Encoding: 86 86 57
Width: 1501
GlyphClass: 2
Flags: W
LayerCount: 2
Fore
SplineSet
823 -43 m 1,0,-1
 878 131 l 1,1,-1
 1276 1075 l 2,2,3
 1343 1241 1343 1241 1350 1348 c 1,4,5
 1309 1376 1309 1376 1243 1376 c 0,6,7
 1175 1376 1175 1376 1118 1350 c 1,8,-1
 1104 1315 l 1,9,10
 1147 1268 1147 1268 1147 1200 c 0,11,12
 1147 1142 1147 1142 1116 1065 c 2,13,-1
 838 352 l 2,14,15
 821 310 821 310 806 256 c 2,16,-1
 792 201 l 1,17,18
 724 354 724 354 578 771 c 128,-1,19
 432 1188 432 1188 399 1339 c 1,20,21
 363 1376 363 1376 276 1376 c 0,22,23
 197 1376 197 1376 135 1348 c 1,24,-1
 121 1313 l 1,25,26
 130 1310 130 1310 147.5 1289.5 c 128,-1,27
 165 1269 165 1269 200.5 1197 c 128,-1,28
 236 1125 236 1125 270 1018 c 1,29,-1
 588 131 l 1,30,31
 601 81 601 81 636 35 c 128,-1,32
 671 -11 671 -11 737 -25 c 2,33,-1
 823 -43 l 1,0,-1
EndSplineSet
Validated: 9
EndChar

StartChar: W
Encoding: 87 87 58
Width: 2115
GlyphClass: 2
Flags: W
LayerCount: 2
Fore
SplineSet
1474 -43 m 1,0,-1
 1530 131 l 1,1,-1
 1890 1075 l 2,2,3
 1953 1237 1953 1237 1964 1348 c 1,4,5
 1919 1368 1919 1368 1845 1368 c 0,6,7
 1773 1368 1773 1368 1732 1348 c 1,8,-1
 1718 1313 l 1,9,10
 1761 1267 1761 1267 1761 1198 c 0,11,12
 1761 1138 1761 1138 1730 1065 c 1,13,-1
 1489 352 l 2,14,15
 1472 310 1472 310 1459 256 c 2,16,-1
 1446 201 l 1,17,18
 1385 337 1385 337 1254.5 754.5 c 128,-1,19
 1124 1172 1124 1172 1087 1339 c 1,20,21
 1051 1376 1051 1376 962 1376 c 0,22,23
 879 1376 879 1376 817 1348 c 1,24,-1
 803 1313 l 1,25,26
 812 1310 812 1310 829.5 1289.5 c 128,-1,27
 847 1269 847 1269 882.5 1197 c 128,-1,28
 918 1125 918 1125 952 1018 c 2,29,-1
 991 897 l 1,30,-1
 807 352 l 2,31,32
 790 310 790 310 777 256 c 2,33,-1
 764 201 l 1,34,35
 703 337 703 337 572.5 754.5 c 128,-1,36
 442 1172 442 1172 405 1339 c 1,37,38
 369 1376 369 1376 280 1376 c 0,39,40
 197 1376 197 1376 135 1348 c 1,41,-1
 121 1313 l 1,42,43
 130 1310 130 1310 147.5 1289.5 c 128,-1,44
 165 1269 165 1269 200.5 1197 c 128,-1,45
 236 1125 236 1125 270 1018 c 2,46,-1
 557 131 l 2,47,48
 570 81 570 81 605 35 c 128,-1,49
 640 -11 640 -11 706 -25 c 2,50,-1
 792 -43 l 1,51,-1
 848 131 l 1,52,-1
 1057 692 l 1,53,-1
 1239 131 l 2,54,55
 1252 81 1252 81 1287 35 c 128,-1,56
 1322 -11 1322 -11 1388 -25 c 2,57,-1
 1474 -43 l 1,0,-1
EndSplineSet
Validated: 9
EndChar

StartChar: X
Encoding: 88 88 59
Width: 1357
GlyphClass: 2
Flags: W
HStem: 0 21G<156 344.842 929.236 1213> 0 21G<156 344.842 929.236 1213> 1356 20G<302 385 1017.5 1087>
LayerCount: 2
Fore
SplineSet
227 100 m 1,0,-1
 582 659 l 1,1,-1
 387 1020 l 2,2,3
 331 1127 331 1127 298 1185.5 c 128,-1,4
 265 1244 265 1244 243.5 1269 c 128,-1,5
 222 1294 222 1294 186 1313 c 1,6,-1
 201 1348 l 1,7,8
 262 1376 262 1376 342 1376 c 0,9,10
 428 1376 428 1376 465 1339 c 1,11,12
 497 1270 497 1270 513.5 1230.5 c 128,-1,13
 530 1191 530 1191 581 1094.5 c 128,-1,14
 632 998 632 998 727 829 c 1,15,-1
 770 907 l 1,16,-1
 877 1081 l 2,17,18
 890 1105 890 1105 905 1128.5 c 128,-1,19
 920 1152 920 1152 932 1184 c 128,-1,20
 944 1216 944 1216 944 1241 c 0,21,22
 944 1287 944 1287 922 1313 c 1,23,-1
 936 1348 l 1,24,25
 984 1376 984 1376 1051 1376 c 0,26,27
 1123 1376 1123 1376 1167 1348 c 1,28,29
 1149 1245 1149 1245 1030 1067 c 2,30,-1
 791 713 l 1,31,-1
 1116 121 l 2,32,33
 1133 90 1133 90 1157.5 59.5 c 128,-1,34
 1182 29 1182 29 1197 14 c 2,35,-1
 1213 0 l 1,36,-1
 940 0 l 1,37,-1
 651 537 l 1,38,-1
 592 434 l 1,39,-1
 383 111 l 2,40,41
 364 75 364 75 351 38 c 2,42,-1
 338 0 l 1,43,-1
 156 0 l 1,44,-1
 227 100 l 1,0,-1
EndSplineSet
Validated: 1
EndChar

StartChar: Y
Encoding: 89 89 60
Width: 1284
GlyphClass: 2
Flags: W
HStem: 0 21G<560 783> 0 21G<560 783> 1356 20G<235 320.5 1004 1056>
VStem: 560 223<0 344.562> 560 206<3.56201 662>
LayerCount: 2
Fore
SplineSet
783 0 m 1,0,-1
 560 0 l 1,1,-1
 560 33 l 2,2,3
 560 117 560 117 561 233 c 128,-1,4
 562 349 562 349 562 383 c 0,5,6
 562 582 562 582 560 616 c 1,7,8
 545 631 545 631 517 680 c 2,9,-1
 320 1024 l 2,10,11
 293 1071 293 1071 262 1129 c 128,-1,12
 231 1187 231 1187 219 1208.5 c 128,-1,13
 207 1230 207 1230 189 1256.5 c 128,-1,14
 171 1283 171 1283 156 1293.5 c 128,-1,15
 141 1304 141 1304 119 1313 c 1,16,-1
 134 1348 l 1,17,18
 193 1376 193 1376 277 1376 c 0,19,20
 364 1376 364 1376 398 1339 c 1,21,22
 444 1226 444 1226 542 1036 c 128,-1,23
 640 846 640 846 695 758 c 1,24,-1
 705 784 l 2,25,26
 716 810 716 810 730 834 c 2,27,-1
 900 1135 l 2,28,29
 952 1231 952 1231 902 1313 c 1,30,-1
 916 1348 l 1,31,32
 977 1376 977 1376 1031 1376 c 0,33,34
 1081 1376 1081 1376 1139 1348 c 1,35,36
 1139 1312 1139 1312 1099 1219 c 128,-1,37
 1059 1126 1059 1126 1020 1067 c 2,38,-1
 768 662 l 1,39,40
 768 626 768 626 767 520 c 128,-1,41
 766 414 766 414 766 352 c 0,42,43
 766 113 766 113 783 0 c 1,0,-1
EndSplineSet
Validated: 33
EndChar

StartChar: Z
Encoding: 90 90 61
Width: 1428
GlyphClass: 2
Flags: W
HStem: 0 133<458 1145.46> 1231 121<321.494 955>
VStem: 225.5 51.5<1122.41 1171> 1189 51.5<193.004 241.587>
LayerCount: 2
Fore
SplineSet
167 0 m 1,0,-1
 161 41 l 1,1,-1
 214 104 l 1,2,-1
 894 1161 l 1,3,-1
 955 1231 l 1,4,-1
 761 1231 l 1,5,-1
 492 1231 l 2,6,7
 403 1231 403 1231 343.5 1200 c 128,-1,8
 284 1169 284 1169 277 1122 c 1,9,-1
 239 1122 l 1,10,11
 230 1135 230 1135 225.5 1177 c 128,-1,12
 221 1219 221 1219 231 1275 c 128,-1,13
 241 1331 241 1331 271 1364 c 1,14,-1
 554 1352 l 1,15,-1
 1232 1352 l 1,16,-1
 1238 1309 l 1,17,-1
 1216 1282 l 2,18,19
 1194 1256 1194 1256 1187 1243 c 2,20,-1
 515 199 l 1,21,-1
 458 133 l 1,22,-1
 693 133 l 1,23,-1
 974 133 l 2,24,25
 1064 133 1064 133 1123.5 164 c 128,-1,26
 1183 195 1183 195 1189 242 c 1,27,-1
 1228 242 l 1,28,29
 1236 229 1236 229 1240.5 187 c 128,-1,30
 1245 145 1245 145 1235 89 c 128,-1,31
 1225 33 1225 33 1195 0 c 1,32,-1
 912 0 l 1,33,-1
 167 0 l 1,0,-1
EndSplineSet
Validated: 33
EndChar

StartChar: bracketleft
Encoding: 91 91 62
Width: 748
GlyphClass: 2
Flags: W
HStem: -141 98<396 586> 1384 99<396 586>
VStem: 248 338<-141 -43 1384 1483> 248 148<-43 1384>
LayerCount: 2
Fore
SplineSet
586 1483 m 1,0,-1
 586 1384 l 1,1,-1
 396 1384 l 1,2,-1
 396 -43 l 1,3,-1
 586 -43 l 1,4,-1
 586 -141 l 1,5,-1
 248 -141 l 1,6,-1
 248 1483 l 1,7,-1
 586 1483 l 1,0,-1
EndSplineSet
Validated: 1
EndChar

StartChar: backslash
Encoding: 92 92 63
Width: 1056
GlyphClass: 2
Flags: W
VStem: 174 185<1176.38 1367.74> 748 161<-500 -387.7>
LayerCount: 2
Fore
SplineSet
748 -500 m 1,0,-1
 909 -500 l 1,1,2
 663 227 663 227 511 742 c 128,-1,3
 359 1257 359 1257 359 1341 c 1,4,5
 350 1355 350 1355 303.5 1373 c 128,-1,6
 257 1391 257 1391 217 1391 c 0,7,8
 174 1391 174 1391 174 1337 c 0,9,10
 174 1313 174 1313 183 1280.5 c 128,-1,11
 192 1248 192 1248 205.5 1211.5 c 128,-1,12
 219 1175 219 1175 221 1169 c 0,13,14
 311 898 311 898 510 280 c 128,-1,15
 709 -338 709 -338 748 -500 c 1,0,-1
EndSplineSet
Validated: 9
EndChar

StartChar: bracketright
Encoding: 93 93 64
Width: 733
GlyphClass: 2
Flags: W
HStem: -319 118<167 358> 1380 119<167 358>
VStem: 167 318<-319 -201 1380 1499> 358 127<-201 1380>
LayerCount: 2
Fore
SplineSet
485 1499 m 1,0,-1
 485 -319 l 1,1,-1
 167 -319 l 1,2,-1
 167 -201 l 1,3,-1
 358 -201 l 1,4,-1
 358 1380 l 1,5,-1
 167 1380 l 1,6,-1
 167 1499 l 1,7,-1
 485 1499 l 1,0,-1
EndSplineSet
Validated: 1
EndChar

StartChar: asciicircum
Encoding: 94 94 65
Width: 1344
GlyphClass: 2
Flags: W
LayerCount: 2
Fore
SplineSet
1162 655 m 1,0,-1
 1019 655 l 1,1,-1
 671 1284 l 1,2,-1
 323 655 l 1,3,-1
 179 655 l 1,4,-1
 614 1450 l 1,5,-1
 728 1450 l 1,6,-1
 1162 655 l 1,0,-1
EndSplineSet
Validated: 1
EndChar

StartChar: underscore
Encoding: 95 95 66
Width: 1469
GlyphClass: 2
Flags: W
HStem: -276 122<241 1163>
LayerCount: 2
Fore
SplineSet
1224 -154 m 1,0,-1
 1163 -276 l 1,1,-1
 241 -276 l 1,2,-1
 241 -154 l 1,3,-1
 1224 -154 l 1,0,-1
EndSplineSet
Validated: 1
EndChar

StartChar: quoteleft
Encoding: 8216 8216 67
Width: 710
GlyphClass: 2
Flags: W
HStem: 1055 487
VStem: 217 162<1183.12 1326.58>
LayerCount: 2
Fore
SplineSet
477 1542 m 1,0,-1
 514 1493 l 1,1,2
 379 1364 379 1364 379 1268 c 0,3,4
 379 1216 379 1216 395 1197 c 128,-1,5
 411 1178 411 1178 438 1178 c 1,6,7
 444 1129 444 1129 411.5 1092 c 128,-1,8
 379 1055 379 1055 334 1055 c 0,9,10
 276 1055 276 1055 246.5 1089.5 c 128,-1,11
 217 1124 217 1124 217 1186 c 0,12,13
 217 1266 217 1266 285.5 1364.5 c 128,-1,14
 354 1463 354 1463 477 1542 c 1,0,-1
EndSplineSet
Validated: 33
EndChar

StartChar: a
Encoding: 97 97 68
Width: 1340
GlyphClass: 2
Flags: W
HStem: 0 21G<155 299.5 976 1206> 0 21G<155 299.5 976 1206> 371 90<469 819>
LayerCount: 2
Fore
SplineSet
790 1116 m 1,0,1
 801 1069 801 1069 833 977 c 2,2,-1
 1144 131 l 2,3,4
 1168 56 1168 56 1206 0 c 1,5,-1
 981 0 l 1,6,7
 971 48 971 48 968 55 c 2,8,-1
 852 371 l 1,9,-1
 438 371 l 1,10,-1
 305 20 l 2,11,12
 303 16 303 16 301.5 9 c 128,-1,13
 300 2 300 2 299 0 c 2,14,-1
 155 0 l 1,15,-1
 557 977 l 2,16,17
 570 1015 570 1015 591.5 1041 c 128,-1,18
 613 1067 613 1067 642 1080 c 128,-1,19
 671 1093 671 1093 693.5 1099 c 128,-1,20
 716 1105 716 1105 748 1109.5 c 128,-1,21
 780 1114 780 1114 790 1116 c 1,0,1
819 461 m 1,22,-1
 647 922 l 1,23,-1
 469 461 l 1,24,-1
 819 461 l 1,22,-1
EndSplineSet
Validated: 1
EndChar

StartChar: b
Encoding: 98 98 69
Width: 1128
GlyphClass: 2
Flags: W
HStem: 0 90<432 713.472> 555 88<430 641.402> 989 103<438 660.715>
VStem: 239 193<90 555 643 988.806> 717 161<727.931 934.133> 786 170<169.136 446.549>
LayerCount: 2
Fore
SplineSet
237 0 m 1,0,-1
 239 111 l 1,1,-1
 239 868 l 2,2,3
 239 928 239 928 230.5 969 c 128,-1,4
 222 1010 222 1010 214.5 1023 c 128,-1,5
 207 1036 207 1036 192 1057 c 1,6,-1
 205 1083 l 1,7,-1
 530 1092 l 2,8,9
 614 1095 614 1095 682.5 1074.5 c 128,-1,10
 751 1054 751 1054 792.5 1018.5 c 128,-1,11
 834 983 834 983 856 940 c 128,-1,12
 878 897 878 897 878 852 c 0,13,14
 878 718 878 718 700 623 c 1,15,16
 812 592 812 592 884 520 c 128,-1,17
 956 448 956 448 956 332 c 0,18,19
 956 180 956 180 839.5 90 c 128,-1,20
 723 0 723 0 530 0 c 2,21,-1
 237 0 l 1,0,-1
504 553 m 2,22,-1
 428 555 l 1,23,24
 425 250 425 250 432 90 c 1,25,-1
 544 90 l 2,26,27
 669 90 669 90 727.5 145 c 128,-1,28
 786 200 786 200 786 283 c 0,29,30
 786 416 786 416 709.5 482 c 128,-1,31
 633 548 633 548 504 553 c 2,22,-1
524 643 m 2,32,33
 592 643 592 643 643 633 c 1,34,35
 717 703 717 703 717 807 c 0,36,37
 717 895 717 895 663.5 943 c 128,-1,38
 610 991 610 991 524 989 c 2,39,-1
 438 989 l 1,40,41
 438 889 438 889 436 819 c 0,42,43
 435 799 435 799 433.5 764.5 c 128,-1,44
 432 730 432 730 431 700.5 c 128,-1,45
 430 671 430 671 430 643 c 1,46,-1
 524 643 l 2,32,33
EndSplineSet
Validated: 33
EndChar

StartChar: c
Encoding: 99 99 70
Width: 1257
GlyphClass: 2
Flags: W
HStem: -27 123<588.039 920.925> 993 111<546.126 864.274>
VStem: 171 206<339.621 763.554> 943 139<865.149 917.287>
LayerCount: 2
Fore
SplineSet
1078 250 m 1,0,1
 1086 237 1086 237 1086 215 c 0,2,3
 1086 110 1086 110 969 41.5 c 128,-1,4
 852 -27 852 -27 683 -27 c 0,5,6
 561 -27 561 -27 463 15 c 128,-1,7
 365 57 365 57 302 130.5 c 128,-1,8
 239 204 239 204 205 302.5 c 128,-1,9
 171 401 171 401 171 516 c 0,10,11
 171 685 171 685 241 818.5 c 128,-1,12
 311 952 311 952 440.5 1028 c 128,-1,13
 570 1104 570 1104 736 1104 c 0,14,15
 850 1104 850 1104 950.5 1064 c 128,-1,16
 1051 1024 1051 1024 1082 969 c 1,17,18
 1082 938 1082 938 1047 880.5 c 128,-1,19
 1012 823 1012 823 969 807 c 1,20,-1
 943 827 l 1,21,22
 943 845 943 845 929.5 871.5 c 128,-1,23
 916 898 916 898 890.5 926 c 128,-1,24
 865 954 865 954 818.5 973.5 c 128,-1,25
 772 993 772 993 715 993 c 0,26,27
 631 993 631 993 565 959.5 c 128,-1,28
 499 926 499 926 459 869 c 128,-1,29
 419 812 419 812 398 740 c 128,-1,30
 377 668 377 668 377 586 c 0,31,32
 377 455 377 455 419 346 c 128,-1,33
 461 237 461 237 550.5 166.5 c 128,-1,34
 640 96 640 96 763 96 c 0,35,36
 851 96 851 96 942.5 135.5 c 128,-1,37
 1034 175 1034 175 1078 250 c 1,0,1
EndSplineSet
Validated: 1
EndChar

StartChar: d
Encoding: 100 100 71
Width: 1325
GlyphClass: 2
Flags: W
HStem: 0 98<433 774.781> 989 103<438 716.565>
VStem: 239 194<98 985> 943 205<334.5 735.523>
LayerCount: 2
Fore
SplineSet
612 0 m 2,0,-1
 237 0 l 1,1,2
 239 29 239 29 239 78 c 2,3,-1
 239 111 l 1,4,-1
 239 856 l 2,5,6
 239 1004 239 1004 192 1057 c 1,7,-1
 204 1083 l 1,8,-1
 605 1092 l 2,9,10
 711 1094 711 1094 807 1062.5 c 128,-1,11
 903 1031 903 1031 980 968.5 c 128,-1,12
 1057 906 1057 906 1102.5 805 c 128,-1,13
 1148 704 1148 704 1148 578 c 0,14,15
 1148 417 1148 417 1082.5 286 c 128,-1,16
 1017 155 1017 155 894 77.5 c 128,-1,17
 771 0 771 0 612 0 c 2,0,-1
634 98 m 2,18,19
 756 98 756 98 848 208 c 128,-1,20
 940 318 940 318 943 494 c 0,21,22
 945 635 945 635 892.5 750 c 128,-1,23
 840 865 840 865 744 929 c 128,-1,24
 648 993 648 993 530 989 c 2,25,-1
 438 985 l 1,26,27
 438 978 438 978 432.5 755 c 128,-1,28
 427 532 427 532 427 406 c 0,29,30
 427 233 427 233 433 98 c 1,31,-1
 634 98 l 2,18,19
EndSplineSet
Validated: 33
EndChar

StartChar: e
Encoding: 101 101 72
Width: 1008
GlyphClass: 2
Flags: W
HStem: 0 115<427.775 811.497> 489 113<425 746.808> 989 94<438 724.013>
VStem: 239 186<115.249 489 602 988.734>
LayerCount: 2
Fore
SplineSet
239 874 m 2,0,1
 239 920 239 920 234.5 953.5 c 128,-1,2
 230 987 230 987 223 1003.5 c 128,-1,3
 216 1020 216 1020 208 1034.5 c 128,-1,4
 200 1049 200 1049 192 1057 c 1,5,-1
 204 1083 l 1,6,-1
 470 1083 l 1,7,-1
 773 1090 l 1,8,9
 793 1071 793 1071 802 1026.5 c 128,-1,10
 811 982 811 982 808.5 943 c 128,-1,11
 806 904 806 904 796 895 c 1,12,-1
 763 895 l 1,13,14
 754 932 754 932 702 957 c 128,-1,15
 650 982 650 982 577 985 c 2,16,-1
 438 989 l 1,17,18
 425 776 425 776 425 602 c 1,19,-1
 692 602 l 2,20,21
 716 602 716 602 732.5 608 c 128,-1,22
 749 614 749 614 753 620 c 2,23,-1
 757 625 l 1,24,-1
 759 611 l 2,25,26
 761 597 761 597 761 586 c 0,27,28
 761 554 761 554 746 532.5 c 128,-1,29
 731 511 731 511 703 502.5 c 128,-1,30
 675 494 675 494 653 491.5 c 128,-1,31
 631 489 631 489 601 489 c 2,32,-1
 425 489 l 1,33,34
 422 303 422 303 429 125 c 0,35,36
 429 123 429 123 433 115 c 1,37,-1
 757 115 l 2,38,39
 781 115 781 115 797.5 120.5 c 128,-1,40
 814 126 814 126 818 132 c 2,41,-1
 823 137 l 2,42,43
 827 137 827 137 827 98 c 0,44,45
 827 66 827 66 811.5 44.5 c 128,-1,46
 796 23 796 23 768.5 14 c 128,-1,47
 741 5 741 5 719 2.5 c 128,-1,48
 697 0 697 0 667 0 c 2,49,-1
 237 0 l 1,50,-1
 239 111 l 1,51,-1
 239 874 l 2,0,1
EndSplineSet
Validated: 33
EndChar

StartChar: f
Encoding: 102 102 73
Width: 978
GlyphClass: 2
Flags: W
HStem: 0 21G<237 444> 0 21G<237 444> 489 113<425 746.808> 989 94<438 726.013>
VStem: 239 186<1.41187 489 602 988.734>
LayerCount: 2
Fore
SplineSet
444 0 m 1,0,-1
 237 0 l 1,1,-1
 239 111 l 1,2,-1
 239 874 l 2,3,4
 239 920 239 920 234.5 953.5 c 128,-1,5
 230 987 230 987 223 1003.5 c 128,-1,6
 216 1020 216 1020 208 1034.5 c 128,-1,7
 200 1049 200 1049 192 1057 c 1,8,-1
 204 1083 l 1,9,-1
 472 1083 l 1,10,-1
 776 1090 l 1,11,12
 795 1071 795 1071 803.5 1026.5 c 128,-1,13
 812 982 812 982 809.5 943 c 128,-1,14
 807 904 807 904 798 895 c 1,15,-1
 765 895 l 1,16,17
 756 932 756 932 704 957 c 128,-1,18
 652 982 652 982 579 985 c 2,19,-1
 438 989 l 1,20,21
 425 722 425 722 425 602 c 1,22,-1
 692 602 l 2,23,24
 716 602 716 602 732.5 608 c 128,-1,25
 749 614 749 614 753 620 c 2,26,-1
 757 625 l 1,27,-1
 759 611 l 2,28,29
 761 597 761 597 761 586 c 0,30,31
 761 554 761 554 746 532.5 c 128,-1,32
 731 511 731 511 703 502.5 c 128,-1,33
 675 494 675 494 653 491.5 c 128,-1,34
 631 489 631 489 601 489 c 2,35,-1
 425 489 l 1,36,37
 422 294 422 294 429 113 c 0,38,39
 429 45 429 45 444 0 c 1,0,-1
EndSplineSet
Validated: 33
EndChar

StartChar: g
Encoding: 103 103 74
Width: 1305
GlyphClass: 2
Flags: W
HStem: -27 115<601.446 916.996> 993 111<549.082 865.3>
VStem: 171 209<344.86 763.05> 920 178<113 413.748> 943 141<865.149 918.155>
LayerCount: 2
Fore
SplineSet
736 1104 m 2,0,-1
 738 1104 l 2,1,2
 852 1104 852 1104 952.5 1064 c 128,-1,3
 1053 1024 1053 1024 1084 969 c 1,4,5
 1084 938 1084 938 1049 880.5 c 128,-1,6
 1014 823 1014 823 971 807 c 1,7,-1
 943 827 l 1,8,9
 943 845 943 845 930 871.5 c 128,-1,10
 917 898 917 898 891.5 926 c 128,-1,11
 866 954 866 954 819 973.5 c 128,-1,12
 772 993 772 993 715 993 c 0,13,14
 573 993 573 993 478.5 891.5 c 128,-1,15
 384 790 384 790 380 600 c 0,16,17
 380 476 380 476 413.5 375.5 c 128,-1,18
 447 275 447 275 502 214 c 128,-1,19
 557 153 557 153 623 120.5 c 128,-1,20
 689 88 689 88 758 88 c 0,21,22
 794 88 794 88 857 100 c 2,23,-1
 920 113 l 1,24,-1
 920 233 l 2,25,26
 920 279 920 279 915.5 312 c 128,-1,27
 911 345 911 345 904.5 361 c 128,-1,28
 898 377 898 377 890 391.5 c 128,-1,29
 882 406 882 406 875 414 c 1,30,-1
 887 440 l 1,31,-1
 927 452 l 2,32,33
 967 463 967 463 1008 463 c 0,34,35
 1062 463 1062 463 1111 442 c 1,36,37
 1099 253 1099 253 1098 184 c 2,38,-1
 1100 29 l 1,39,-1
 1049 20 l 2,40,41
 794 -27 794 -27 658 -27 c 0,42,43
 563 -27 563 -27 475.5 10.5 c 128,-1,44
 388 48 388 48 320 116 c 128,-1,45
 252 184 252 184 211.5 288 c 128,-1,46
 171 392 171 392 171 516 c 0,47,48
 171 685 171 685 241 818.5 c 128,-1,49
 311 952 311 952 440.5 1028 c 128,-1,50
 570 1104 570 1104 736 1104 c 2,0,-1
EndSplineSet
Validated: 1
EndChar

StartChar: h
Encoding: 104 104 75
Width: 1430
GlyphClass: 2
Flags: W
HStem: 0 21G<236 443 1009 1213> 0 21G<236 443 1009 1213> 502 96<425 1008> 1086 20G<313 364.5 1081 1132> 1086 20G<313 364.5 1081 1132>
VStem: 240 201<0 500.906 602.764 1054.91> 1006 189<1.18213 502 598 962.091> 1010 201<0 419.682 600.495 1054.91>
LayerCount: 2
Fore
SplineSet
1195 432 m 0,0,1
 1195 35 1195 35 1213 0 c 1,2,-1
 1012 0 l 1,3,4
 1006 29 1006 29 1006 94 c 0,5,6
 1006 96 1006 96 1006.5 158.5 c 128,-1,7
 1007 221 1007 221 1007.5 318 c 128,-1,8
 1008 415 1008 415 1008 502 c 1,9,-1
 425 502 l 1,10,-1
 425 432 l 2,11,12
 425 39 425 39 443 0 c 1,13,-1
 236 0 l 1,14,15
 240 106 240 106 240 877 c 0,16,17
 240 923 240 923 235.5 955.5 c 128,-1,18
 231 988 231 988 224.5 1004.5 c 128,-1,19
 218 1021 218 1021 209.5 1035 c 128,-1,20
 201 1049 201 1049 193 1057 c 1,21,-1
 205 1083 l 1,22,-1
 249 1094 l 2,23,24
 292 1106 292 1106 334 1106 c 0,25,26
 395 1106 395 1106 441 1085 c 1,27,28
 427 749 427 749 425 598 c 1,29,-1
 1008 598 l 1,30,31
 1010 719 1010 719 1010 877 c 0,32,33
 1010 923 1010 923 1005.5 955.5 c 128,-1,34
 1001 988 1001 988 994.5 1004.5 c 128,-1,35
 988 1021 988 1021 979.5 1035 c 128,-1,36
 971 1049 971 1049 963 1057 c 1,37,-1
 975 1083 l 1,38,-1
 1017 1094 l 2,39,40
 1060 1106 1060 1106 1102 1106 c 0,41,42
 1162 1106 1162 1106 1211 1085 c 1,43,44
 1195 721 1195 721 1195 432 c 0,0,1
EndSplineSet
Validated: 1
EndChar

StartChar: i
Encoding: 105 105 76
Width: 660
GlyphClass: 2
Flags: W
HStem: 0 21G<236 443> 0 21G<236 443> 1088 20G<313 364.5>
VStem: 240 201<0 419.805 553.577 1056.91>
LayerCount: 2
Fore
SplineSet
443 0 m 1,0,-1
 236 0 l 1,1,2
 240 106 240 106 240 879 c 0,3,4
 240 925 240 925 235.5 957.5 c 128,-1,5
 231 990 231 990 224 1006.5 c 128,-1,6
 217 1023 217 1023 209 1037 c 128,-1,7
 201 1051 201 1051 193 1059 c 1,8,-1
 205 1085 l 1,9,-1
 249 1096 l 2,10,11
 292 1108 292 1108 334 1108 c 0,12,13
 395 1108 395 1108 441 1087 c 1,14,15
 424 696 424 696 424 432 c 0,16,17
 424 39 424 39 443 0 c 1,0,-1
EndSplineSet
Validated: 1
EndChar

StartChar: j
Encoding: 106 106 77
Width: 905
GlyphClass: 2
Flags: W
HStem: -309 119<227.52 436.214> 1088 20G<561.5 613>
VStem: 490 203<547.282 1058.44> 494 182<-90.7441 876.78>
LayerCount: 2
Fore
SplineSet
676 96 m 0,0,1
 675 -2 675 -2 636 -81.5 c 128,-1,2
 597 -161 597 -161 534 -209 c 128,-1,3
 471 -257 471 -257 397 -283 c 128,-1,4
 323 -309 323 -309 248 -309 c 0,5,6
 181 -309 181 -309 139 -275.5 c 128,-1,7
 97 -242 97 -242 97 -201 c 0,8,9
 97 -170 97 -170 120 -144.5 c 128,-1,10
 143 -119 143 -119 183 -119 c 0,11,12
 192 -119 192 -119 222 -123 c 1,13,14
 229 -190 229 -190 314 -190 c 0,15,16
 414 -190 414 -190 454 -122 c 128,-1,17
 494 -54 494 -54 494 102 c 0,18,19
 494 813 494 813 490 879 c 0,20,21
 490 938 490 938 482.5 976.5 c 128,-1,22
 475 1015 475 1015 465 1028 c 128,-1,23
 455 1041 455 1041 445 1059 c 1,24,-1
 457 1085 l 1,25,-1
 499 1096 l 2,26,27
 541 1108 541 1108 582 1108 c 0,28,29
 644 1108 644 1108 693 1087 c 1,30,31
 674 769 674 769 674 432 c 0,32,33
 674 386 674 386 675 262 c 128,-1,34
 676 138 676 138 676 96 c 0,0,1
EndSplineSet
Validated: 1
EndChar

StartChar: k
Encoding: 107 107 78
Width: 1237
GlyphClass: 2
Flags: W
HStem: 0 21G<236 443 797.5 1096> 0 21G<236 443 797.5 1096> 1086 20G<313 364.5 918 1000.5>
VStem: 240 201<0 535.359 574.232 1054.91>
LayerCount: 2
Fore
SplineSet
443 0 m 1,0,-1
 236 0 l 1,1,2
 240 106 240 106 240 877 c 0,3,4
 240 923 240 923 235.5 955.5 c 128,-1,5
 231 988 231 988 224.5 1004.5 c 128,-1,6
 218 1021 218 1021 209.5 1035 c 128,-1,7
 201 1049 201 1049 193 1057 c 1,8,-1
 205 1083 l 1,9,-1
 249 1094 l 2,10,11
 292 1106 292 1106 334 1106 c 0,12,13
 395 1106 395 1106 441 1085 c 1,14,15
 427 735 427 735 424 569 c 1,16,-1
 793 948 l 2,17,18
 832 987 832 987 832 1024 c 0,19,20
 832 1040 832 1040 822 1057 c 1,21,-1
 834 1083 l 1,22,23
 881 1102 881 1102 955 1102 c 0,24,25
 1046 1102 1046 1102 1065 1085 c 1,26,27
 1031 1028 1031 1028 1000.5 992 c 128,-1,28
 970 956 970 956 876 865.5 c 128,-1,29
 782 775 782 775 599 604 c 1,30,31
 644 550 644 550 776 386 c 128,-1,32
 908 222 908 222 997.5 113 c 128,-1,33
 1087 4 1087 4 1096 0 c 1,34,-1
 838 0 l 1,35,36
 757 120 757 120 648 265 c 128,-1,37
 539 410 539 410 465 489 c 1,38,-1
 424 537 l 1,39,-1
 424 432 l 2,40,41
 424 42 424 42 443 0 c 1,0,-1
EndSplineSet
Validated: 1
EndChar

StartChar: l
Encoding: 108 108 79
Width: 1006
GlyphClass: 2
Flags: W
HStem: 0 188<775.516 842.813> 0 102<429 779.839> 1086 20G<313 364.5> 1086 20G<313 364.5>
VStem: 240 184<102 954.405>
LayerCount: 2
Fore
SplineSet
818 0 m 1,0,-1
 236 0 l 1,1,2
 240 106 240 106 240 877 c 0,3,4
 240 923 240 923 235.5 955.5 c 128,-1,5
 231 988 231 988 224.5 1004.5 c 128,-1,6
 218 1021 218 1021 209.5 1035 c 128,-1,7
 201 1049 201 1049 193 1057 c 1,8,-1
 205 1083 l 1,9,-1
 249 1094 l 2,10,11
 292 1106 292 1106 334 1106 c 0,12,13
 395 1106 395 1106 441 1085 c 1,14,15
 424 694 424 694 424 432 c 0,16,17
 424 193 424 193 429 102 c 1,18,-1
 621 102 l 2,19,20
 698 102 698 102 747.5 126 c 128,-1,21
 797 150 797 150 805 188 c 1,22,-1
 840 188 l 1,23,24
 859 170 859 170 852.5 97.5 c 128,-1,25
 846 25 846 25 818 0 c 1,0,-1
EndSplineSet
Validated: 33
EndChar

StartChar: m
Encoding: 109 109 80
Width: 1704
GlyphClass: 2
Flags: W
HStem: 0 21G<219 360 1288 1497> 0 21G<219 360 1288 1497> 1086 20G<326 404 1461 1476.5>
VStem: 223 131<0.943848 496.969> 262 104<558.844 866.497> 1284 188<0.977051 868> 1288 209<0 544.685>
LayerCount: 2
Fore
SplineSet
903 -35 m 1,0,-1
 804 -20 l 2,1,2
 710 -3 710 -3 675 104 c 1,3,-1
 393 772 l 2,4,5
 376 813 376 813 362 868 c 1,6,7
 366 820 366 820 366 760 c 0,8,9
 365 713 365 713 361.5 445.5 c 128,-1,10
 358 178 358 178 354 86 c 0,11,12
 354 30 354 30 360 0 c 1,13,-1
 219 0 l 1,14,-1
 223 27 l 1,15,16
 257 638 257 638 262 993 c 1,17,18
 238 1034 238 1034 215 1057 c 1,19,-1
 227 1083 l 1,20,21
 292 1106 292 1106 360 1106 c 0,22,23
 448 1106 448 1106 485 1081 c 1,24,25
 516 962 516 962 656.5 626 c 128,-1,26
 797 290 797 290 864 160 c 1,27,-1
 1216 1024 l 2,28,29
 1224 1042 1224 1042 1243 1055 c 128,-1,30
 1262 1068 1262 1068 1287.5 1075 c 128,-1,31
 1313 1082 1313 1082 1345 1086.5 c 128,-1,32
 1377 1091 1377 1091 1410.5 1093 c 128,-1,33
 1444 1095 1444 1095 1478 1098 c 1,34,35
 1475 1060 1475 1060 1474.5 1032 c 128,-1,36
 1474 1004 1474 1004 1474 949.5 c 128,-1,37
 1474 895 1474 895 1472 829 c 0,38,39
 1468 559 1468 559 1482 96 c 0,40,41
 1487 31 1487 31 1497 0 c 1,42,-1
 1288 0 l 1,43,-1
 1290 98 l 2,44,45
 1295 345 1295 345 1284 770 c 0,46,47
 1284 785 1284 785 1282 822.5 c 128,-1,48
 1280 860 1280 860 1280 868 c 2,49,-1
 1243 762 l 1,50,-1
 950 104 l 1,51,-1
 903 -35 l 1,0,-1
EndSplineSet
Validated: 33
EndChar

StartChar: n
Encoding: 110 110 81
Width: 1441
GlyphClass: 2
Flags: W
HStem: 0 21G<237 378 1074.56 1214> 0 21G<237 378 1074.56 1214> 1084 20G<1108.5 1173.5>
VStem: 237 141<0 477.17> 239 121<41.5503 818.151> 1077 129<250.625 352> 1081 147<596.875 1053.68>
LayerCount: 2
Fore
SplineSet
1077 352 m 1,0,1
 1081 352 1081 352 1081 879 c 0,2,3
 1081 1005 1081 1005 1034 1057 c 1,4,-1
 1046 1083 l 1,5,6
 1075 1104 1075 1104 1142 1104 c 0,7,8
 1205 1104 1205 1104 1228 1085 c 1,9,10
 1206 687 1206 687 1206 313 c 0,11,12
 1206 156 1206 156 1214 0 c 1,13,-1
 1093 0 l 1,14,-1
 432 717 l 1,15,-1
 399 758 l 2,16,17
 366 800 366 800 358 819 c 1,18,19
 364 792 364 792 364 745 c 0,20,21
 364 706 364 706 362 623.5 c 128,-1,22
 360 541 360 541 360 500 c 0,23,24
 360 131 360 131 378 0 c 1,25,-1
 237 0 l 1,26,-1
 237 27 l 2,27,28
 239 240 239 240 239 610 c 2,29,-1
 239 879 l 2,30,31
 239 947 239 947 230 985 c 128,-1,32
 221 1023 221 1023 194 1057 c 1,33,-1
 206 1083 l 1,34,35
 231 1093 231 1093 271 1100 c 128,-1,36
 311 1107 311 1107 337 1100 c 1,37,-1
 1024 354 l 2,38,39
 1046 330 1046 330 1068 290 c 2,40,-1
 1089 250 l 1,41,-1
 1083 290 l 2,42,43
 1077 330 1077 330 1077 352 c 1,0,1
EndSplineSet
Validated: 33
EndChar

StartChar: o
Encoding: 111 111 82
Width: 1387
GlyphClass: 2
Flags: W
HStem: -27 111<573.279 848.631> 989 115<532.764 810.188>
VStem: 171 205<332.211 759.617> 1003 207<334.154 747.196>
LayerCount: 2
Fore
SplineSet
733 1104 m 0,0,1
 575 1104 575 1104 446.5 1029.5 c 128,-1,2
 318 955 318 955 244.5 821 c 128,-1,3
 171 687 171 687 171 520 c 0,4,5
 171 392 171 392 211 286 c 128,-1,6
 251 180 251 180 317 113 c 128,-1,7
 383 46 383 46 463.5 9.5 c 128,-1,8
 544 -27 544 -27 628 -27 c 0,9,10
 756 -27 756 -27 865 19 c 128,-1,11
 974 65 974 65 1048 144 c 128,-1,12
 1122 223 1122 223 1164.5 330 c 128,-1,13
 1207 437 1207 437 1210 559 c 0,14,15
 1210 688 1210 688 1171.5 793 c 128,-1,16
 1133 898 1133 898 1067 965 c 128,-1,17
 1001 1032 1001 1032 915.5 1068 c 128,-1,18
 830 1104 830 1104 733 1104 c 0,0,1
712 84 m 0,19,20
 619 84 619 84 541 153 c 128,-1,21
 463 222 463 222 419.5 334.5 c 128,-1,22
 376 447 376 447 376 573 c 0,23,24
 376 750 376 750 459.5 869.5 c 128,-1,25
 543 989 543 989 671 989 c 0,26,27
 761 989 761 989 837 924.5 c 128,-1,28
 913 860 913 860 958 748.5 c 128,-1,29
 1003 637 1003 637 1003 504 c 0,30,31
 1003 325 1003 325 920.5 204.5 c 128,-1,32
 838 84 838 84 712 84 c 0,19,20
EndSplineSet
Validated: 9
EndChar

StartChar: p
Encoding: 112 112 83
Width: 1118
GlyphClass: 2
Flags: W
HStem: 0 21G<238 443> 0 21G<238 443> 403 95<426 690.431> 989 105<432 678.266>
VStem: 238 205<0 403.071> 241 185<2.0083 414 501.951 987> 776 170<593.416 889.95>
LayerCount: 2
Fore
SplineSet
443 0 m 1,0,-1
 238 0 l 1,1,-1
 238 27 l 2,2,3
 238 76 238 76 239.5 220 c 128,-1,4
 241 364 241 364 240 436 c 0,5,6
 240 481 240 481 241 595 c 128,-1,7
 242 709 242 709 241.5 758 c 128,-1,8
 241 807 241 807 237 881 c 128,-1,9
 233 955 233 955 222 995.5 c 128,-1,10
 211 1036 211 1036 193 1057 c 1,11,-1
 205 1083 l 1,12,-1
 535 1094 l 1,13,-1
 555 1094 l 2,14,15
 611 1094 611 1094 663.5 1084.5 c 128,-1,16
 716 1075 716 1075 768.5 1050.5 c 128,-1,17
 821 1026 821 1026 859.5 989 c 128,-1,18
 898 952 898 952 922 891.5 c 128,-1,19
 946 831 946 831 946 754 c 0,20,21
 946 605 946 605 821.5 504 c 128,-1,22
 697 403 697 403 520 403 c 0,23,24
 487 403 487 403 426 414 c 1,25,26
 434 62 434 62 443 0 c 1,0,-1
539 498 m 0,27,28
 643 498 643 498 709.5 556.5 c 128,-1,29
 776 615 776 615 776 717 c 0,30,31
 776 777 776 777 761 825.5 c 128,-1,32
 746 874 746 874 721 904.5 c 128,-1,33
 696 935 696 935 663 955 c 128,-1,34
 630 975 630 975 597 982.5 c 128,-1,35
 564 990 564 990 529 989 c 2,36,-1
 432 987 l 1,37,38
 426 928 426 928 426 561 c 2,39,-1
 426 512 l 1,40,41
 464 498 464 498 539 498 c 0,27,28
EndSplineSet
Validated: 33
EndChar

StartChar: q
Encoding: 113 113 84
Width: 1390
GlyphClass: 2
Flags: W
HStem: -315 116<915.261 1190.5> -27 111<573.306 653.251> 989 115<532.764 810.188>
VStem: 171 205<332.211 759.617> 1003 207<331.854 747.196>
LayerCount: 2
Fore
SplineSet
733 1104 m 0,0,1
 575 1104 575 1104 446.5 1029.5 c 128,-1,2
 318 955 318 955 244.5 821 c 128,-1,3
 171 687 171 687 171 520 c 0,4,5
 171 392 171 392 211 286 c 128,-1,6
 251 180 251 180 317 113 c 128,-1,7
 383 46 383 46 463.5 9.5 c 128,-1,8
 544 -27 544 -27 628 -27 c 2,9,-1
 645 -27 l 1,10,11
 662 -157 662 -157 760.5 -236 c 128,-1,12
 859 -315 859 -315 983 -315 c 0,13,14
 1066 -315 1066 -315 1117 -285.5 c 128,-1,15
 1168 -256 1168 -256 1216 -195 c 1,16,17
 1200 -199 1200 -199 1181 -199 c 0,18,19
 1088 -199 1088 -199 1007.5 -183 c 128,-1,20
 927 -167 927 -167 856 -123.5 c 128,-1,21
 785 -80 785 -80 755 -14 c 1,22,23
 958 25 958 25 1081 183.5 c 128,-1,24
 1204 342 1204 342 1210 559 c 0,25,26
 1210 688 1210 688 1171.5 793 c 128,-1,27
 1133 898 1133 898 1067 965 c 128,-1,28
 1001 1032 1001 1032 915.5 1068 c 128,-1,29
 830 1104 830 1104 733 1104 c 0,0,1
712 84 m 0,30,31
 619 84 619 84 541 153 c 128,-1,32
 463 222 463 222 419.5 334.5 c 128,-1,33
 376 447 376 447 376 573 c 0,34,35
 376 750 376 750 459.5 869.5 c 128,-1,36
 543 989 543 989 671 989 c 0,37,38
 761 989 761 989 837 924.5 c 128,-1,39
 913 860 913 860 958 748.5 c 128,-1,40
 1003 637 1003 637 1003 504 c 0,41,42
 1003 325 1003 325 920.5 204.5 c 128,-1,43
 838 84 838 84 712 84 c 0,30,31
EndSplineSet
Validated: 9
EndChar

StartChar: r
Encoding: 114 114 85
Width: 1237
GlyphClass: 2
Flags: W
HStem: 0 21G<238 442 854.5 1114> 0 21G<238 442 854.5 1114> 410 88<426 555.187> 989 103<432 682.505>
VStem: 238 204<0 408.916> 241 185<2.04053 420 501.951 987> 782 170<592.949 889.283>
LayerCount: 2
Fore
SplineSet
442 0 m 1,0,-1
 238 0 l 1,1,-1
 238 27 l 2,2,3
 238 76 238 76 239.5 220 c 128,-1,4
 241 364 241 364 240 436 c 0,5,6
 240 481 240 481 241 595 c 128,-1,7
 242 709 242 709 241.5 758 c 128,-1,8
 241 807 241 807 237 881 c 128,-1,9
 233 955 233 955 222 995.5 c 128,-1,10
 211 1036 211 1036 193 1057 c 1,11,-1
 205 1083 l 1,12,13
 530 1092 530 1092 555 1092 c 0,14,15
 612 1092 612 1092 664.5 1082.5 c 128,-1,16
 717 1073 717 1073 770.5 1049 c 128,-1,17
 824 1025 824 1025 863.5 988 c 128,-1,18
 903 951 903 951 927.5 891 c 128,-1,19
 952 831 952 831 952 754 c 0,20,21
 952 645 952 645 884.5 559.5 c 128,-1,22
 817 474 817 474 707 440 c 1,23,24
 730 430 730 430 911 222.5 c 128,-1,25
 1092 15 1092 15 1114 0 c 1,26,-1
 862 0 l 1,27,28
 847 29 847 29 822.5 63.5 c 128,-1,29
 798 98 798 98 769.5 132.5 c 128,-1,30
 741 167 741 167 707.5 205 c 128,-1,31
 674 243 674 243 641.5 277.5 c 128,-1,32
 609 312 609 312 575.5 346.5 c 128,-1,33
 542 381 542 381 514 410 c 1,34,35
 481 410 481 410 426 420 c 1,36,37
 435 63 435 63 442 0 c 1,0,-1
539 498 m 0,38,39
 644 498 644 498 713 557 c 128,-1,40
 782 616 782 616 782 717 c 0,41,42
 782 793 782 793 758.5 849.5 c 128,-1,43
 735 906 735 906 696 935 c 128,-1,44
 657 964 657 964 615 977.5 c 128,-1,45
 573 991 573 991 528 989 c 2,46,-1
 432 987 l 1,47,48
 426 928 426 928 426 561 c 2,49,-1
 426 512 l 1,50,51
 464 498 464 498 539 498 c 0,38,39
EndSplineSet
Validated: 33
EndChar

StartChar: s
Encoding: 115 115 86
Width: 1053
GlyphClass: 2
Flags: W
HStem: -27 127<301.916 658.705> 1004 100<393.16 658.255>
VStem: 202 150<773.953 958.631> 702 180<144.168 341.321>
LayerCount: 2
Fore
SplineSet
493 -27 m 0,0,1
 379 -27 379 -27 291.5 23 c 128,-1,2
 204 73 204 73 204 137 c 0,3,4
 204 177 204 177 223 205 c 1,5,6
 234 169 234 169 319 134.5 c 128,-1,7
 404 100 404 100 487 100 c 0,8,9
 702 100 702 100 702 244 c 0,10,11
 702 284 702 284 674.5 321 c 128,-1,12
 647 358 647 358 603 388.5 c 128,-1,13
 559 419 559 419 505.5 451 c 128,-1,14
 452 483 452 483 398.5 519 c 128,-1,15
 345 555 345 555 301 595 c 128,-1,16
 257 635 257 635 229.5 690.5 c 128,-1,17
 202 746 202 746 202 809 c 0,18,19
 202 925 202 925 293 1014.5 c 128,-1,20
 384 1104 384 1104 536 1104 c 0,21,22
 602 1104 602 1104 663.5 1089.5 c 128,-1,23
 725 1075 725 1075 750.5 1063 c 128,-1,24
 776 1051 776 1051 815 1030 c 1,25,26
 827 1004 827 1004 820.5 936 c 128,-1,27
 814 868 814 868 784 840 c 1,28,-1
 749 846 l 1,29,30
 731 900 731 900 686.5 938 c 128,-1,31
 642 976 642 976 598.5 990 c 128,-1,32
 555 1004 555 1004 516 1004 c 0,33,34
 449 1004 449 1004 400.5 972.5 c 128,-1,35
 352 941 352 941 352 874 c 0,36,37
 352 831 352 831 381 792.5 c 128,-1,38
 410 754 410 754 457 723.5 c 128,-1,39
 504 693 504 693 560.5 662.5 c 128,-1,40
 617 632 617 632 673.5 596 c 128,-1,41
 730 560 730 560 777 519 c 128,-1,42
 824 478 824 478 853 419 c 128,-1,43
 882 360 882 360 882 291 c 0,44,45
 882 160 882 160 771.5 66.5 c 128,-1,46
 661 -27 661 -27 493 -27 c 0,0,1
EndSplineSet
Validated: 33
EndChar

StartChar: t
Encoding: 116 116 87
Width: 1245
GlyphClass: 2
Flags: W
HStem: 895 199<174.967 236.889 1014.47 1044.23 1048.23 1075.49> 981 102<232.363 446.23 522.23 527.838 858.23 1018.96>
VStem: 162.23 44<895.319 932.67> 530.23 195<0 72 858 981>
LayerCount: 2
Fore
SplineSet
805.23046875 1083 m 1,0,-1
 446.23046875 1083 l 1,1,-1
 202.23046875 1094 l 1,2,3
 176.23046875 1068 176.23046875 1068 167.23046875 1021.5 c 128,-1,4
 158.23046875 975 158.23046875 975 162.23046875 940 c 128,-1,5
 166.23046875 905 166.23046875 905 174.23046875 895 c 1,6,-1
 206.23046875 895 l 1,7,8
 213.23046875 932 213.23046875 932 264.73046875 956.5 c 128,-1,9
 316.23046875 981 316.23046875 981 393.23046875 981 c 2,10,-1
 522.23046875 981 l 1,11,12
 530.23046875 942 530.23046875 942 530.23046875 858 c 2,13,-1
 531.23046875 602 l 2,14,15
 533.23046875 346 533.23046875 346 530.23046875 27 c 2,16,-1
 530.23046875 0 l 1,17,-1
 735.23046875 0 l 1,18,19
 725.23046875 50 725.23046875 50 725.23046875 72 c 0,20,21
 723.23046875 136 723.23046875 136 722.73046875 250.5 c 128,-1,22
 722.23046875 365 722.23046875 365 723.23046875 486.5 c 128,-1,23
 724.23046875 608 724.23046875 608 725.73046875 717 c 128,-1,24
 727.23046875 826 727.23046875 826 728.23046875 903 c 128,-1,25
 729.23046875 980 729.23046875 980 729.23046875 981 c 2,26,-1
 858.23046875 981 l 2,27,28
 935.23046875 981 935.23046875 981 986.73046875 956.5 c 128,-1,29
 1038.23046875 932 1038.23046875 932 1044.23046875 895 c 1,30,-1
 1077.23046875 895 l 1,31,32
 1084.23046875 905 1084.23046875 905 1088.23046875 940 c 128,-1,33
 1092.23046875 975 1092.23046875 975 1083.23046875 1021.5 c 128,-1,34
 1074.23046875 1068 1074.23046875 1068 1048.23046875 1094 c 1,35,-1
 805.23046875 1083 l 1,0,-1
EndSplineSet
Validated: 524329
EndChar

StartChar: u
Encoding: 117 117 88
Width: 1333
GlyphClass: 2
Flags: W
HStem: -27 123<504.332 864.463> 1086 20G<286.5 340 1015 1080.5>
VStem: 228 182<190.49 1040.25> 988 147<605.782 1055.33>
LayerCount: 2
Fore
SplineSet
1117 356 m 0,0,1
 1117 191 1117 191 994 82 c 128,-1,2
 871 -27 871 -27 660 -27 c 0,3,4
 583 -27 583 -27 521.5 -16.5 c 128,-1,5
 460 -6 460 -6 405 20 c 128,-1,6
 350 46 350 46 313 87 c 128,-1,7
 276 128 276 128 253 192.5 c 128,-1,8
 230 257 230 257 228 342 c 0,9,10
 218 654 218 654 218 877 c 0,11,12
 218 936 218 936 210.5 974.5 c 128,-1,13
 203 1013 203 1013 193 1026 c 128,-1,14
 183 1039 183 1039 173 1057 c 1,15,-1
 185 1083 l 1,16,-1
 225 1094 l 2,17,18
 265 1106 265 1106 308 1106 c 0,19,20
 372 1106 372 1106 420 1085 c 1,21,22
 410 883 410 883 410 365 c 0,23,24
 410 296 410 296 428.5 244.5 c 128,-1,25
 447 193 447 193 473.5 165.5 c 128,-1,26
 500 138 500 138 538.5 121.5 c 128,-1,27
 577 105 577 105 608 100.5 c 128,-1,28
 639 96 639 96 676 96 c 0,29,30
 805 96 805 96 889.5 155.5 c 128,-1,31
 974 215 974 215 982 307 c 1,32,33
 988 307 988 307 988 879 c 0,34,35
 988 1004 988 1004 943 1057 c 1,36,-1
 955 1083 l 1,37,38
 981 1104 981 1104 1049 1104 c 0,39,40
 1112 1104 1112 1104 1135 1085 c 1,41,42
 1117 694 1117 694 1117 356 c 0,0,1
EndSplineSet
Validated: 1
EndChar

StartChar: v
Encoding: 118 118 89
Width: 1379
GlyphClass: 2
Flags: W
VStem: 1038 186<911.979 1057.81>
LayerCount: 2
Fore
SplineSet
761 -35 m 1,0,-1
 816 104 l 1,1,-1
 1160 866 l 2,2,3
 1222 1005 1222 1005 1224 1083 c 1,4,5
 1187 1108 1187 1108 1132 1108 c 0,6,7
 1057 1108 1057 1108 1013 1085 c 1,8,-1
 1001 1059 l 1,9,10
 1038 1021 1038 1021 1038 967 c 0,11,12
 1038 920 1038 920 1011 858 c 2,13,-1
 767 283 l 2,14,15
 753 248 753 248 744 204 c 2,16,-1
 734 160 l 1,17,18
 675 286 675 286 548 622 c 128,-1,19
 421 958 421 958 392 1077 c 1,20,21
 362 1108 362 1108 282 1108 c 0,22,23
 203 1108 203 1108 153 1083 c 1,24,-1
 140 1057 l 1,25,26
 149 1054 149 1054 164 1037.5 c 128,-1,27
 179 1021 179 1021 209.5 963.5 c 128,-1,28
 240 906 240 906 270 821 c 2,29,-1
 546 104 l 2,30,31
 557 65 557 65 587.5 28 c 128,-1,32
 618 -9 618 -9 675 -20 c 2,33,-1
 761 -35 l 1,0,-1
EndSplineSet
Validated: 9
EndChar

StartChar: w
Encoding: 119 119 90
Width: 1892
GlyphClass: 2
Flags: W
LayerCount: 2
Fore
SplineSet
1311 -35 m 1,0,-1
 1358 104 l 1,1,-1
 1672 866 l 2,2,3
 1726 994 1726 994 1737 1083 c 1,4,5
 1700 1100 1700 1100 1633 1100 c 0,6,7
 1569 1100 1569 1100 1536 1083 c 1,8,-1
 1524 1057 l 1,9,10
 1561 1020 1561 1020 1561 965 c 0,11,12
 1561 917 1561 917 1534 858 c 1,13,-1
 1323 283 l 2,14,15
 1309 248 1309 248 1298 204 c 2,16,-1
 1287 160 l 1,17,18
 1235 269 1235 269 1121 606.5 c 128,-1,19
 1007 944 1007 944 975 1077 c 1,20,21
 945 1108 945 1108 867 1108 c 0,22,23
 792 1108 792 1108 742 1083 c 1,24,-1
 730 1057 l 1,25,26
 738 1054 738 1054 753.5 1036 c 128,-1,27
 769 1018 769 1018 800 959 c 128,-1,28
 831 900 831 900 861 815 c 2,29,-1
 893 717 l 1,30,-1
 734 283 l 2,31,32
 720 248 720 248 709 204 c 2,33,-1
 697 160 l 1,34,35
 645 269 645 269 531 606.5 c 128,-1,36
 417 944 417 944 385 1077 c 1,37,38
 355 1108 355 1108 277 1108 c 0,39,40
 204 1108 204 1108 152 1083 c 1,41,-1
 140 1057 l 1,42,43
 148 1054 148 1054 163 1037.5 c 128,-1,44
 178 1021 178 1021 208.5 963.5 c 128,-1,45
 239 906 239 906 269 821 c 2,46,-1
 519 104 l 2,47,48
 530 65 530 65 560.5 28 c 128,-1,49
 591 -9 591 -9 648 -20 c 2,50,-1
 721 -35 l 1,51,-1
 771 104 l 1,52,-1
 951 553 l 1,53,-1
 1108 104 l 2,54,55
 1141 -2 1141 -2 1237 -20 c 2,56,-1
 1311 -35 l 1,0,-1
EndSplineSet
Validated: 9
EndChar

StartChar: x
Encoding: 120 120 91
Width: 1241
GlyphClass: 2
Flags: W
HStem: 0 21G<161 344.333 833.19 1099> 0 21G<161 344.333 833.19 1099> 1082 20G<291 370.5 915 984>
LayerCount: 2
Fore
SplineSet
222 80 m 1,0,-1
 533 532 l 1,1,-1
 365 815 l 2,2,3
 344 850 344 850 320 891.5 c 128,-1,4
 296 933 296 933 286.5 949.5 c 128,-1,5
 277 966 277 966 263.5 987 c 128,-1,6
 250 1008 250 1008 241 1016.5 c 128,-1,7
 232 1025 232 1025 220.5 1034 c 128,-1,8
 209 1043 209 1043 193 1051 c 1,9,-1
 206 1077 l 1,10,11
 256 1102 256 1102 326 1102 c 0,12,13
 415 1102 415 1102 445 1071 c 1,14,15
 464 1026 464 1026 508 943.5 c 128,-1,16
 552 861 552 861 666 674 c 1,17,-1
 699 731 l 1,18,-1
 795 864 l 2,19,20
 806 883 806 883 819 902 c 128,-1,21
 832 921 832 921 842.5 946.5 c 128,-1,22
 853 972 853 972 853 993 c 0,23,24
 853 1032 853 1032 834 1051 c 1,25,-1
 847 1077 l 1,26,27
 885 1102 885 1102 945 1102 c 0,28,29
 1023 1102 1023 1102 1060 1077 c 1,30,31
 1044 995 1044 995 941 854 c 2,32,-1
 726 569 l 1,33,-1
 1015 96 l 2,34,35
 1029 72 1029 72 1050 48 c 128,-1,36
 1071 24 1071 24 1085 12 c 2,37,-1
 1099 0 l 1,38,-1
 845 0 l 1,39,-1
 597 420 l 1,40,-1
 556 348 l 1,41,-1
 376 88 l 2,42,43
 359 60 359 60 348 30 c 2,44,-1
 337 0 l 1,45,-1
 161 0 l 1,46,-1
 222 80 l 1,0,-1
EndSplineSet
Validated: 1
EndChar

StartChar: y
Encoding: 121 121 92
Width: 1198
GlyphClass: 2
Flags: W
HStem: 0 21G<521 738> 0 21G<521 738> 1088 20G<236.5 316 920 973.5>
VStem: 521 203<0 528>
LayerCount: 2
Fore
SplineSet
738 0 m 1,0,-1
 521 0 l 1,1,-1
 521 27 l 2,2,3
 521 94 521 94 522 187 c 128,-1,4
 523 280 523 280 523 307 c 0,5,6
 523 465 523 465 521 494 c 1,7,8
 507 508 507 508 484 545 c 2,9,-1
 314 819 l 1,10,11
 245 941 245 941 211 991.5 c 128,-1,12
 177 1042 177 1042 136 1057 c 1,13,-1
 148 1083 l 1,14,15
 200 1108 200 1108 273 1108 c 0,16,17
 359 1108 359 1108 390 1077 c 1,18,19
 428 988 428 988 514 834.5 c 128,-1,20
 600 681 600 681 650 606 c 1,21,-1
 659 626 l 2,22,23
 668 647 668 647 681 668 c 2,24,-1
 828 907 l 2,25,26
 850 945 850 945 852 983 c 128,-1,27
 854 1021 854 1021 832 1057 c 1,28,-1
 844 1083 l 1,29,30
 895 1108 895 1108 945 1108 c 0,31,32
 1002 1108 1002 1108 1051 1083 c 1,33,34
 1051 1055 1051 1055 1014 977.5 c 128,-1,35
 977 900 977 900 943 854 c 2,36,-1
 726 528 l 1,37,38
 726 500 726 500 725 415.5 c 128,-1,39
 724 331 724 331 724 283 c 0,40,41
 724 88 724 88 738 0 c 1,0,-1
EndSplineSet
Validated: 33
EndChar

StartChar: z
Encoding: 122 122 93
Width: 1295
GlyphClass: 2
Flags: W
HStem: 0 119<450 1044.87> 975 108<296.361 843>
VStem: 226 44<887.319 925.637> 1071 44<167.33 204.681>
LayerCount: 2
Fore
SplineSet
176 0 m 1,0,-1
 169 33 l 1,1,-1
 215 84 l 1,2,-1
 790 920 l 1,3,-1
 843 975 l 1,4,-1
 688 975 l 1,5,-1
 456 975 l 2,6,7
 379 975 379 975 327.5 950 c 128,-1,8
 276 925 276 925 270 887 c 1,9,-1
 237 887 l 1,10,11
 230 897 230 897 226 934 c 128,-1,12
 222 971 222 971 231 1019.5 c 128,-1,13
 240 1068 240 1068 266 1094 c 1,14,-1
 509 1083 l 1,15,-1
 1107 1083 l 1,16,-1
 1112 1049 l 1,17,-1
 1093 1028 l 2,18,19
 1075 1008 1075 1008 1069 997 c 2,20,-1
 499 172 l 1,21,-1
 450 119 l 1,22,-1
 643 119 l 1,23,-1
 884 119 l 2,24,25
 961 119 961 119 1012.5 143.5 c 128,-1,26
 1064 168 1064 168 1071 205 c 1,27,-1
 1103 205 l 1,28,29
 1111 195 1111 195 1115 158 c 128,-1,30
 1119 121 1119 121 1110 73.5 c 128,-1,31
 1101 26 1101 26 1075 0 c 1,32,-1
 831 0 l 1,33,-1
 176 0 l 1,0,-1
EndSplineSet
Validated: 33
EndChar

StartChar: braceleft
Encoding: 123 123 94
Width: 908
GlyphClass: 2
Flags: W
HStem: -502 76<577.39 691.043> 578 45<168 208.006> 1503 47<655.125 710.068>
VStem: 321 181<-353.042 350.141 796.163 1379.88>
LayerCount: 2
Fore
SplineSet
168 623 m 1,0,1
 321 623 321 623 321 1202 c 0,2,3
 321 1288 321 1288 351.5 1357 c 128,-1,4
 382 1426 382 1426 429.5 1466.5 c 128,-1,5
 477 1507 477 1507 531 1528.5 c 128,-1,6
 585 1550 585 1550 637 1550 c 0,7,8
 709 1550 709 1550 762 1503 c 1,9,10
 643 1501 643 1501 572.5 1417 c 128,-1,11
 502 1333 502 1333 502 1184 c 0,12,13
 502 915 502 915 443.5 753 c 128,-1,14
 385 591 385 591 326 584 c 1,15,-1
 339 576 l 2,16,17
 352 568 352 568 371.5 546.5 c 128,-1,18
 391 525 391 525 414 474.5 c 128,-1,19
 437 424 437 424 456.5 352.5 c 128,-1,20
 476 281 476 281 489 158 c 128,-1,21
 502 35 502 35 502 -117 c 0,22,23
 502 -157 502 -157 503 -184 c 128,-1,24
 504 -211 504 -211 508.5 -246.5 c 128,-1,25
 513 -282 513 -282 521.5 -305 c 128,-1,26
 530 -328 530 -328 545.5 -353 c 128,-1,27
 561 -378 561 -378 582.5 -392.5 c 128,-1,28
 604 -407 604 -407 636.5 -416.5 c 128,-1,29
 669 -426 669 -426 711 -426 c 0,30,31
 724 -426 724 -426 762 -422 c 1,32,33
 694 -502 694 -502 588 -502 c 0,34,35
 483 -502 483 -502 402 -423 c 128,-1,36
 321 -344 321 -344 321 -211 c 0,37,38
 321 21 321 21 308.5 181 c 128,-1,39
 296 341 296 341 273 422 c 128,-1,40
 250 503 250 503 225.5 537 c 128,-1,41
 201 571 201 571 168 578 c 1,42,-1
 168 623 l 1,0,1
EndSplineSet
Validated: 1
EndChar

StartChar: bar
Encoding: 124 124 95
Width: 664
GlyphClass: 2
Flags: W
VStem: 250 164<-520 1548>
LayerCount: 2
Fore
SplineSet
414 1548 m 1,0,-1
 414 -520 l 1,1,-1
 250 -520 l 1,2,-1
 250 1548 l 1,3,-1
 414 1548 l 1,0,-1
EndSplineSet
Validated: 1
EndChar

StartChar: braceright
Encoding: 125 125 96
Width: 913
GlyphClass: 2
Flags: W
HStem: -502 76<220.957 334.61> 578 45<703.994 744> 1503 47<201.932 256.875>
VStem: 410 181<-353.042 -184 158 350.141 796.163 1379.88>
LayerCount: 2
Fore
SplineSet
744 623 m 1,0,1
 591 623 591 623 591 1202 c 0,2,3
 591 1288 591 1288 560.5 1357 c 128,-1,4
 530 1426 530 1426 482.5 1466.5 c 128,-1,5
 435 1507 435 1507 381 1528.5 c 128,-1,6
 327 1550 327 1550 275 1550 c 0,7,8
 203 1550 203 1550 150 1503 c 1,9,10
 269 1501 269 1501 339.5 1417 c 128,-1,11
 410 1333 410 1333 410 1184 c 0,12,13
 410 915 410 915 468.5 753 c 128,-1,14
 527 591 527 591 586 584 c 1,15,-1
 573 576 l 2,16,17
 560 568 560 568 540.5 546.5 c 128,-1,18
 521 525 521 525 498 474.5 c 128,-1,19
 475 424 475 424 455.5 352.5 c 128,-1,20
 436 281 436 281 423 158 c 128,-1,21
 410 35 410 35 410 -117 c 0,22,23
 410 -157 410 -157 409 -184 c 128,-1,24
 408 -211 408 -211 403.5 -246.5 c 128,-1,25
 399 -282 399 -282 390.5 -305 c 128,-1,26
 382 -328 382 -328 366.5 -353 c 128,-1,27
 351 -378 351 -378 329.5 -392.5 c 128,-1,28
 308 -407 308 -407 275.5 -416.5 c 128,-1,29
 243 -426 243 -426 201 -426 c 0,30,31
 188 -426 188 -426 150 -422 c 1,32,33
 218 -502 218 -502 324 -502 c 0,34,35
 429 -502 429 -502 510 -423 c 128,-1,36
 591 -344 591 -344 591 -211 c 0,37,38
 591 21 591 21 603.5 181 c 128,-1,39
 616 341 616 341 639 422 c 128,-1,40
 662 503 662 503 686.5 537 c 128,-1,41
 711 571 711 571 744 578 c 1,42,-1
 744 623 l 1,0,1
EndSplineSet
Validated: 9
EndChar

StartChar: asciitilde
Encoding: 126 126 97
Width: 1121
GlyphClass: 2
Flags: W
LayerCount: 2
Fore
SplineSet
221 535 m 1,0,1
 246 553 246 553 258 560.5 c 128,-1,2
 270 568 270 568 297.5 578 c 128,-1,3
 325 588 325 588 350 586 c 0,4,5
 384 584 384 584 475.5 552 c 128,-1,6
 567 520 567 520 635 516 c 0,7,8
 734 510 734 510 811.5 551.5 c 128,-1,9
 889 593 889 593 907 680 c 1,10,11
 826 621 826 621 756 625 c 0,12,13
 720 629 720 629 625.5 659 c 128,-1,14
 531 689 531 689 479 692 c 0,15,16
 384 699 384 699 310.5 660 c 128,-1,17
 237 621 237 621 221 535 c 1,0,1
EndSplineSet
Validated: 41
EndChar

StartChar: exclamdown
Encoding: 161 161 98
Width: 674
GlyphClass: 2
Flags: W
HStem: 889 219<259.003 411.997>
VStem: 226 219<922.003 1074.48> 296 76<611.985 770>
LayerCount: 2
Fore
SplineSet
296 770 m 1,0,-1
 372 770 l 1,1,-1
 429 59 l 2,2,3
 432 22 432 22 441.5 -6 c 128,-1,4
 451 -34 451 -34 459 -44 c 2,5,-1
 468 -53 l 1,6,-1
 468 -92 l 1,7,-1
 451 -102 l 2,8,9
 435 -112 435 -112 406 -121.5 c 128,-1,10
 377 -131 377 -131 351 -131 c 0,11,12
 275 -131 275 -131 243.5 -102 c 128,-1,13
 212 -73 212 -73 212 -14 c 0,14,15
 212 17 212 17 228 115 c 0,16,17
 247 213 247 213 251 274 c 2,18,-1
 296 770 l 1,0,-1
226 997 m 0,19,20
 226 1043 226 1043 258 1075.5 c 128,-1,21
 290 1108 290 1108 335 1108 c 0,22,23
 381 1108 381 1108 413 1075.5 c 128,-1,24
 445 1043 445 1043 445 997 c 0,25,26
 445 953 445 953 413 921 c 128,-1,27
 381 889 381 889 335 889 c 0,28,29
 290 889 290 889 258 921 c 128,-1,30
 226 953 226 953 226 997 c 0,19,20
EndSplineSet
Validated: 1
EndChar

StartChar: cent
Encoding: 162 162 99
Width: 1178
GlyphClass: 2
Flags: W
HStem: -16 145<705 835.201> 897 139<503.137 615>
VStem: 191 182<308.759 721.294> 615 88<-223 -27 135 897 1032.21 1222.52>
LayerCount: 2
Fore
SplineSet
713 -223 m 1,0,-1
 613 -223 l 1,1,2
 613 -88 613 -88 615 -27 c 1,3,-1
 610 -27 l 2,4,5
 526 -27 526 -27 452.5 1.5 c 128,-1,6
 379 30 379 30 319.5 87 c 128,-1,7
 260 144 260 144 225.5 240 c 128,-1,8
 191 336 191 336 191 461 c 0,9,10
 191 614 191 614 242.5 740.5 c 128,-1,11
 294 867 294 867 391.5 946 c 128,-1,12
 489 1025 489 1025 615 1036 c 1,13,14
 614 1072 614 1072 609.5 1140 c 128,-1,15
 605 1208 605 1208 604 1223 c 1,16,17
 652 1233 652 1233 662 1233 c 0,18,19
 681 1233 681 1233 692.5 1225.5 c 128,-1,20
 704 1218 704 1218 708 1198.5 c 128,-1,21
 712 1179 712 1179 713 1165 c 128,-1,22
 714 1151 714 1151 712.5 1117.5 c 128,-1,23
 711 1084 711 1084 711 1069 c 2,24,-1
 711 1036 l 1,25,26
 846 1024 846 1024 917.5 961.5 c 128,-1,27
 989 899 989 899 971 803 c 1,28,29
 938 842 938 842 864 870 c 128,-1,30
 790 898 790 898 709 901 c 1,31,32
 703 421 703 421 703 264 c 2,33,-1
 703 129 l 1,34,35
 787 134 787 134 868.5 182.5 c 128,-1,36
 950 231 950 231 1002 309 c 1,37,-1
 1006 292 l 2,38,39
 1010 276 1010 276 1010 260 c 0,40,41
 1010 164 1010 164 920.5 86.5 c 128,-1,42
 831 9 831 9 705 -16 c 1,43,-1
 713 -223 l 1,0,-1
373 528 m 0,44,45
 373 437 373 437 398.5 356.5 c 128,-1,46
 424 276 424 276 480 215 c 128,-1,47
 536 154 536 154 615 135 c 1,48,49
 621 746 621 746 619 897 c 1,50,51
 524 884 524 884 471 825 c 0,52,53
 424 774 424 774 398.5 696 c 128,-1,54
 373 618 373 618 373 528 c 0,44,45
EndSplineSet
Validated: 33
EndChar

StartChar: sterling
Encoding: 163 163 100
Width: 1447
GlyphClass: 2
Flags: W
HStem: -299 149<466.238 1138.65> 557 123<186.891 326 508 896.175> 1427 117<675.674 950.44>
VStem: 328 180<221.455 557 688 1156.46> 998 192<1256.05 1379.74>
LayerCount: 2
Fore
SplineSet
179 551 m 1,0,-1
 191 684 l 2,1,2
 191 688 191 688 328 688 c 1,3,4
 329 785 329 785 329.5 851.5 c 128,-1,5
 330 918 330 918 336 978.5 c 128,-1,6
 342 1039 342 1039 357 1100 c 0,7,8
 368 1147 368 1147 385.5 1192 c 128,-1,9
 403 1237 403 1237 432.5 1289.5 c 128,-1,10
 462 1342 462 1342 505.5 1385.5 c 128,-1,11
 549 1429 549 1429 605 1465.5 c 128,-1,12
 661 1502 661 1502 739 1523 c 128,-1,13
 817 1544 817 1544 908 1544 c 0,14,15
 970 1544 970 1544 1033 1524 c 128,-1,16
 1096 1504 1096 1504 1143 1460.5 c 128,-1,17
 1190 1417 1190 1417 1190 1360 c 0,18,19
 1190 1293 1190 1293 1152.5 1258 c 128,-1,20
 1115 1223 1115 1223 1070 1223 c 0,21,22
 1023 1223 1023 1223 990 1253 c 1,23,24
 992 1253 992 1253 995 1266.5 c 128,-1,25
 998 1280 998 1280 998 1296 c 0,26,27
 998 1344 998 1344 947 1385.5 c 128,-1,28
 896 1427 896 1427 812 1427 c 0,29,30
 701 1427 701 1427 620 1330 c 128,-1,31
 539 1233 539 1233 527 1100 c 0,32,33
 522 1049 522 1049 519 999 c 128,-1,34
 516 949 516 949 515 913.5 c 128,-1,35
 514 878 514 878 512 808.5 c 128,-1,36
 510 739 510 739 508 684 c 1,37,38
 640 680 640 680 662 680 c 0,39,40
 716 680 716 680 764 680 c 128,-1,41
 812 680 812 680 849.5 681 c 128,-1,42
 887 682 887 682 912.5 686 c 128,-1,43
 938 690 938 690 947 696 c 1,44,45
 942 665 942 665 929.5 642 c 128,-1,46
 917 619 917 619 899.5 604.5 c 128,-1,47
 882 590 882 590 859.5 579.5 c 128,-1,48
 837 569 837 569 811.5 565 c 128,-1,49
 786 561 786 561 758 558.5 c 128,-1,50
 730 556 730 556 701.5 557 c 128,-1,51
 673 558 673 558 644 557 c 2,52,-1
 502 557 l 1,53,54
 497 393 497 393 455.5 175.5 c 128,-1,55
 414 -42 414 -42 371 -104 c 1,56,57
 609 -150 609 -150 775 -150 c 0,58,59
 949 -150 949 -150 1089 -118.5 c 128,-1,60
 1229 -87 1229 -87 1285 -27 c 1,61,62
 1291 -54 1291 -54 1291 -80 c 0,63,64
 1291 -299 1291 -299 881 -299 c 0,65,66
 773 -299 773 -299 582.5 -271.5 c 128,-1,67
 392 -244 392 -244 183 -209 c 1,68,69
 242 -80 242 -80 279 134.5 c 128,-1,70
 316 349 316 349 326 559 c 1,71,-1
 236 559 l 2,72,73
 211 559 211 559 179 551 c 1,0,-1
EndSplineSet
Validated: 1
EndChar

StartChar: fraction
Encoding: 8260 8260 101
Width: 1372
GlyphClass: 2
Flags: W
HStem: 0 21G<160 423> 0 21G<160 423> 1360 20G<1122 1173.5>
VStem: 1061 143<1254.4 1373.74>
LayerCount: 2
Fore
SplineSet
305 0 m 1,0,-1
 160 0 l 1,1,2
 686 751 686 751 871.5 1026 c 128,-1,3
 1057 1301 1057 1301 1061 1350 c 1,4,5
 1101 1380 1101 1380 1143 1380 c 0,6,7
 1204 1380 1204 1380 1204 1339 c 0,8,9
 1204 1307 1204 1307 1164.5 1247.5 c 128,-1,10
 1125 1188 1125 1188 1108 1169 c 0,11,12
 1106 1166 1106 1166 922.5 907 c 128,-1,13
 739 648 739 648 551.5 375 c 128,-1,14
 364 102 364 102 305 0 c 1,0,-1
EndSplineSet
Validated: 1
EndChar

StartChar: yen
Encoding: 165 165 102
Width: 1358
GlyphClass: 2
Flags: W
HStem: 0 21G<606 804> 0 21G<606 804> 276 123<362.255 608 788 1057.21> 584 123<362.255 548 843 1059.19> 1356 20G<283 368.5 1052 1104>
VStem: 608 192<0 270.703 399.568 584> 608 180<3.32812 276 399 578.787> 974 213<1210.65 1311.72 1348 1365.6>
LayerCount: 2
Fore
SplineSet
362 715 m 2,0,1
 362 711 362 711 548 707 c 1,2,-1
 368 1024 l 2,3,4
 341 1072 341 1072 310.5 1129 c 128,-1,5
 280 1186 280 1186 267.5 1208.5 c 128,-1,6
 255 1231 255 1231 237.5 1256.5 c 128,-1,7
 220 1282 220 1282 205 1293 c 128,-1,8
 190 1304 190 1304 167 1313 c 1,9,-1
 182 1348 l 1,10,11
 241 1376 241 1376 325 1376 c 0,12,13
 412 1376 412 1376 446 1339 c 1,14,15
 492 1226 492 1226 590 1036 c 128,-1,16
 688 846 688 846 743 758 c 1,17,-1
 753 784 l 2,18,19
 764 810 764 810 778 834 c 2,20,-1
 948 1135 l 2,21,22
 974 1178 974 1178 974 1229 c 0,23,24
 974 1272 974 1272 950 1313 c 1,25,-1
 964 1348 l 1,26,27
 1025 1376 1025 1376 1079 1376 c 0,28,29
 1129 1376 1129 1376 1187 1348 c 1,30,31
 1188 1314 1188 1314 1148.5 1224.5 c 128,-1,32
 1109 1135 1109 1135 1068 1067 c 2,33,-1
 843 707 l 1,34,35
 892 707 892 707 937 707 c 128,-1,36
 982 707 982 707 1018 708 c 128,-1,37
 1054 709 1054 709 1079 713 c 128,-1,38
 1104 717 1104 717 1113 723 c 1,39,40
 1109 699 1109 699 1100 680 c 128,-1,41
 1091 661 1091 661 1078.5 647 c 128,-1,42
 1066 633 1066 633 1050 622.5 c 128,-1,43
 1034 612 1034 612 1015.5 605.5 c 128,-1,44
 997 599 997 599 976.5 594.5 c 128,-1,45
 956 590 956 590 934 588 c 128,-1,46
 912 586 912 586 889.5 585 c 128,-1,47
 867 584 867 584 844.5 584 c 128,-1,48
 822 584 822 584 800 584 c 1,49,50
 788 416 788 416 788 399 c 1,51,52
 848 399 848 399 903 399 c 128,-1,53
 958 399 958 399 1001.5 400 c 128,-1,54
 1045 401 1045 401 1074.5 405 c 128,-1,55
 1104 409 1104 409 1113 416 c 1,56,57
 1108 385 1108 385 1094.5 361.5 c 128,-1,58
 1081 338 1081 338 1061 323.5 c 128,-1,59
 1041 309 1041 309 1016 299 c 128,-1,60
 991 289 991 289 963.5 284.5 c 128,-1,61
 936 280 936 280 905.5 277.5 c 128,-1,62
 875 275 875 275 845.5 276 c 128,-1,63
 816 277 816 277 788 276 c 1,64,65
 788 106 788 106 804 0 c 1,66,-1
 606 0 l 1,67,-1
 606 33 l 2,68,69
 606 87 606 87 607 166 c 128,-1,70
 608 245 608 245 608 276 c 1,71,72
 509 279 509 279 399 279 c 0,73,74
 370 279 370 279 362 276 c 1,75,-1
 362 408 l 2,76,77
 362 399 362 399 608 399 c 1,78,-1
 608 584 l 1,79,80
 509 586 509 586 399 586 c 0,81,82
 370 586 370 586 362 584 c 1,83,-1
 362 715 l 2,0,1
EndSplineSet
Validated: 33
EndChar

StartChar: florin
Encoding: 402 402 103
Width: 1514
GlyphClass: 2
Flags: W
HStem: -514 123<265.356 476.715> 885 123<1132.5 1213.89> 1419 127<1054.63 1226.5>
VStem: 746 187<361.897 886.738>
LayerCount: 2
Fore
SplineSet
808 1126 m 0,0,1
 779 1013 779 1013 679 1004 c 1,2,-1
 658 942 l 1,3,-1
 667 939 l 2,4,5
 676 936 676 936 689 927.5 c 128,-1,6
 702 919 702 919 715 905 c 128,-1,7
 728 891 728 891 737 865 c 128,-1,8
 746 839 746 839 746 805 c 0,9,10
 706 -145 706 -145 481 -343 c 0,11,12
 426 -391 426 -391 361 -391 c 0,13,14
 307 -391 307 -391 275 -369 c 128,-1,15
 243 -347 243 -347 243 -311 c 0,16,17
 243 -303 243 -303 247 -287 c 1,18,19
 242 -287 242 -287 233 -286 c 128,-1,20
 224 -285 224 -285 220 -285 c 0,21,22
 162 -285 162 -285 128.5 -311.5 c 128,-1,23
 95 -338 95 -338 95 -377 c 0,24,25
 95 -438 95 -438 161.5 -476 c 128,-1,26
 228 -514 228 -514 314 -514 c 0,27,28
 391 -514 391 -514 457.5 -495 c 128,-1,29
 524 -476 524 -476 574 -443 c 128,-1,30
 624 -410 624 -410 666.5 -360 c 128,-1,31
 709 -310 709 -310 739 -254.5 c 128,-1,32
 769 -199 769 -199 794 -128.5 c 128,-1,33
 819 -58 819 -58 835.5 9.5 c 128,-1,34
 852 77 852 77 867 158 c 0,35,36
 914 419 914 419 933 887 c 1,37,38
 940 887 940 887 998.5 886 c 128,-1,39
 1057 885 1057 885 1072 885 c 0,40,41
 1106 885 1106 885 1132.5 890 c 128,-1,42
 1159 895 1159 895 1187 909 c 128,-1,43
 1215 923 1215 923 1230.5 954 c 128,-1,44
 1246 985 1246 985 1246 1032 c 1,45,-1
 1241 1026 l 2,46,47
 1237 1020 1237 1020 1218.5 1014 c 128,-1,48
 1200 1008 1200 1008 1172 1008 c 2,49,-1
 947 1008 l 1,50,51
 953 1020 953 1020 957 1055 c 2,52,-1
 980 1217 l 2,53,54
 1006 1419 1006 1419 1156 1419 c 0,55,56
 1196 1419 1196 1419 1219 1394.5 c 128,-1,57
 1242 1370 1242 1370 1244 1335 c 1,58,59
 1267 1325 1267 1325 1289 1325 c 0,60,61
 1332 1325 1332 1325 1367 1356.5 c 128,-1,62
 1402 1388 1402 1388 1402 1430 c 0,63,64
 1402 1481 1402 1481 1346 1513.5 c 128,-1,65
 1290 1546 1290 1546 1220 1546 c 0,66,67
 1177 1546 1177 1546 1133.5 1534.5 c 128,-1,68
 1090 1523 1090 1523 1041 1493 c 128,-1,69
 992 1463 992 1463 950 1417 c 128,-1,70
 908 1371 908 1371 870 1296 c 128,-1,71
 832 1221 832 1221 808 1126 c 0,0,1
EndSplineSet
Validated: 9
EndChar

StartChar: section
Encoding: 167 167 104
Width: 1049
GlyphClass: 2
Flags: W
HStem: -496 109<267.123 460> 1419 109<576 770.842>
VStem: 216 119<807.714 1297.79> 467.5 108.5<-367.186 60.6229 969.46 1398.34> 703 119<-262.952 226.677>
LayerCount: 2
Fore
SplineSet
472 -496 m 0,0,1
 393 -496 393 -496 329.5 -476.5 c 128,-1,2
 266 -457 266 -457 230 -427.5 c 128,-1,3
 194 -398 194 -398 175 -367.5 c 128,-1,4
 156 -337 156 -337 156 -311 c 2,5,-1
 160 -274 l 1,6,7
 218 -326 218 -326 295.5 -357 c 128,-1,8
 373 -388 373 -388 441 -387 c 2,9,-1
 460 -387 l 1,10,11
 477 -227 477 -227 449.5 -27.5 c 128,-1,12
 422 172 422 172 318 543 c 0,13,14
 216 913 216 913 216 1114 c 0,15,16
 216 1289 216 1289 315.5 1408.5 c 128,-1,17
 415 1528 415 1528 566 1528 c 0,18,19
 645 1528 645 1528 709 1508.5 c 128,-1,20
 773 1489 773 1489 809 1459.5 c 128,-1,21
 845 1430 845 1430 863.5 1399.5 c 128,-1,22
 882 1369 882 1369 881 1343 c 2,23,-1
 877 1307 l 1,24,25
 820 1358 820 1358 742.5 1389 c 128,-1,26
 665 1420 665 1420 597 1419 c 2,27,-1
 576 1419 l 1,28,29
 561 1257 561 1257 588.5 1057.5 c 128,-1,30
 616 858 616 858 720 489 c 0,31,32
 822 121 822 121 822 -82 c 0,33,34
 822 -257 822 -257 722.5 -376.5 c 128,-1,35
 623 -496 623 -496 472 -496 c 0,0,1
453 510 m 0,36,37
 481 397 481 397 495 339 c 128,-1,38
 509 281 509 281 529.5 185 c 128,-1,39
 550 89 550 89 556.5 28 c 128,-1,40
 563 -33 563 -33 567.5 -109 c 128,-1,41
 572 -185 572 -185 563.5 -248 c 128,-1,42
 555 -311 555 -311 537 -369 c 1,43,44
 706 -307 706 -307 703 -49 c 0,45,46
 703 4 703 4 688.5 85 c 128,-1,47
 674 166 674 166 655 243.5 c 128,-1,48
 636 321 636 321 584 522 c 0,49,50
 543 686 543 686 523 777 c 128,-1,51
 503 868 503 868 483 994 c 128,-1,52
 463 1120 463 1120 467.5 1218 c 128,-1,53
 472 1316 472 1316 498 1401 c 1,54,55
 332 1338 332 1338 335 1081 c 0,56,57
 335 1005 335 1005 358.5 897 c 128,-1,58
 382 789 382 789 453 510 c 0,36,37
EndSplineSet
Validated: 33
EndChar

StartChar: currency
Encoding: 164 164 105
Width: 1466
GlyphClass: 2
Flags: W
HStem: -29 119<753.663 1140.76> 444 123<200.97 307 511 985.175> 731 123<202.031 309 489 1108.17> 1249 123<747.336 1172.27>
VStem: 305 182<571 731> 325 186<335.651 444> 329 160<856 981.156>
LayerCount: 2
Fore
SplineSet
178 731 m 1,0,-1
 202 862 l 2,1,2
 202 856 202 856 329 856 c 1,3,4
 385 1092 385 1092 557 1232 c 128,-1,5
 729 1372 729 1372 970 1372 c 0,6,7
 1159 1372 1159 1372 1242 1304 c 128,-1,8
 1325 1236 1325 1236 1251 1130 c 1,9,10
 1249 1154 1249 1154 1212.5 1181 c 128,-1,11
 1176 1208 1176 1208 1104 1228.5 c 128,-1,12
 1032 1249 1032 1249 946 1249 c 0,13,14
 772 1249 772 1249 649 1136.5 c 128,-1,15
 526 1024 526 1024 489 854 c 1,16,-1
 874 854 l 2,17,18
 928 854 928 854 976 854 c 128,-1,19
 1024 854 1024 854 1061.5 855 c 128,-1,20
 1099 856 1099 856 1124.5 860 c 128,-1,21
 1150 864 1150 864 1159 870 c 1,22,23
 1154 839 1154 839 1141.5 816 c 128,-1,24
 1129 793 1129 793 1111.5 778.5 c 128,-1,25
 1094 764 1094 764 1071 753.5 c 128,-1,26
 1048 743 1048 743 1023 739 c 128,-1,27
 998 735 998 735 969.5 732.5 c 128,-1,28
 941 730 941 730 912.5 731 c 128,-1,29
 884 732 884 732 855 731 c 2,30,-1
 477 731 l 1,31,32
 477 660 477 660 487 567 c 1,33,-1
 751 567 l 2,34,35
 805 567 805 567 853 567 c 128,-1,36
 901 567 901 567 938.5 568 c 128,-1,37
 976 569 976 569 1001.5 573 c 128,-1,38
 1027 577 1027 577 1036 584 c 1,39,40
 1031 553 1031 553 1018.5 529.5 c 128,-1,41
 1006 506 1006 506 988.5 491.5 c 128,-1,42
 971 477 971 477 948.5 467 c 128,-1,43
 926 457 926 457 900.5 452.5 c 128,-1,44
 875 448 875 448 847 445.5 c 128,-1,45
 819 443 819 443 790.5 444 c 128,-1,46
 762 445 762 445 733 444 c 2,47,-1
 511 444 l 1,48,49
 616 90 616 90 972 90 c 0,50,51
 1002 90 1002 90 1046.5 98.5 c 128,-1,52
 1091 107 1091 107 1155 136 c 128,-1,53
 1219 165 1219 165 1261 209 c 1,54,55
 1264 91 1264 91 1168.5 31 c 128,-1,56
 1073 -29 1073 -29 909 -29 c 0,57,58
 673 -29 673 -29 522.5 98.5 c 128,-1,59
 372 226 372 226 325 446 c 1,60,-1
 219 446 l 2,61,62
 190 446 190 446 182 444 c 1,63,-1
 202 575 l 1,64,65
 230 571 230 571 307 571 c 1,66,67
 305 596 305 596 305 645 c 0,68,69
 305 705 305 705 309 733 c 1,70,-1
 214 733 l 2,71,72
 186 733 186 733 178 731 c 1,0,-1
EndSplineSet
Validated: 33
EndChar

StartChar: quotesingle
Encoding: 39 39 106
Width: 698
GlyphClass: 2
Flags: W
HStem: 1111 443
VStem: 205 291
LayerCount: 2
Fore
SplineSet
389 1554 m 2,0,-1
 496 1554 l 1,1,-1
 473 1389 l 2,2,3
 443 1179 443 1179 287 1118 c 0,4,5
 262 1109 262 1109 236 1111 c 128,-1,6
 210 1113 210 1113 205 1118 c 1,7,8
 245 1154 245 1154 268.5 1213 c 128,-1,9
 292 1272 292 1272 300.5 1328.5 c 128,-1,10
 309 1385 309 1385 316 1437.5 c 128,-1,11
 323 1490 323 1490 340 1522 c 128,-1,12
 357 1554 357 1554 389 1554 c 2,0,-1
EndSplineSet
Validated: 1
EndChar

StartChar: quotedblleft
Encoding: 8220 8220 107
Width: 1068
GlyphClass: 2
Flags: W
HStem: 1055 487
VStem: 217 162<1183.12 1326.58> 575 162<1183.12 1326.58>
LayerCount: 2
Fore
SplineSet
835 1542 m 1,0,-1
 872 1493 l 1,1,2
 737 1364 737 1364 737 1268 c 0,3,4
 737 1216 737 1216 753 1197 c 128,-1,5
 769 1178 769 1178 797 1178 c 1,6,7
 803 1129 803 1129 770 1092 c 128,-1,8
 737 1055 737 1055 692 1055 c 0,9,10
 634 1055 634 1055 604.5 1089.5 c 128,-1,11
 575 1124 575 1124 575 1186 c 0,12,13
 575 1266 575 1266 643.5 1364.5 c 128,-1,14
 712 1463 712 1463 835 1542 c 1,0,-1
477 1542 m 1,15,-1
 514 1493 l 1,16,17
 379 1364 379 1364 379 1268 c 0,18,19
 379 1216 379 1216 395 1197 c 128,-1,20
 411 1178 411 1178 438 1178 c 1,21,22
 444 1129 444 1129 411.5 1092 c 128,-1,23
 379 1055 379 1055 334 1055 c 0,24,25
 276 1055 276 1055 246.5 1089.5 c 128,-1,26
 217 1124 217 1124 217 1186 c 0,27,28
 217 1266 217 1266 285.5 1364.5 c 128,-1,29
 354 1463 354 1463 477 1542 c 1,15,-1
EndSplineSet
Validated: 33
EndChar

StartChar: guillemotleft
Encoding: 171 171 108
Width: 1423
GlyphClass: 2
Flags: W
LayerCount: 2
Fore
SplineSet
194 506 m 1,0,-1
 235 547 l 1,1,-1
 503 866 l 2,2,3
 549 922 549 922 593 952 c 128,-1,4
 637 982 637 982 671.5 984.5 c 128,-1,5
 706 987 706 987 730 979.5 c 128,-1,6
 754 972 754 972 774 956 c 1,7,8
 756 950 756 950 731.5 929 c 128,-1,9
 707 908 707 908 692 890 c 2,10,-1
 677 872 l 1,11,-1
 450 569 l 2,12,13
 434 548 434 548 408 527 c 2,14,-1
 382 506 l 1,15,-1
 408 485 l 2,16,17
 434 464 434 464 450 442 c 2,18,-1
 677 139 l 1,19,-1
 692 122 l 2,20,21
 707 104 707 104 731.5 83 c 128,-1,22
 756 62 756 62 774 55 c 1,23,24
 754 39 754 39 730 31.5 c 128,-1,25
 706 24 706 24 671.5 27 c 128,-1,26
 637 30 637 30 593 59.5 c 128,-1,27
 549 89 549 89 503 145 c 2,28,-1
 235 465 l 1,29,-1
 194 506 l 1,0,-1
649 506 m 1,30,-1
 690 547 l 1,31,-1
 958 866 l 2,32,33
 1004 922 1004 922 1048 952 c 128,-1,34
 1092 982 1092 982 1126 984.5 c 128,-1,35
 1160 987 1160 987 1184 979.5 c 128,-1,36
 1208 972 1208 972 1228 956 c 1,37,38
 1210 950 1210 950 1186 929 c 128,-1,39
 1162 908 1162 908 1147 890 c 2,40,-1
 1132 872 l 1,41,-1
 905 569 l 2,42,43
 889 548 889 548 863 527 c 2,44,-1
 837 506 l 1,45,-1
 863 485 l 2,46,47
 889 464 889 464 905 442 c 2,48,-1
 1132 139 l 1,49,-1
 1147 122 l 2,50,51
 1162 104 1162 104 1186 83 c 128,-1,52
 1210 62 1210 62 1228 55 c 1,53,54
 1208 39 1208 39 1184 31.5 c 128,-1,55
 1160 24 1160 24 1126 27 c 128,-1,56
 1092 30 1092 30 1048 59.5 c 128,-1,57
 1004 89 1004 89 958 145 c 2,58,-1
 690 465 l 1,59,-1
 649 506 l 1,30,-1
EndSplineSet
Validated: 1
EndChar

StartChar: guilsinglleft
Encoding: 8249 8249 109
Width: 968
GlyphClass: 2
Flags: W
VStem: 194 579
LayerCount: 2
Fore
SplineSet
194 506 m 1,0,-1
 235 547 l 1,1,-1
 503 866 l 2,2,3
 549 922 549 922 593 952 c 128,-1,4
 637 982 637 982 671 984.5 c 128,-1,5
 705 987 705 987 729 979.5 c 128,-1,6
 753 972 753 972 773 956 c 1,7,8
 755 950 755 950 731 929 c 128,-1,9
 707 908 707 908 692 890 c 2,10,-1
 677 872 l 1,11,-1
 450 569 l 2,12,13
 434 548 434 548 408 527 c 2,14,-1
 382 506 l 1,15,-1
 408 485 l 2,16,17
 434 464 434 464 450 442 c 2,18,-1
 677 139 l 1,19,-1
 692 122 l 2,20,21
 707 104 707 104 731 83 c 128,-1,22
 755 62 755 62 773 55 c 1,23,24
 753 39 753 39 729 31.5 c 128,-1,25
 705 24 705 24 671 27 c 128,-1,26
 637 30 637 30 593 59.5 c 128,-1,27
 549 89 549 89 503 145 c 2,28,-1
 235 465 l 1,29,-1
 194 506 l 1,0,-1
EndSplineSet
Validated: 1
EndChar

StartChar: guilsinglright
Encoding: 8250 8250 110
Width: 971
GlyphClass: 2
Flags: W
LayerCount: 2
Fore
SplineSet
776 506 m 1,0,-1
 735 547 l 1,1,-1
 466 866 l 2,2,3
 420 922 420 922 376 952 c 128,-1,4
 332 982 332 982 298 984.5 c 128,-1,5
 264 987 264 987 240 979.5 c 128,-1,6
 216 972 216 972 196 956 c 1,7,8
 214 950 214 950 238 929 c 128,-1,9
 262 908 262 908 277 890 c 2,10,-1
 292 872 l 1,11,-1
 520 569 l 2,12,13
 535 548 535 548 561 527 c 2,14,-1
 587 506 l 1,15,-1
 561 485 l 2,16,17
 535 464 535 464 520 442 c 2,18,-1
 292 139 l 1,19,-1
 277 122 l 2,20,21
 262 104 262 104 238 83 c 128,-1,22
 214 62 214 62 196 55 c 1,23,24
 216 39 216 39 240 31.5 c 128,-1,25
 264 24 264 24 298 27 c 128,-1,26
 332 30 332 30 376 59.5 c 128,-1,27
 420 89 420 89 466 145 c 2,28,-1
 735 465 l 1,29,-1
 776 506 l 1,0,-1
EndSplineSet
Validated: 9
EndChar

StartChar: fi
Encoding: 64257 64257 111
Width: 1527
GlyphClass: 3
Flags: W
HStem: 0 21G<237 444 1103 1310> 0 21G<237 444 1103 1310> 489 113<425 746.808> 989 94<438 726.013> 1088 20G<1181 1232>
VStem: 239 186<1.41187 489 602 988.734> 1107 201<0 419.805 551.936 1056.91>
LayerCount: 2
Fore
SplineSet
444 0 m 1,0,-1
 237 0 l 1,1,-1
 239 111 l 1,2,-1
 239 874 l 2,3,4
 239 920 239 920 234.5 953.5 c 128,-1,5
 230 987 230 987 223 1003.5 c 128,-1,6
 216 1020 216 1020 208 1034.5 c 128,-1,7
 200 1049 200 1049 192 1057 c 1,8,-1
 204 1083 l 1,9,-1
 472 1083 l 1,10,-1
 776 1090 l 1,11,12
 795 1071 795 1071 803.5 1026.5 c 128,-1,13
 812 982 812 982 809.5 943 c 128,-1,14
 807 904 807 904 798 895 c 1,15,-1
 765 895 l 1,16,17
 756 932 756 932 704 957 c 128,-1,18
 652 982 652 982 579 985 c 2,19,-1
 438 989 l 1,20,21
 425 722 425 722 425 602 c 1,22,-1
 692 602 l 2,23,24
 716 602 716 602 732.5 608 c 128,-1,25
 749 614 749 614 753 620 c 2,26,-1
 757 625 l 1,27,-1
 759 611 l 2,28,29
 761 597 761 597 761 586 c 0,30,31
 761 554 761 554 746 532.5 c 128,-1,32
 731 511 731 511 703 502.5 c 128,-1,33
 675 494 675 494 653 491.5 c 128,-1,34
 631 489 631 489 601 489 c 2,35,-1
 425 489 l 1,36,37
 422 294 422 294 429 113 c 0,38,39
 429 45 429 45 444 0 c 1,0,-1
1310 0 m 1,40,-1
 1103 0 l 1,41,42
 1107 106 1107 106 1107 879 c 0,43,44
 1107 925 1107 925 1102.5 957.5 c 128,-1,45
 1098 990 1098 990 1091.5 1006.5 c 128,-1,46
 1085 1023 1085 1023 1076.5 1037 c 128,-1,47
 1068 1051 1068 1051 1060 1059 c 1,48,-1
 1072 1085 l 1,49,-1
 1116 1096 l 2,50,51
 1160 1108 1160 1108 1202 1108 c 0,52,53
 1262 1108 1262 1108 1308 1087 c 1,54,55
 1292 719 1292 719 1292 432 c 0,56,57
 1292 39 1292 39 1310 0 c 1,40,-1
EndSplineSet
Validated: 33
Ligature2: "'liga' Standard Ligatures in Latin lookup 0 subtable" f i
EndChar

StartChar: fl
Encoding: 64258 64258 112
Width: 1875
GlyphClass: 3
Flags: W
HStem: 0 102<1298 1649.65> 489 113<425 746.808> 989 94<438 726.013> 1086 20G<1183 1234> 1086 20G<1183 1234>
VStem: 239 186<1.41187 489 602 988.734> 1109 185<102 949.918>
LayerCount: 2
Fore
SplineSet
444 0 m 1,0,-1
 237 0 l 1,1,-1
 239 111 l 1,2,-1
 239 874 l 2,3,4
 239 920 239 920 234.5 953.5 c 128,-1,5
 230 987 230 987 223 1003.5 c 128,-1,6
 216 1020 216 1020 208 1034.5 c 128,-1,7
 200 1049 200 1049 192 1057 c 1,8,-1
 204 1083 l 1,9,-1
 472 1083 l 1,10,-1
 776 1090 l 1,11,12
 795 1071 795 1071 803.5 1026.5 c 128,-1,13
 812 982 812 982 809.5 943 c 128,-1,14
 807 904 807 904 798 895 c 1,15,-1
 765 895 l 1,16,17
 756 932 756 932 704 957 c 128,-1,18
 652 982 652 982 579 985 c 2,19,-1
 438 989 l 1,20,21
 425 722 425 722 425 602 c 1,22,-1
 692 602 l 2,23,24
 716 602 716 602 732.5 608 c 128,-1,25
 749 614 749 614 753 620 c 2,26,-1
 757 625 l 1,27,-1
 759 611 l 2,28,29
 761 597 761 597 761 586 c 0,30,31
 761 554 761 554 746 532.5 c 128,-1,32
 731 511 731 511 703 502.5 c 128,-1,33
 675 494 675 494 653 491.5 c 128,-1,34
 631 489 631 489 601 489 c 2,35,-1
 425 489 l 1,36,37
 422 294 422 294 429 113 c 0,38,39
 429 45 429 45 444 0 c 1,0,-1
1687 0 m 1,40,-1
 1105 0 l 1,41,42
 1109 106 1109 106 1109 877 c 0,43,44
 1109 923 1109 923 1104.5 955.5 c 128,-1,45
 1100 988 1100 988 1093.5 1004.5 c 128,-1,46
 1087 1021 1087 1021 1078.5 1035 c 128,-1,47
 1070 1049 1070 1049 1062 1057 c 1,48,-1
 1075 1083 l 1,49,-1
 1118 1094 l 2,50,51
 1162 1106 1162 1106 1204 1106 c 0,52,53
 1264 1106 1264 1106 1310 1085 c 1,54,55
 1294 717 1294 717 1294 432 c 0,56,57
 1294 193 1294 193 1298 102 c 1,58,-1
 1490 102 l 2,59,60
 1567 102 1567 102 1617 126 c 128,-1,61
 1667 150 1667 150 1675 188 c 1,62,-1
 1709 188 l 1,63,64
 1728 170 1728 170 1721.5 97.5 c 128,-1,65
 1715 25 1715 25 1687 0 c 1,40,-1
EndSplineSet
Validated: 33
Ligature2: "'liga' Standard Ligatures in Latin lookup 0 subtable" f l
EndChar

StartChar: endash
Encoding: 8211 8211 113
Width: 1262
GlyphClass: 2
Flags: W
HStem: 438 123<295.321 989.175>
LayerCount: 2
Fore
SplineSet
227 438 m 1,0,-1
 227 569 l 2,1,2
 227 561 227 561 756 561 c 0,3,4
 810 561 810 561 858 561 c 128,-1,5
 906 561 906 561 943 562 c 128,-1,6
 980 563 980 563 1005.5 567 c 128,-1,7
 1031 571 1031 571 1040 578 c 1,8,9
 1035 547 1035 547 1022.5 523.5 c 128,-1,10
 1010 500 1010 500 992.5 485.5 c 128,-1,11
 975 471 975 471 952.5 461 c 128,-1,12
 930 451 930 451 904.5 446.5 c 128,-1,13
 879 442 879 442 851 439.5 c 128,-1,14
 823 437 823 437 794.5 438 c 128,-1,15
 766 439 766 439 737 438 c 0,16,17
 710 438 710 438 493.5 439 c 128,-1,18
 277 440 277 440 264 440 c 0,19,20
 236 440 236 440 227 438 c 1,0,-1
EndSplineSet
Validated: 1
EndChar

StartChar: dagger
Encoding: 8224 8224 114
Width: 1072
GlyphClass: 2
Flags: W
HStem: 883 123<162.255 414 586 863.293>
VStem: 414 172<-454.892 342.844 373.941 883 1006 1303.46>
LayerCount: 2
Fore
SplineSet
582 -166 m 0,0,1
 586 -244 586 -244 578.5 -309.5 c 128,-1,2
 571 -375 571 -375 558 -412 c 128,-1,3
 545 -449 545 -449 531.5 -475 c 128,-1,4
 518 -501 518 -501 508 -510 c 2,5,-1
 498 -520 l 1,6,-1
 483 -498 l 2,7,8
 468 -476 468 -476 450 -436.5 c 128,-1,9
 432 -397 432 -397 418 -325.5 c 128,-1,10
 404 -254 404 -254 406 -172 c 0,11,12
 420 220 420 220 420 508 c 0,13,14
 420 689 420 689 416 883 c 1,15,16
 318 885 318 885 199 885 c 0,17,18
 170 885 170 885 162 883 c 1,19,-1
 162 1014 l 2,20,21
 162 1006 162 1006 414 1006 c 1,22,23
 412 1064 412 1064 403.5 1171.5 c 128,-1,24
 395 1279 395 1279 393 1315 c 1,25,26
 441 1325 441 1325 469 1325 c 0,27,28
 592 1325 592 1325 592 1161 c 0,29,30
 592 1159 592 1159 589.5 1108 c 128,-1,31
 587 1057 587 1057 586 1006 c 1,32,-1
 629 1006 l 2,33,34
 683 1006 683 1006 731 1006 c 128,-1,35
 779 1006 779 1006 816 1007 c 128,-1,36
 853 1008 853 1008 878.5 1012 c 128,-1,37
 904 1016 904 1016 913 1022 c 1,38,39
 908 991 908 991 895.5 967.5 c 128,-1,40
 883 944 883 944 865.5 929.5 c 128,-1,41
 848 915 848 915 825.5 905 c 128,-1,42
 803 895 803 895 778 891 c 128,-1,43
 753 887 753 887 724.5 884.5 c 128,-1,44
 696 882 696 882 667.5 883 c 128,-1,45
 639 884 639 884 610 883 c 2,46,-1
 582 883 l 1,47,48
 571 626 571 626 571 397 c 0,49,50
 569 219 569 219 582 -166 c 0,0,1
EndSplineSet
Validated: 33
EndChar

StartChar: daggerdbl
Encoding: 8225 8225 115
Width: 1111
GlyphClass: 2
Flags: W
HStem: 0 121<174.255 444 608 876.952> 883 123<194.286 446 618 896.293>
VStem: 448 156<-458.411 -2 121.189 132.865 382.99 883 1006 1160.93>
LayerCount: 2
Fore
SplineSet
174 -2 m 1,0,-1
 174 129 l 2,1,2
 174 121 174 121 446 121 c 1,3,4
 448 127 448 127 448 139 c 0,5,6
 452 381 452 381 452 508 c 0,7,8
 452 689 452 689 448 883 c 1,9,10
 350 885 350 885 231 885 c 0,11,12
 203 885 203 885 194 883 c 1,13,-1
 194 1014 l 2,14,15
 194 1006 194 1006 446 1006 c 1,16,17
 446 1010 446 1010 426 1315 c 1,18,19
 471 1325 471 1325 502 1325 c 0,20,21
 624 1325 624 1325 624 1161 c 0,22,23
 624 1159 624 1159 621.5 1108 c 128,-1,24
 619 1057 619 1057 618 1006 c 1,25,-1
 661 1006 l 2,26,27
 715 1006 715 1006 763.5 1006 c 128,-1,28
 812 1006 812 1006 849 1007 c 128,-1,29
 886 1008 886 1008 911.5 1012 c 128,-1,30
 937 1016 937 1016 946 1022 c 1,31,32
 941 991 941 991 928.5 967.5 c 128,-1,33
 916 944 916 944 898.5 929.5 c 128,-1,34
 881 915 881 915 858.5 905 c 128,-1,35
 836 895 836 895 810.5 891 c 128,-1,36
 785 887 785 887 757 884.5 c 128,-1,37
 729 882 729 882 700.5 883 c 128,-1,38
 672 884 672 884 643 883 c 2,39,-1
 614 883 l 1,40,41
 604 650 604 650 604 397 c 0,42,43
 601 247 601 247 604 121 c 1,44,-1
 641 121 l 2,45,46
 695 121 695 121 743 121 c 128,-1,47
 791 121 791 121 828 122 c 128,-1,48
 865 123 865 123 890.5 127 c 128,-1,49
 916 131 916 131 925 137 c 1,50,51
 920 106 920 106 907.5 83 c 128,-1,52
 895 60 895 60 877.5 45.5 c 128,-1,53
 860 31 860 31 837.5 20.5 c 128,-1,54
 815 10 815 10 790 6 c 128,-1,55
 765 2 765 2 736.5 -0.5 c 128,-1,56
 708 -3 708 -3 679.5 -2 c 128,-1,57
 651 -1 651 -1 622 -2 c 2,58,-1
 608 -2 l 1,59,60
 611 -100 611 -100 614 -166 c 0,61,62
 618 -244 618 -244 611 -309.5 c 128,-1,63
 604 -375 604 -375 591 -412 c 128,-1,64
 578 -449 578 -449 564 -475 c 128,-1,65
 550 -501 550 -501 540 -510 c 2,66,-1
 530 -520 l 1,67,-1
 515 -498 l 2,68,69
 500 -476 500 -476 482.5 -436.5 c 128,-1,70
 465 -397 465 -397 451 -325.5 c 128,-1,71
 437 -254 437 -254 438 -172 c 0,72,73
 439 -149 439 -149 440 -101.5 c 128,-1,74
 441 -54 441 -54 442 -29 c 0,75,76
 444 -18 444 -18 444 0 c 1,77,-1
 211 0 l 2,78,79
 182 0 182 0 174 -2 c 1,0,-1
EndSplineSet
Validated: 33
EndChar

StartChar: periodcentered
Encoding: 183 183 116
Width: 669
GlyphClass: 2
Flags: W
HStem: 391 219<257.519 410.997>
VStem: 224 220<424.519 576.997>
LayerCount: 2
Fore
SplineSet
444 502 m 0,0,1
 444 456 444 456 412 423.5 c 128,-1,2
 380 391 380 391 335 391 c 0,3,4
 289 391 289 391 256.5 423.5 c 128,-1,5
 224 456 224 456 224 502 c 0,6,7
 224 546 224 546 256.5 578 c 128,-1,8
 289 610 289 610 335 610 c 0,9,10
 379 610 379 610 411.5 578 c 128,-1,11
 444 546 444 546 444 502 c 0,0,1
EndSplineSet
Validated: 1
EndChar

StartChar: paragraph
Encoding: 182 182 117
Width: 1385
GlyphClass: 2
Flags: W
HStem: 1229 123<881.107 973.024 1074.09 1172.57>
VStem: 183.024 693<516.093 997.352> 787.024 91<-496 184> 982.024 90<-496 1228.62>
LayerCount: 2
Fore
SplineSet
183.024414062 762 m 0,0,1
 183.024414062 922 183.024414062 922 254.524414062 1058 c 128,-1,2
 326.024414062 1194 326.024414062 1194 448.524414062 1273 c 128,-1,3
 571.024414062 1352 571.024414062 1352 715.024414062 1352 c 2,4,-1
 717.024414062 1352 l 1,5,-1
 938.024414062 1352 l 2,6,7
 992.024414062 1352 992.024414062 1352 1040.52441406 1352 c 128,-1,8
 1089.02441406 1352 1089.02441406 1352 1126.02441406 1353 c 128,-1,9
 1163.02441406 1354 1163.02441406 1354 1188.52441406 1358 c 128,-1,10
 1214.02441406 1362 1214.02441406 1362 1223.02441406 1368 c 1,11,12
 1205.02441406 1253 1205.02441406 1253 1076.02441406 1235 c 1,13,14
 1074.02441406 1214 1074.02441406 1214 1074.02441406 1169 c 0,15,16
 1074.02441406 1162 1074.02441406 1162 1072.02441406 1042.5 c 128,-1,17
 1070.02441406 923 1070.02441406 923 1068.02441406 734.5 c 128,-1,18
 1066.02441406 546 1066.02441406 546 1065.02441406 385 c 0,19,20
 1064.02441406 238 1064.02441406 238 1070.02441406 -129 c 2,21,-1
 1076.02441406 -496 l 1,22,-1
 975.024414062 -496 l 1,23,24
 980.024414062 101 980.024414062 101 982.024414062 356 c 128,-1,25
 984.024414062 611 984.024414062 611 982.024414062 852.5 c 128,-1,26
 980.024414062 1094 980.024414062 1094 973.024414062 1229 c 1,27,-1
 883.024414062 1229 l 1,28,29
 881.024414062 1210 881.024414062 1210 881.024414062 1169 c 0,30,31
 881.024414062 1161 881.024414062 1161 879.524414062 1042.5 c 128,-1,32
 878.024414062 924 878.024414062 924 876.024414062 734.5 c 128,-1,33
 874.024414062 545 874.024414062 545 873.024414062 385 c 0,34,35
 872.024414062 238 872.024414062 238 878.024414062 -129 c 2,36,-1
 883.024414062 -496 l 1,37,-1
 783.024414062 -496 l 1,38,39
 787.024414062 -44 787.024414062 -44 787.024414062 98 c 0,40,41
 787.024414062 158 787.024414062 158 791.024414062 184 c 1,42,43
 739.024414062 165 739.024414062 165 689.024414062 162 c 0,44,45
 587.024414062 154 587.024414062 154 491.524414062 203 c 128,-1,46
 396.024414062 252 396.024414062 252 328.524414062 336.5 c 128,-1,47
 261.024414062 421 261.024414062 421 221.524414062 533.5 c 128,-1,48
 182.024414062 646 182.024414062 646 183.024414062 762 c 0,0,1
EndSplineSet
Validated: 524321
EndChar

StartChar: bullet
Encoding: 8226 8226 118
Width: 952
GlyphClass: 2
Flags: W
HStem: 252 506<332.445 618.251>
VStem: 222 508<363.097 647.665>
LayerCount: 2
Fore
SplineSet
476 758 m 0,0,1
 580 758 580 758 655 684 c 128,-1,2
 730 610 730 610 730 506 c 0,3,4
 730 401 730 401 655.5 326.5 c 128,-1,5
 581 252 581 252 476 252 c 0,6,7
 370 252 370 252 296 326 c 128,-1,8
 222 400 222 400 222 506 c 0,9,10
 222 610 222 610 296 684 c 128,-1,11
 370 758 370 758 476 758 c 0,0,1
EndSplineSet
Validated: 1
EndChar

StartChar: quotesinglbase
Encoding: 8218 8218 119
Width: 714
GlyphClass: 2
Flags: W
HStem: -295 488
VStem: 336 162<-79.3309 67.5319>
LayerCount: 2
Fore
SplineSet
237 -295 m 1,0,-1
 201 -246 l 1,1,2
 336 -117 336 -117 336 -20 c 0,3,4
 336 70 336 70 276 70 c 1,5,6
 270 118 270 118 302.5 155.5 c 128,-1,7
 335 193 335 193 381 193 c 0,8,9
 439 193 439 193 468.5 158.5 c 128,-1,10
 498 124 498 124 498 61 c 0,11,12
 498 -19 498 -19 429.5 -117.5 c 128,-1,13
 361 -216 361 -216 237 -295 c 1,0,-1
EndSplineSet
Validated: 33
EndChar

StartChar: quotedblbase
Encoding: 8222 8222 120
Width: 1072
GlyphClass: 2
Flags: W
HStem: -295 488
VStem: 336 162<-79.1721 67.5319> 694 162<-79.1721 67.5319>
LayerCount: 2
Fore
SplineSet
238 -295 m 1,0,-1
 201 -246 l 1,1,2
 336 -117 336 -117 336 -20 c 0,3,4
 336 70 336 70 277 70 c 1,5,6
 270 118 270 118 303 155.5 c 128,-1,7
 336 193 336 193 381 193 c 0,8,9
 439 193 439 193 468.5 158.5 c 128,-1,10
 498 124 498 124 498 61 c 0,11,12
 498 -19 498 -19 429.5 -117 c 128,-1,13
 361 -215 361 -215 238 -295 c 1,0,-1
596 -295 m 1,14,-1
 559 -246 l 1,15,16
 694 -117 694 -117 694 -20 c 0,17,18
 694 70 694 70 635 70 c 1,19,20
 629 118 629 118 661.5 155.5 c 128,-1,21
 694 193 694 193 739 193 c 0,22,23
 797 193 797 193 826.5 158.5 c 128,-1,24
 856 124 856 124 856 61 c 0,25,26
 856 -19 856 -19 787.5 -117 c 128,-1,27
 719 -215 719 -215 596 -295 c 1,14,-1
EndSplineSet
Validated: 33
EndChar

StartChar: quotedblright
Encoding: 8221 8221 121
Width: 1063
GlyphClass: 2
Flags: W
HStem: 1055 487
VStem: 339 162<1270.42 1413.92> 697 162<1270.42 1413.92>
LayerCount: 2
Fore
SplineSet
240 1055 m 1,0,-1
 204 1104 l 1,1,2
 339 1233 339 1233 339 1329 c 0,3,4
 339 1381 339 1381 323 1400 c 128,-1,5
 307 1419 307 1419 279 1419 c 1,6,7
 273 1468 273 1468 305.5 1505 c 128,-1,8
 338 1542 338 1542 384 1542 c 0,9,10
 442 1542 442 1542 471.5 1508 c 128,-1,11
 501 1474 501 1474 501 1411 c 0,12,13
 501 1331 501 1331 432.5 1232.5 c 128,-1,14
 364 1134 364 1134 240 1055 c 1,0,-1
599 1055 m 1,15,-1
 562 1104 l 1,16,17
 697 1233 697 1233 697 1329 c 0,18,19
 697 1381 697 1381 681 1400 c 128,-1,20
 665 1419 665 1419 638 1419 c 1,21,22
 632 1468 632 1468 664.5 1505 c 128,-1,23
 697 1542 697 1542 742 1542 c 0,24,25
 800 1542 800 1542 829.5 1508 c 128,-1,26
 859 1474 859 1474 859 1411 c 0,27,28
 859 1331 859 1331 790.5 1232.5 c 128,-1,29
 722 1134 722 1134 599 1055 c 1,15,-1
EndSplineSet
Validated: 33
EndChar

StartChar: guillemotright
Encoding: 187 187 122
Width: 1426
GlyphClass: 2
Flags: W
LayerCount: 2
Fore
SplineSet
1230 506 m 1,0,-1
 1189 547 l 1,1,-1
 921 866 l 2,2,3
 875 922 875 922 831 952 c 128,-1,4
 787 982 787 982 753 984.5 c 128,-1,5
 719 987 719 987 695 979.5 c 128,-1,6
 671 972 671 972 651 956 c 1,7,8
 669 950 669 950 693 929 c 128,-1,9
 717 908 717 908 732 890 c 2,10,-1
 747 872 l 1,11,-1
 974 569 l 2,12,13
 990 548 990 548 1016 527 c 2,14,-1
 1042 506 l 1,15,-1
 1016 485 l 2,16,17
 990 464 990 464 974 442 c 2,18,-1
 747 139 l 1,19,-1
 732 122 l 2,20,21
 717 104 717 104 693 83 c 128,-1,22
 669 62 669 62 651 55 c 1,23,24
 671 39 671 39 695 31.5 c 128,-1,25
 719 24 719 24 753 27 c 128,-1,26
 787 30 787 30 831 59.5 c 128,-1,27
 875 89 875 89 921 145 c 2,28,-1
 1189 465 l 1,29,-1
 1230 506 l 1,0,-1
776 506 m 1,30,-1
 735 547 l 1,31,-1
 466 866 l 2,32,33
 420 922 420 922 376 952 c 128,-1,34
 332 982 332 982 298 984.5 c 128,-1,35
 264 987 264 987 240 979.5 c 128,-1,36
 216 972 216 972 196 956 c 1,37,38
 214 950 214 950 238 929 c 128,-1,39
 262 908 262 908 277 890 c 2,40,-1
 292 872 l 1,41,-1
 520 569 l 2,42,43
 535 548 535 548 561 527 c 2,44,-1
 587 506 l 1,45,-1
 561 485 l 2,46,47
 535 464 535 464 520 442 c 2,48,-1
 292 139 l 1,49,-1
 277 122 l 2,50,51
 262 104 262 104 238 83 c 128,-1,52
 214 62 214 62 196 55 c 1,53,54
 216 39 216 39 240 31.5 c 128,-1,55
 264 24 264 24 298 27 c 128,-1,56
 332 30 332 30 376 59.5 c 128,-1,57
 420 89 420 89 466 145 c 2,58,-1
 735 465 l 1,59,-1
 776 506 l 1,30,-1
EndSplineSet
Validated: 9
EndChar

StartChar: ellipsis
Encoding: 8230 8230 123
Width: 1485
GlyphClass: 2
Flags: W
HStem: -27 220<255.003 407.997 675.003 827.997 1084.52 1237>
VStem: 222 219<6.51892 159.482> 642 219<6.51892 159.482> 1051 219<6.51892 159.997>
LayerCount: 2
Fore
SplineSet
441 84 m 0,0,1
 441 38 441 38 409 5.5 c 128,-1,2
 377 -27 377 -27 332 -27 c 0,3,4
 286 -27 286 -27 254 5.5 c 128,-1,5
 222 38 222 38 222 84 c 0,6,7
 222 128 222 128 254 160.5 c 128,-1,8
 286 193 286 193 332 193 c 0,9,10
 377 193 377 193 409 160.5 c 128,-1,11
 441 128 441 128 441 84 c 0,0,1
861 84 m 0,12,13
 861 38 861 38 829 5.5 c 128,-1,14
 797 -27 797 -27 752 -27 c 0,15,16
 706 -27 706 -27 674 5.5 c 128,-1,17
 642 38 642 38 642 84 c 0,18,19
 642 128 642 128 674 160.5 c 128,-1,20
 706 193 706 193 752 193 c 0,21,22
 797 193 797 193 829 160.5 c 128,-1,23
 861 128 861 128 861 84 c 0,12,13
1270 84 m 0,24,25
 1270 38 1270 38 1238 5.5 c 128,-1,26
 1206 -27 1206 -27 1162 -27 c 0,27,28
 1116 -27 1116 -27 1083.5 5.5 c 128,-1,29
 1051 38 1051 38 1051 84 c 0,30,31
 1051 129 1051 129 1083.5 161 c 128,-1,32
 1116 193 1116 193 1162 193 c 0,33,34
 1206 193 1206 193 1238 160.5 c 128,-1,35
 1270 128 1270 128 1270 84 c 0,24,25
EndSplineSet
Validated: 1
EndChar

StartChar: perthousand
Encoding: 8240 8240 124
Width: 2477
GlyphClass: 2
Flags: W
HStem: -23 82<1163.56 1367 1884.56 2088> 0 21G<333 596> 0 21G<333 596> 578 84<1145.42 1357.02 1866.42 2078.02> 694 82<395.564 598.996> 1294 84<377.417 589.023>
VStem: 179 137<862.969 1209.65> 673 133<876.709 1205.28> 947 137<145.969 492.165> 1234 143<1254.4 1373.74> 1441 133<158.857 488.577> 1668 137<145.969 492.165> 2162 133<158.857 488.577>
LayerCount: 2
Fore
SplineSet
478 0 m 1,0,-1
 333 0 l 1,1,2
 859 751 859 751 1044.5 1026 c 128,-1,3
 1230 1301 1230 1301 1234 1350 c 1,4,5
 1274 1380 1274 1380 1316 1380 c 0,6,7
 1377 1380 1377 1380 1377 1339 c 0,8,9
 1377 1321 1377 1321 1364.5 1294.5 c 128,-1,10
 1352 1268 1352 1268 1338 1248 c 128,-1,11
 1324 1228 1324 1228 1304.5 1201.5 c 128,-1,12
 1285 1175 1285 1175 1281 1169 c 0,13,14
 1279 1166 1279 1166 1095.5 907 c 128,-1,15
 912 648 912 648 724.5 375 c 128,-1,16
 537 102 537 102 478 0 c 1,0,-1
1295 662 m 0,17,18
 1140 662 1140 662 1043.5 563 c 128,-1,19
 947 464 947 464 947 307 c 0,20,21
 947 146 947 146 1023.5 61.5 c 128,-1,22
 1100 -23 1100 -23 1217 -23 c 0,23,24
 1373 -23 1373 -23 1472 80 c 128,-1,25
 1571 183 1571 183 1574 334 c 0,26,27
 1574 490 1574 490 1495.5 576 c 128,-1,28
 1417 662 1417 662 1295 662 c 0,17,18
1267 59 m 0,29,30
 1181 59 1181 59 1132.5 138 c 128,-1,31
 1084 217 1084 217 1084 350 c 0,32,33
 1084 456 1084 456 1128 517 c 128,-1,34
 1172 578 1172 578 1246 578 c 0,35,36
 1335 578 1335 578 1388 502 c 128,-1,37
 1441 426 1441 426 1441 297 c 0,38,39
 1441 190 1441 190 1390.5 124.5 c 128,-1,40
 1340 59 1340 59 1267 59 c 0,29,30
527 1378 m 0,41,42
 372 1378 372 1378 275.5 1279.5 c 128,-1,43
 179 1181 179 1181 179 1024 c 0,44,45
 179 863 179 863 255.5 778.5 c 128,-1,46
 332 694 332 694 449 694 c 0,47,48
 605 694 605 694 704 797 c 128,-1,49
 803 900 803 900 806 1051 c 0,50,51
 806 1207 806 1207 727.5 1292.5 c 128,-1,52
 649 1378 649 1378 527 1378 c 0,41,42
499 776 m 0,53,54
 413 776 413 776 364.5 855 c 128,-1,55
 316 934 316 934 316 1067 c 0,56,57
 316 1172 316 1172 360 1233 c 128,-1,58
 404 1294 404 1294 478 1294 c 0,59,60
 567 1294 567 1294 620 1218.5 c 128,-1,61
 673 1143 673 1143 673 1014 c 0,62,63
 673 906 673 906 622.5 841 c 128,-1,64
 572 776 572 776 499 776 c 0,53,54
2016 662 m 0,65,66
 1861 662 1861 662 1764.5 563 c 128,-1,67
 1668 464 1668 464 1668 307 c 0,68,69
 1668 146 1668 146 1744.5 61.5 c 128,-1,70
 1821 -23 1821 -23 1938 -23 c 0,71,72
 2094 -23 2094 -23 2193 80 c 128,-1,73
 2292 183 2292 183 2295 334 c 0,74,75
 2295 490 2295 490 2216.5 576 c 128,-1,76
 2138 662 2138 662 2016 662 c 0,65,66
1988 59 m 0,77,78
 1902 59 1902 59 1853.5 138 c 128,-1,79
 1805 217 1805 217 1805 350 c 0,80,81
 1805 456 1805 456 1849 517 c 128,-1,82
 1893 578 1893 578 1967 578 c 0,83,84
 2056 578 2056 578 2109 502 c 128,-1,85
 2162 426 2162 426 2162 297 c 0,86,87
 2162 190 2162 190 2111.5 124.5 c 128,-1,88
 2061 59 2061 59 1988 59 c 0,77,78
EndSplineSet
Validated: 9
EndChar

StartChar: questiondown
Encoding: 191 191 125
Width: 977
GlyphClass: 2
Flags: W
HStem: -129 92<398.777 593.331> 889 219<482.003 634.997>
VStem: 193 166<2.05408 203.184> 449 219<922.003 1074.48> 548 135<570.728 733.543> 619 174<-12.0698 123.96>
LayerCount: 2
Fore
SplineSet
511 762 m 1,0,-1
 558 784 l 1,1,2
 609 764 609 764 646 726.5 c 128,-1,3
 683 689 683 689 683 635 c 0,4,5
 683 557 683 557 649.5 487 c 128,-1,6
 616 417 616 417 568.5 367 c 128,-1,7
 521 317 521 317 473.5 274.5 c 128,-1,8
 426 232 426 232 392.5 190.5 c 128,-1,9
 359 149 359 149 359 113 c 0,10,11
 359 42 359 42 400.5 2.5 c 128,-1,12
 442 -37 442 -37 509 -37 c 0,13,14
 555 -37 555 -37 587 -8.5 c 128,-1,15
 619 20 619 20 619 74 c 0,16,17
 619 96 619 96 611 119 c 1,18,19
 641 158 641 158 695 158 c 0,20,21
 744 158 744 158 768.5 130.5 c 128,-1,22
 793 103 793 103 793 70 c 0,23,24
 793 -25 793 -25 711 -77 c 128,-1,25
 629 -129 629 -129 519 -129 c 0,26,27
 387 -129 387 -129 290 -54.5 c 128,-1,28
 193 20 193 20 193 150 c 0,29,30
 193 203 193 203 219.5 255.5 c 128,-1,31
 246 308 246 308 285 348.5 c 128,-1,32
 324 389 324 389 370.5 433.5 c 128,-1,33
 417 478 417 478 456 515.5 c 128,-1,34
 495 553 495 553 521.5 598.5 c 128,-1,35
 548 644 548 644 548 688 c 0,36,37
 548 731 548 731 511 762 c 1,0,-1
449 997 m 0,38,39
 449 1043 449 1043 481 1075.5 c 128,-1,40
 513 1108 513 1108 558 1108 c 0,41,42
 604 1108 604 1108 636 1075.5 c 128,-1,43
 668 1043 668 1043 668 997 c 0,44,45
 668 953 668 953 636 921 c 128,-1,46
 604 889 604 889 558 889 c 0,47,48
 513 889 513 889 481 921 c 128,-1,49
 449 953 449 953 449 997 c 0,38,39
EndSplineSet
Validated: 1
EndChar

StartChar: grave
Encoding: 96 96 126
Width: 835
GlyphClass: 2
Flags: W
HStem: 1198 33<592.896 611.98>
LayerCount: 2
Fore
SplineSet
324 1524 m 2,0,-1
 201 1524 l 1,1,-1
 281 1384 l 2,2,3
 388 1198 388 1198 557 1198 c 0,4,5
 580 1198 580 1198 606.5 1211.5 c 128,-1,6
 633 1225 633 1225 633 1231 c 1,7,8
 581 1247 581 1247 542 1283.5 c 128,-1,9
 503 1320 503 1320 481 1360 c 128,-1,10
 459 1400 459 1400 438.5 1437.5 c 128,-1,11
 418 1475 418 1475 390 1499.5 c 128,-1,12
 362 1524 362 1524 324 1524 c 2,0,-1
EndSplineSet
Validated: 9
EndChar

StartChar: acute
Encoding: 180 180 127
Width: 829
GlyphClass: 2
Flags: W
HStem: 1198 326
VStem: 205 432
LayerCount: 2
Fore
SplineSet
515 1524 m 2,0,-1
 637 1524 l 1,1,-1
 558 1384 l 2,2,3
 449 1198 449 1198 281 1198 c 0,4,5
 258 1198 258 1198 231.5 1211.5 c 128,-1,6
 205 1225 205 1225 205 1231 c 1,7,8
 257 1247 257 1247 296.5 1283.5 c 128,-1,9
 336 1320 336 1320 358 1360 c 128,-1,10
 380 1400 380 1400 400.5 1437.5 c 128,-1,11
 421 1475 421 1475 449 1499.5 c 128,-1,12
 477 1524 477 1524 515 1524 c 2,0,-1
EndSplineSet
Validated: 1
EndChar

StartChar: circumflex
Encoding: 710 710 128
Width: 1050
GlyphClass: 2
Flags: W
HStem: 1198 326
VStem: 205 643
LayerCount: 2
Fore
SplineSet
535 1524 m 1,0,-1
 551 1524 l 2,1,2
 580 1524 580 1524 618 1481.5 c 128,-1,3
 656 1439 656 1439 688 1387 c 128,-1,4
 720 1335 720 1335 764 1287.5 c 128,-1,5
 808 1240 808 1240 848 1231 c 1,6,7
 848 1225 848 1225 821.5 1211.5 c 128,-1,8
 795 1198 795 1198 772 1198 c 0,9,10
 731 1198 731 1198 702 1204.5 c 128,-1,11
 673 1211 673 1211 649.5 1228.5 c 128,-1,12
 626 1246 626 1246 610.5 1264.5 c 128,-1,13
 595 1283 595 1283 570 1319 c 0,14,15
 553 1341 553 1341 540 1386 c 2,16,-1
 527 1432 l 1,17,-1
 513 1386 l 2,18,19
 498 1341 498 1341 482 1319 c 0,20,21
 443 1259 443 1259 400 1228.5 c 128,-1,22
 357 1198 357 1198 281 1198 c 0,23,24
 258 1198 258 1198 231.5 1211.5 c 128,-1,25
 205 1225 205 1225 205 1231 c 1,26,27
 238 1238 238 1238 274 1271 c 128,-1,28
 310 1304 310 1304 340.5 1345.5 c 128,-1,29
 371 1387 371 1387 400 1428 c 128,-1,30
 429 1469 429 1469 455.5 1496.5 c 128,-1,31
 482 1524 482 1524 502 1524 c 2,32,-1
 535 1524 l 1,0,-1
EndSplineSet
Validated: 1
EndChar

StartChar: tilde
Encoding: 732 732 129
Width: 1137
GlyphClass: 2
Flags: W
LayerCount: 2
Fore
SplineSet
230 1282 m 1,0,1
 304 1337 304 1337 359 1333 c 0,2,3
 393 1331 393 1331 484.5 1299.5 c 128,-1,4
 576 1268 576 1268 644 1264 c 0,5,6
 743 1257 743 1257 820 1298.5 c 128,-1,7
 897 1340 897 1340 916 1427 c 1,8,9
 830 1368 830 1368 765 1372 c 0,10,11
 729 1376 729 1376 634.5 1406.5 c 128,-1,12
 540 1437 540 1437 488 1440 c 0,13,14
 427 1444 427 1444 374.5 1430.5 c 128,-1,15
 322 1417 322 1417 281.5 1379 c 128,-1,16
 241 1341 241 1341 230 1282 c 1,0,1
EndSplineSet
Validated: 41
EndChar

StartChar: macron
Encoding: 175 175 130
Width: 969
GlyphClass: 2
Flags: W
HStem: 1266 123<239.286 695.293>
VStem: 239 506
LayerCount: 2
Fore
SplineSet
239 1266 m 1,0,-1
 239 1397 l 2,1,2
 239 1389 239 1389 461 1389 c 0,3,4
 535 1389 535 1389 593.5 1389 c 128,-1,5
 652 1389 652 1389 693 1392.5 c 128,-1,6
 734 1396 734 1396 745 1405 c 1,7,8
 740 1374 740 1374 727.5 1350.5 c 128,-1,9
 715 1327 715 1327 697.5 1312.5 c 128,-1,10
 680 1298 680 1298 657.5 1288 c 128,-1,11
 635 1278 635 1278 609.5 1274 c 128,-1,12
 584 1270 584 1270 556 1267.5 c 128,-1,13
 528 1265 528 1265 499.5 1266 c 128,-1,14
 471 1267 471 1267 442 1266 c 0,15,16
 415 1266 415 1266 352 1267 c 128,-1,17
 289 1268 289 1268 276 1268 c 0,18,19
 248 1268 248 1268 239 1266 c 1,0,-1
EndSplineSet
Validated: 1
EndChar

StartChar: breve
Encoding: 728 728 131
Width: 927
GlyphClass: 2
Flags: W
HStem: 1186 102<374.372 566.589>
VStem: 219 500<1310 1479>
LayerCount: 2
Fore
SplineSet
471 1288 m 0,0,1
 503 1288 503 1288 534 1307.5 c 128,-1,2
 565 1327 565 1327 588.5 1357 c 128,-1,3
 612 1387 612 1387 633 1425 c 128,-1,4
 654 1463 654 1463 667.5 1496.5 c 128,-1,5
 681 1530 681 1530 690 1561 c 1,6,7
 719 1486 719 1486 719 1421 c 0,8,9
 719 1310 719 1310 643.5 1248 c 128,-1,10
 568 1186 568 1186 465 1186 c 0,11,12
 365 1186 365 1186 292 1245 c 128,-1,13
 219 1304 219 1304 219 1411 c 0,14,15
 219 1479 219 1479 252 1559 c 1,16,17
 263 1519 263 1519 282 1476.5 c 128,-1,18
 301 1434 301 1434 328.5 1389.5 c 128,-1,19
 356 1345 356 1345 393.5 1316.5 c 128,-1,20
 431 1288 431 1288 471 1288 c 0,0,1
EndSplineSet
Validated: 1
EndChar

StartChar: dotaccent
Encoding: 729 729 132
Width: 651
GlyphClass: 2
Flags: W
HStem: 1212 220<253.519 405.997>
VStem: 220 219<1245.52 1399>
LayerCount: 2
Fore
SplineSet
439 1323 m 0,0,1
 439 1277 439 1277 407 1244.5 c 128,-1,2
 375 1212 375 1212 331 1212 c 0,3,4
 285 1212 285 1212 252.5 1244.5 c 128,-1,5
 220 1277 220 1277 220 1323 c 0,6,7
 220 1368 220 1368 252.5 1400 c 128,-1,8
 285 1432 285 1432 331 1432 c 0,9,10
 375 1432 375 1432 407 1399.5 c 128,-1,11
 439 1367 439 1367 439 1323 c 0,0,1
EndSplineSet
Validated: 1
EndChar

StartChar: dieresis
Encoding: 168 168 133
Width: 1016
GlyphClass: 2
Flags: W
HStem: 1200 225<252.456 395.06 629.456 772.06>
VStem: 221 205<1234.03 1404.86> 598 205<1234.03 1390.97>
LayerCount: 2
Fore
SplineSet
426 1313 m 0,0,1
 426 1266 426 1266 396 1233 c 128,-1,2
 366 1200 366 1200 324 1200 c 128,-1,3
 282 1200 282 1200 251.5 1233 c 128,-1,4
 221 1266 221 1266 221 1313 c 0,5,6
 221 1359 221 1359 252 1392 c 128,-1,7
 283 1425 283 1425 324 1425 c 128,-1,8
 365 1425 365 1425 395.5 1392 c 128,-1,9
 426 1359 426 1359 426 1313 c 0,0,1
803 1313 m 0,10,11
 803 1266 803 1266 773 1233 c 128,-1,12
 743 1200 743 1200 701 1200 c 128,-1,13
 659 1200 659 1200 628.5 1232.5 c 128,-1,14
 598 1265 598 1265 598 1313 c 0,15,16
 598 1359 598 1359 628.5 1392 c 128,-1,17
 659 1425 659 1425 701 1425 c 0,18,19
 742 1425 742 1425 772.5 1392 c 128,-1,20
 803 1359 803 1359 803 1313 c 0,10,11
EndSplineSet
Validated: 1
EndChar

StartChar: ring
Encoding: 730 730 134
Width: 788
GlyphClass: 2
Flags: W
HStem: 1178 57<338.164 465.274> 1475 57<327.567 458.359>
VStem: 220 82<1265.74 1454.42> 494 84<1257.34 1446.26>
LayerCount: 2
Fore
SplineSet
419 1532 m 0,0,1
 334 1532 334 1532 277 1480.5 c 128,-1,2
 220 1429 220 1429 220 1348 c 0,3,4
 220 1268 220 1268 266.5 1223 c 128,-1,5
 313 1178 313 1178 376 1178 c 0,6,7
 461 1178 461 1178 519.5 1231 c 128,-1,8
 578 1284 578 1284 578 1364 c 0,9,10
 578 1440 578 1440 531 1486 c 128,-1,11
 484 1532 484 1532 419 1532 c 0,0,1
402 1235 m 0,12,13
 361 1235 361 1235 331.5 1270.5 c 128,-1,14
 302 1306 302 1306 302 1370 c 0,15,16
 302 1424 302 1424 328.5 1449.5 c 128,-1,17
 355 1475 355 1475 392 1475 c 0,18,19
 435 1475 435 1475 464.5 1441 c 128,-1,20
 494 1407 494 1407 494 1343 c 0,21,22
 494 1289 494 1289 466 1262 c 128,-1,23
 438 1235 438 1235 402 1235 c 0,12,13
EndSplineSet
Validated: 9
EndChar

StartChar: cedilla
Encoding: 184 184 135
Width: 817
GlyphClass: 2
Flags: W
HStem: -481 106<242.136 453.37>
VStem: 294 106<-145 -37.0061> 476 125<-355.987 -242.376>
LayerCount: 2
Fore
SplineSet
372 -14 m 1,0,-1
 415 -12 l 1,1,2
 400 -41 400 -41 400 -72 c 0,3,4
 400 -88 400 -88 420.5 -98.5 c 128,-1,5
 441 -109 441 -109 471 -117.5 c 128,-1,6
 501 -126 501 -126 530.5 -139 c 128,-1,7
 560 -152 560 -152 580.5 -180.5 c 128,-1,8
 601 -209 601 -209 601 -252 c 0,9,10
 601 -346 601 -346 532.5 -413.5 c 128,-1,11
 464 -481 464 -481 368 -481 c 0,12,13
 295 -481 295 -481 251.5 -453 c 128,-1,14
 208 -425 208 -425 208 -377 c 0,15,16
 208 -353 208 -353 216 -332 c 1,17,18
 261 -375 261 -375 361 -375 c 0,19,20
 410 -375 410 -375 443 -353.5 c 128,-1,21
 476 -332 476 -332 476 -297 c 0,22,23
 476 -271 476 -271 447.5 -252 c 128,-1,24
 419 -233 419 -233 385 -222.5 c 128,-1,25
 351 -212 351 -212 322.5 -187.5 c 128,-1,26
 294 -163 294 -163 294 -127 c 0,27,28
 294 -57 294 -57 372 -14 c 1,0,-1
EndSplineSet
Validated: 1
EndChar

StartChar: emdash
Encoding: 8212 8212 139
Width: 1733
GlyphClass: 2
Flags: W
HStem: 438 123<766.307 1460.17>
LayerCount: 2
Fore
SplineSet
227 438 m 1,0,-1
 227 569 l 2,1,2
 227 561 227 561 1227 561 c 0,3,4
 1281 561 1281 561 1329 561 c 128,-1,5
 1377 561 1377 561 1414 562 c 128,-1,6
 1451 563 1451 563 1476.5 567 c 128,-1,7
 1502 571 1502 571 1511 578 c 1,8,9
 1506 547 1506 547 1493.5 523.5 c 128,-1,10
 1481 500 1481 500 1463.5 485.5 c 128,-1,11
 1446 471 1446 471 1423.5 461 c 128,-1,12
 1401 451 1401 451 1375.5 446.5 c 128,-1,13
 1350 442 1350 442 1322 439.5 c 128,-1,14
 1294 437 1294 437 1265.5 438 c 128,-1,15
 1237 439 1237 439 1208 438 c 0,16,17
 1181 438 1181 438 729 439 c 128,-1,18
 277 440 277 440 264 440 c 0,19,20
 235 440 235 440 227 438 c 1,0,-1
EndSplineSet
Validated: 1
EndChar

StartChar: AE
Encoding: 198 198 140
Width: 1775
GlyphClass: 2
Flags: W
HStem: 0 129<1126.27 1576.86> 471 98<586 920> 621 124<1123 1505.74> 1245 103<1137 1464.3>
VStem: 920 201<129.249 471 569 621 745 1237.4>
LayerCount: 2
Fore
SplineSet
777 1348 m 1,0,-1
 1188 1348 l 1,1,-1
 1538 1354 l 1,2,3
 1561 1330 1561 1330 1572 1278.5 c 128,-1,4
 1583 1227 1583 1227 1580 1182.5 c 128,-1,5
 1577 1138 1577 1138 1565 1126 c 1,6,-1
 1526 1126 l 1,7,8
 1517 1173 1517 1173 1457 1204.5 c 128,-1,9
 1397 1236 1397 1236 1311 1239 c 2,10,-1
 1137 1245 l 1,11,12
 1123 1002 1123 1002 1123 745 c 1,13,-1
 1444 745 l 2,14,15
 1472 745 1472 745 1491 751.5 c 128,-1,16
 1510 758 1510 758 1515 765 c 2,17,-1
 1520 772 l 2,18,19
 1524 772 1524 772 1524 731 c 0,20,21
 1524 707 1524 707 1517 688.5 c 128,-1,22
 1510 670 1510 670 1500.5 658.5 c 128,-1,23
 1491 647 1491 647 1473 638.5 c 128,-1,24
 1455 630 1455 630 1442.5 626 c 128,-1,25
 1430 622 1430 622 1406.5 620 c 128,-1,26
 1383 618 1383 618 1373 618 c 128,-1,27
 1363 618 1363 618 1340 618 c 0,28,29
 1338 618 1338 618 1289.5 619 c 128,-1,30
 1241 620 1241 620 1198.5 621 c 128,-1,31
 1156 622 1156 622 1121 621 c 1,32,33
 1119 419 1119 419 1127 141 c 0,34,35
 1127 137 1127 137 1131 129 c 1,36,-1
 1520 129 l 2,37,38
 1548 129 1548 129 1567 135.5 c 128,-1,39
 1586 142 1586 142 1591 149 c 2,40,-1
 1596 156 l 2,41,42
 1600 156 1600 156 1600 115 c 0,43,44
 1600 82 1600 82 1586.5 59 c 128,-1,45
 1573 36 1573 36 1556.5 24.5 c 128,-1,46
 1540 13 1540 13 1510.5 7.5 c 128,-1,47
 1481 2 1481 2 1463.5 1 c 128,-1,48
 1446 0 1446 0 1416 0 c 2,49,-1
 918 0 l 1,50,51
 920 35 920 35 920 96 c 2,52,-1
 920 471 l 1,53,-1
 537 471 l 1,54,-1
 320 41 l 2,55,56
 317 36 317 36 314.5 27 c 128,-1,57
 312 18 312 18 310.5 10 c 128,-1,58
 309 2 309 2 308 0 c 2,59,-1
 148 0 l 1,60,-1
 777 1202 l 1,61,62
 787 1230 787 1230 787 1250.5 c 128,-1,63
 787 1271 787 1271 781.5 1283.5 c 128,-1,64
 776 1296 776 1296 762 1317 c 1,65,-1
 777 1348 l 1,0,-1
922 1260 m 1,66,-1
 881 1151 l 1,67,-1
 586 569 l 1,68,-1
 920 569 l 1,69,-1
 920 1090 l 2,70,71
 920 1217 920 1217 922 1260 c 1,66,-1
EndSplineSet
Validated: 33
EndChar

StartChar: Oslash
Encoding: 216 216 143
Width: 1677
GlyphClass: 2
Flags: W
HStem: -31 125<709.434 996.726> 1243 129<679.205 972.768>
VStem: 250 222<424.456 917.558> 1225 211<430.071 911.18>
LayerCount: 2
Fore
SplineSet
164 74 m 1,0,-1
 234 2 l 1,1,-1
 384 158 l 1,2,3
 453 64 453 64 550.5 16.5 c 128,-1,4
 648 -31 648 -31 760 -31 c 0,5,6
 957 -31 957 -31 1111.5 66.5 c 128,-1,7
 1266 164 1266 164 1349.5 329.5 c 128,-1,8
 1433 495 1433 495 1436 698 c 0,9,10
 1436 957 1436 957 1342 1118 c 1,11,12
 1360 1134 1360 1134 1392.5 1163.5 c 128,-1,13
 1425 1193 1425 1193 1440.5 1207.5 c 128,-1,14
 1456 1222 1456 1222 1475 1242.5 c 128,-1,15
 1494 1263 1494 1263 1502 1278 c 128,-1,16
 1510 1293 1510 1293 1510 1307 c 0,17,18
 1510 1323 1510 1323 1495.5 1337 c 128,-1,19
 1481 1351 1481 1351 1446 1372 c 1,20,21
 1362 1272 1362 1272 1289 1196 c 1,22,23
 1219 1283 1219 1283 1122.5 1327.5 c 128,-1,24
 1026 1372 1026 1372 914 1372 c 0,25,26
 624 1372 624 1372 440.5 1171 c 128,-1,27
 257 970 257 970 250 651 c 1,28,29
 250 404 250 404 332 240 c 1,30,-1
 164 74 l 1,0,-1
1225 602 m 0,31,32
 1223 492 1223 492 1189.5 395.5 c 128,-1,33
 1156 299 1156 299 1103.5 234 c 128,-1,34
 1051 169 1051 169 986.5 131.5 c 128,-1,35
 922 94 922 94 857 94 c 0,36,37
 763 94 763 94 682.5 157.5 c 128,-1,38
 602 221 602 221 549 332 c 1,39,-1
 1166 950 l 1,40,41
 1225 812 1225 812 1225 602 c 0,31,32
517 420 m 1,42,43
 472 553 472 553 472 713 c 0,44,45
 472 937 472 937 573.5 1090 c 128,-1,46
 675 1243 675 1243 818 1243 c 0,47,48
 916 1243 916 1243 989.5 1188 c 128,-1,49
 1063 1133 1063 1133 1125 1032 c 1,50,-1
 517 420 l 1,42,43
EndSplineSet
Validated: 9
EndChar

StartChar: OE
Encoding: 338 338 144
Width: 1859
GlyphClass: 2
Flags: W
HStem: 0 129<1210.3 1660.89> 0 109<705.135 1000.03> 621 124<1207.03 1589.76> 1239 109<619.752 993.872 1221.03 1558.53>
VStem: 172.028 224<464.689 908.24> 1000.03 211<129.249 614.669 745 1237.27>
LayerCount: 2
Fore
SplineSet
895.028320312 109 m 2,0,-1
 1000.02832031 109 l 1,1,-1
 1000.02832031 139 l 1,2,-1
 1000.02832031 1090 l 2,3,4
 1000.02832031 1184 1000.02832031 1184 985.028320312 1239 c 1,5,-1
 768.028320312 1239 l 2,6,7
 700.028320312 1239 700.028320312 1239 634.028320312 1203 c 128,-1,8
 568.028320312 1167 568.028320312 1167 515.528320312 1103.5 c 128,-1,9
 463.028320312 1040 463.028320312 1040 430.028320312 944.5 c 128,-1,10
 397.028320312 849 397.028320312 849 396.028320312 739 c 0,11,12
 392.028320312 564 392.028320312 564 459.028320312 418.5 c 128,-1,13
 526.028320312 273 526.028320312 273 642.028320312 191 c 128,-1,14
 758.028320312 109 758.028320312 109 895.028320312 109 c 2,0,-1
1500.02832031 0 m 2,15,-1
 801.028320312 0 l 2,16,17
 702.028320312 0 702.028320312 0 611.028320312 24 c 128,-1,18
 520.028320312 48 520.028320312 48 439.028320312 99.5 c 128,-1,19
 358.028320312 151 358.028320312 151 298.528320312 225 c 128,-1,20
 239.028320312 299 239.028320312 299 205.028320312 406 c 128,-1,21
 171.028320312 513 171.028320312 513 172.028320312 641 c 0,22,23
 178.028320312 842 178.028320312 842 252.528320312 1001 c 128,-1,24
 327.028320312 1160 327.028320312 1160 467.528320312 1254 c 128,-1,25
 608.028320312 1348 608.028320312 1348 793.028320312 1348 c 2,26,-1
 1272.02832031 1348 l 1,27,-1
 1622.02832031 1354 l 1,28,29
 1645.02832031 1330 1645.02832031 1330 1656.02832031 1278.5 c 128,-1,30
 1667.02832031 1227 1667.02832031 1227 1664.02832031 1182.5 c 128,-1,31
 1661.02832031 1138 1661.02832031 1138 1649.02832031 1126 c 1,32,-1
 1610.02832031 1126 l 1,33,34
 1601.02832031 1173 1601.02832031 1173 1541.02832031 1204.5 c 128,-1,35
 1481.02832031 1236 1481.02832031 1236 1395.02832031 1239 c 2,36,-1
 1221.02832031 1245 l 1,37,38
 1207.02832031 1002 1207.02832031 1002 1207.02832031 745 c 1,39,-1
 1528.02832031 745 l 2,40,41
 1556.02832031 745 1556.02832031 745 1575.02832031 751.5 c 128,-1,42
 1594.02832031 758 1594.02832031 758 1599.02832031 765 c 2,43,-1
 1604.02832031 772 l 2,44,45
 1608.02832031 772 1608.02832031 772 1608.02832031 731 c 0,46,47
 1608.02832031 707 1608.02832031 707 1601.02832031 688.5 c 128,-1,48
 1594.02832031 670 1594.02832031 670 1584.52832031 658.5 c 128,-1,49
 1575.02832031 647 1575.02832031 647 1557.02832031 638.5 c 128,-1,50
 1539.02832031 630 1539.02832031 630 1526.52832031 626 c 128,-1,51
 1514.02832031 622 1514.02832031 622 1490.52832031 620 c 128,-1,52
 1467.02832031 618 1467.02832031 618 1457.02832031 618 c 128,-1,53
 1447.02832031 618 1447.02832031 618 1424.02832031 618 c 0,54,55
 1422.02832031 618 1422.02832031 618 1373.52832031 619 c 128,-1,56
 1325.02832031 620 1325.02832031 620 1282.52832031 621 c 128,-1,57
 1240.02832031 622 1240.02832031 622 1205.02832031 621 c 1,58,59
 1203.02832031 419 1203.02832031 419 1211.02832031 141 c 0,60,61
 1211.02832031 137 1211.02832031 137 1215.02832031 129 c 1,62,-1
 1604.02832031 129 l 2,63,64
 1632.02832031 129 1632.02832031 129 1651.02832031 135.5 c 128,-1,65
 1670.02832031 142 1670.02832031 142 1675.02832031 149 c 2,66,-1
 1680.02832031 156 l 2,67,68
 1684.02832031 156 1684.02832031 156 1684.02832031 115 c 0,69,70
 1684.02832031 82 1684.02832031 82 1670.52832031 59 c 128,-1,71
 1657.02832031 36 1657.02832031 36 1640.52832031 24.5 c 128,-1,72
 1624.02832031 13 1624.02832031 13 1594.52832031 7.5 c 128,-1,73
 1565.02832031 2 1565.02832031 2 1547.52832031 1 c 128,-1,74
 1530.02832031 0 1530.02832031 0 1500.02832031 0 c 2,15,-1
EndSplineSet
Validated: 524321
EndChar

StartChar: ae
Encoding: 230 230 146
Width: 1608
GlyphClass: 2
Flags: W
HStem: 0 113<1015.17 1397.09> 367 88<537 826> 461.5 111.5<1012 1335.3> 989 94<1023.38 1336.01>
VStem: 826 186<113.125 367 455 463 573 988.992>
LayerCount: 2
Fore
SplineSet
691 1081 m 1,0,-1
 1082 1083 l 1,1,-1
 1385 1090 l 1,2,3
 1405 1071 1405 1071 1414 1026.5 c 128,-1,4
 1423 982 1423 982 1420.5 943 c 128,-1,5
 1418 904 1418 904 1408 895 c 1,6,-1
 1375 895 l 1,7,8
 1366 932 1366 932 1314 957 c 128,-1,9
 1262 982 1262 982 1189 985 c 2,10,-1
 1060 989 l 2,11,12
 1035 989 1035 989 1023 987 c 1,13,14
 1024 966 1024 966 1018.5 801 c 128,-1,15
 1013 636 1013 636 1012 573 c 1,16,-1
 1281 573 l 2,17,18
 1305 573 1305 573 1322 578.5 c 128,-1,19
 1339 584 1339 584 1344 590 c 2,20,-1
 1348 596 l 2,21,22
 1350 596 1350 596 1350 563 c 0,23,24
 1350 536 1350 536 1341.5 517 c 128,-1,25
 1333 498 1333 498 1313 487 c 128,-1,26
 1293 476 1293 476 1273.5 469.5 c 128,-1,27
 1254 463 1254 463 1218.5 461.5 c 128,-1,28
 1183 460 1183 460 1157 460 c 128,-1,29
 1131 460 1131 460 1085.5 461.5 c 128,-1,30
 1040 463 1040 463 1012 463 c 1,31,-1
 1012 356 l 2,32,33
 1012 283 1012 283 1016 123 c 0,34,35
 1016 117 1016 117 1019 113 c 1,36,-1
 1348 113 l 2,37,38
 1372 113 1372 113 1388 118.5 c 128,-1,39
 1404 124 1404 124 1408 130 c 2,40,-1
 1412 135 l 2,41,42
 1416 135 1416 135 1416 102 c 0,43,44
 1416 0 1416 0 1256 0 c 2,45,-1
 826 0 l 1,46,-1
 826 78 l 1,47,-1
 826 367 l 1,48,-1
 490 367 l 1,49,-1
 308 33 l 2,50,51
 304 27 304 27 301 14 c 128,-1,52
 298 1 298 1 298 0 c 2,53,-1
 150 0 l 1,54,-1
 691 963 l 1,55,56
 703 999 703 999 700.5 1015 c 128,-1,57
 698 1031 698 1031 681 1053 c 1,58,-1
 691 1081 l 1,0,-1
828 1008 m 1,59,-1
 793 922 l 1,60,-1
 537 455 l 1,61,-1
 826 455 l 1,62,-1
 826 872 l 2,63,64
 826 973 826 973 828 1008 c 1,59,-1
EndSplineSet
Validated: 33
EndChar

StartChar: dotlessi
Encoding: 305 305 147
Width: 666
GlyphClass: 2
Flags: W
HStem: 0 21G<249 452> 0 21G<249 452> 1084 20G<296.5 347.5>
VStem: 249 195<0 527.563 717.785 984.258>
LayerCount: 2
Fore
SplineSet
452 0 m 2,0,-1
 249 0 l 1,1,-1
 249 27 l 2,2,3
 252 346 252 346 250 610 c 2,4,-1
 249 874 l 2,5,6
 249 946 249 946 226.5 985.5 c 128,-1,7
 204 1025 204 1025 163 1030 c 1,8,-1
 163 1061 l 1,9,-1
 181 1072 l 2,10,11
 199 1082 199 1082 237.5 1093 c 128,-1,12
 276 1104 276 1104 317 1104 c 0,13,14
 378 1104 378 1104 408 1073 c 128,-1,15
 438 1042 438 1042 444 980 c 128,-1,16
 450 918 450 918 444 825 c 0,17,18
 424 560 424 560 444 72 c 0,19,20
 444 55 444 55 448 28 c 128,-1,21
 452 1 452 1 452 0 c 2,0,-1
EndSplineSet
Validated: 33
EndChar

StartChar: oslash
Encoding: 248 248 148
Width: 1446
GlyphClass: 2
Flags: W
HStem: -25 101<619.378 890.788> 995 103<590.802 869.696>
VStem: 235 198<363.836 764.02> 1066 193<331.816 748.629>
LayerCount: 2
Fore
SplineSet
239 2 m 1,0,-1
 343 115 l 1,1,-1
 351 123 l 1,2,3
 475 -25 475 -25 673 -25 c 0,4,5
 845 -25 845 -25 978 53 c 128,-1,6
 1111 131 1111 131 1182.5 263 c 128,-1,7
 1254 395 1254 395 1259 559 c 1,8,9
 1259 790 1259 790 1152 928 c 1,10,11
 1161 937 1161 937 1185 959.5 c 128,-1,12
 1209 982 1209 982 1217 991.5 c 128,-1,13
 1225 1001 1225 1001 1235.5 1017 c 128,-1,14
 1246 1033 1246 1033 1243 1046 c 128,-1,15
 1240 1059 1240 1059 1226 1073 c 0,16,17
 1216 1083 1216 1083 1179 1106 c 1,18,19
 1150 1073 1150 1073 1089 997 c 1,20,21
 973 1098 973 1098 802 1098 c 0,22,23
 550 1098 550 1098 392.5 936.5 c 128,-1,24
 235 775 235 775 235 520 c 0,25,26
 235 333 235 333 300 203 c 1,27,-1
 169 74 l 1,28,-1
 239 2 l 1,0,-1
757 76 m 0,29,30
 676 76 676 76 609.5 127.5 c 128,-1,31
 543 179 543 179 499 270 c 1,32,-1
 1007 784 l 1,33,34
 1066 658 1066 658 1066 504 c 0,35,36
 1066 323 1066 323 971.5 199.5 c 128,-1,37
 877 76 877 76 757 76 c 0,29,30
724 995 m 0,38,39
 862 995 862 995 960 862 c 1,40,-1
 462 362 l 1,41,42
 433 472 433 472 433 584 c 0,43,44
 433 760 433 760 517 877.5 c 128,-1,45
 601 995 601 995 724 995 c 0,38,39
EndSplineSet
Validated: 9
EndChar

StartChar: oe
Encoding: 339 339 149
Width: 1665
GlyphClass: 2
Flags: W
HStem: 0 113<1066.08 1452.42> 0 96<603.533 883.085> 494 112<1059.08 1387.42> 981 104<546.092 879.496 1070.08 1406.24>
VStem: 169.085 202<352.352 752.505> 883.085 183<113 494 606 979.711>
LayerCount: 2
Fore
SplineSet
705.084960938 1085 m 2,0,-1
 1139.08496094 1085 l 1,1,-1
 1442.08496094 1092 l 1,2,3
 1462.08496094 1073 1462.08496094 1073 1471.08496094 1028.5 c 128,-1,4
 1480.08496094 984 1480.08496094 984 1477.58496094 945 c 128,-1,5
 1475.08496094 906 1475.08496094 906 1465.08496094 897 c 1,6,-1
 1432.08496094 897 l 1,7,8
 1423.08496094 934 1423.08496094 934 1371.08496094 959 c 128,-1,9
 1319.08496094 984 1319.08496094 984 1246.08496094 987 c 2,10,-1
 1107.08496094 991 l 2,11,12
 1082.08496094 991 1082.08496094 991 1070.08496094 989 c 1,13,-1
 1068.08496094 813 l 2,14,15
 1065.08496094 692 1065.08496094 692 1059.08496094 606 c 1,16,-1
 1340.08496094 606 l 2,17,18
 1363.08496094 606 1363.08496094 606 1378.58496094 612 c 128,-1,19
 1394.08496094 618 1394.08496094 618 1398.08496094 624 c 2,20,-1
 1403.08496094 629 l 1,21,-1
 1406.08496094 618 l 2,22,23
 1408.08496094 607 1408.08496094 607 1408.08496094 596 c 0,24,25
 1408.08496094 496 1408.08496094 496 1248.08496094 496 c 0,26,27
 1107.08496094 496 1107.08496094 496 1059.08496094 494 c 1,28,29
 1056.08496094 277 1056.08496094 277 1066.08496094 123 c 1,30,-1
 1066.08496094 113 l 1,31,-1
 1403.08496094 113 l 2,32,33
 1428.08496094 113 1428.08496094 113 1444.58496094 118.5 c 128,-1,34
 1461.08496094 124 1461.08496094 124 1465.08496094 130 c 2,35,-1
 1469.08496094 135 l 2,36,37
 1471.08496094 135 1471.08496094 135 1471.08496094 102 c 0,38,39
 1471.08496094 0 1471.08496094 0 1313.08496094 0 c 2,40,-1
 711.084960938 0 l 2,41,42
 604.084960938 0 604.084960938 0 507.584960938 33 c 128,-1,43
 411.084960938 66 411.084960938 66 334.084960938 128.5 c 128,-1,44
 257.084960938 191 257.084960938 191 212.084960938 293 c 128,-1,45
 167.084960938 395 167.084960938 395 169.084960938 522 c 0,46,47
 174.084960938 683 174.084960938 683 238.584960938 809.5 c 128,-1,48
 303.084960938 936 303.084960938 936 424.084960938 1010.5 c 128,-1,49
 545.084960938 1085 545.084960938 1085 705.084960938 1085 c 2,0,-1
793.084960938 96 m 2,50,-1
 883.084960938 96 l 1,51,-1
 883.084960938 121 l 1,52,-1
 883.084960938 866 l 2,53,54
 883.084960938 940 883.084960938 940 871.084960938 981 c 1,55,-1
 695.084960938 981 l 2,56,57
 568.084960938 981 568.084960938 981 471.084960938 873.5 c 128,-1,58
 374.084960938 766 374.084960938 766 371.084960938 592 c 0,59,60
 367.084960938 377 367.084960938 377 486.084960938 236.5 c 128,-1,61
 605.084960938 96 605.084960938 96 793.084960938 96 c 2,50,-1
EndSplineSet
Validated: 524321
EndChar

StartChar: germandbls
Encoding: 223 223 150
Width: 1889
GlyphClass: 2
Flags: W
HStem: -27 127<301.916 658.705 1137.61 1494.7> 1004 100<393.16 658.255 1228.66 1494.98>
VStem: 202 150<773.953 958.631> 702 180<144.168 341.321> 1038 149<774.524 958.631> 1538 180<144.168 341.321>
LayerCount: 2
Fore
SplineSet
493 -27 m 0,0,1
 379 -27 379 -27 291.5 23 c 128,-1,2
 204 73 204 73 204 137 c 0,3,4
 204 177 204 177 223 205 c 1,5,6
 234 169 234 169 319 134.5 c 128,-1,7
 404 100 404 100 487 100 c 0,8,9
 702 100 702 100 702 244 c 0,10,11
 702 284 702 284 674.5 321 c 128,-1,12
 647 358 647 358 603 388.5 c 128,-1,13
 559 419 559 419 505.5 451 c 128,-1,14
 452 483 452 483 398.5 519 c 128,-1,15
 345 555 345 555 301 595 c 128,-1,16
 257 635 257 635 229.5 690.5 c 128,-1,17
 202 746 202 746 202 809 c 0,18,19
 202 925 202 925 293 1014.5 c 128,-1,20
 384 1104 384 1104 536 1104 c 0,21,22
 602 1104 602 1104 663.5 1089.5 c 128,-1,23
 725 1075 725 1075 750.5 1063 c 128,-1,24
 776 1051 776 1051 815 1030 c 1,25,26
 827 1004 827 1004 820.5 936 c 128,-1,27
 814 868 814 868 784 840 c 1,28,-1
 749 846 l 1,29,30
 731 900 731 900 686.5 938 c 128,-1,31
 642 976 642 976 598.5 990 c 128,-1,32
 555 1004 555 1004 516 1004 c 0,33,34
 449 1004 449 1004 400.5 972.5 c 128,-1,35
 352 941 352 941 352 874 c 0,36,37
 352 831 352 831 381 792.5 c 128,-1,38
 410 754 410 754 457 723.5 c 128,-1,39
 504 693 504 693 560.5 662.5 c 128,-1,40
 617 632 617 632 673.5 596 c 128,-1,41
 730 560 730 560 777 519 c 128,-1,42
 824 478 824 478 853 419 c 128,-1,43
 882 360 882 360 882 291 c 0,44,45
 882 160 882 160 771.5 66.5 c 128,-1,46
 661 -27 661 -27 493 -27 c 0,0,1
1329 -27 m 0,47,48
 1215 -27 1215 -27 1127.5 23 c 128,-1,49
 1040 73 1040 73 1040 137 c 0,50,51
 1040 176 1040 176 1058 205 c 1,52,53
 1069 169 1069 169 1154.5 134.5 c 128,-1,54
 1240 100 1240 100 1323 100 c 0,55,56
 1538 100 1538 100 1538 244 c 0,57,58
 1538 284 1538 284 1510.5 321 c 128,-1,59
 1483 358 1483 358 1439 388.5 c 128,-1,60
 1395 419 1395 419 1341.5 451 c 128,-1,61
 1288 483 1288 483 1234.5 519 c 128,-1,62
 1181 555 1181 555 1137 595 c 128,-1,63
 1093 635 1093 635 1065.5 690.5 c 128,-1,64
 1038 746 1038 746 1038 809 c 0,65,66
 1038 925 1038 925 1129 1014.5 c 128,-1,67
 1220 1104 1220 1104 1372 1104 c 0,68,69
 1438 1104 1438 1104 1499 1089.5 c 128,-1,70
 1560 1075 1560 1075 1586.5 1063 c 128,-1,71
 1613 1051 1613 1051 1650 1030 c 1,72,73
 1657 1008 1657 1008 1658 973 c 128,-1,74
 1659 938 1659 938 1649.5 898.5 c 128,-1,75
 1640 859 1640 859 1619 840 c 1,76,-1
 1585 846 l 1,77,78
 1567 900 1567 900 1522.5 938 c 128,-1,79
 1478 976 1478 976 1434.5 990 c 128,-1,80
 1391 1004 1391 1004 1351 1004 c 0,81,82
 1284 1004 1284 1004 1235.5 972.5 c 128,-1,83
 1187 941 1187 941 1187 874 c 0,84,85
 1187 831 1187 831 1216.5 792.5 c 128,-1,86
 1246 754 1246 754 1292.5 723.5 c 128,-1,87
 1339 693 1339 693 1395.5 662.5 c 128,-1,88
 1452 632 1452 632 1509 596 c 128,-1,89
 1566 560 1566 560 1612.5 519 c 128,-1,90
 1659 478 1659 478 1688.5 419 c 128,-1,91
 1718 360 1718 360 1718 291 c 0,92,93
 1718 160 1718 160 1607.5 66.5 c 128,-1,94
 1497 -27 1497 -27 1329 -27 c 0,47,48
EndSplineSet
Validated: 33
EndChar

StartChar: Adieresis
Encoding: 196 196 155
Width: 1471
GlyphClass: 2
Flags: W
HStem: 0 21G<152 304.5 1089.5 1340> 0 21G<152 304.5 1089.5 1340> 471 98<500 906> 1375 20G<853 864.5> 1487 225<443.456 586.06 922.94 1065.06>
VStem: 412 205<1520.52 1691.55> 892 204<1520.52 1691.55>
LayerCount: 2
Fore
SplineSet
617 1599 m 0,0,1
 617 1552 617 1552 587 1519.5 c 128,-1,2
 557 1487 557 1487 515 1487 c 128,-1,3
 473 1487 473 1487 442.5 1519.5 c 128,-1,4
 412 1552 412 1552 412 1599 c 0,5,6
 412 1645 412 1645 442.5 1678.5 c 128,-1,7
 473 1712 473 1712 515 1712 c 0,8,9
 556 1712 556 1712 586.5 1678.5 c 128,-1,10
 617 1645 617 1645 617 1599 c 0,0,1
1096 1599 m 0,11,12
 1096 1552 1096 1552 1066 1519.5 c 128,-1,13
 1036 1487 1036 1487 994 1487 c 128,-1,14
 952 1487 952 1487 922 1519.5 c 128,-1,15
 892 1552 892 1552 892 1599 c 0,16,17
 892 1645 892 1645 922.5 1678.5 c 128,-1,18
 953 1712 953 1712 994 1712 c 128,-1,19
 1035 1712 1035 1712 1065.5 1678.5 c 128,-1,20
 1096 1645 1096 1645 1096 1599 c 0,11,12
859 1395 m 1,21,22
 870 1338 870 1338 908 1221 c 2,23,-1
 1268 164 l 1,24,25
 1293 77 1293 77 1340 0 c 1,26,-1
 1092 0 l 1,27,28
 1087 46 1087 46 1078 70 c 2,29,-1
 941 471 l 1,30,-1
 466 471 l 1,31,-1
 310 27 l 2,32,33
 308 20 308 20 306.5 11 c 128,-1,34
 305 2 305 2 304 0 c 2,35,-1
 152 0 l 1,36,-1
 617 1221 l 2,37,38
 629 1260 629 1260 648 1289.5 c 128,-1,39
 667 1319 667 1319 686 1335 c 128,-1,40
 705 1351 705 1351 731 1362.5 c 128,-1,41
 757 1374 757 1374 775 1378 c 128,-1,42
 793 1382 793 1382 820 1387 c 128,-1,43
 847 1392 847 1392 859 1395 c 1,21,22
906 569 m 1,44,-1
 707 1153 l 1,45,-1
 500 569 l 1,46,-1
 906 569 l 1,44,-1
EndSplineSet
Validated: 1
EndChar

StartChar: Ccedilla
Encoding: 199 199 157
Width: 1411
GlyphClass: 2
Flags: W
HStem: -481 106<649.878 861.268> -27 136<667.781 757 808.002 1041.78> 1249 123<631.059 973.995>
VStem: 175 236<440.221 926.16> 702 106<-145 -35.8551> 884 125<-355.987 -242.376> 1048 184<1077.7 1176.96>
LayerCount: 2
Fore
SplineSet
1208 309 m 1,0,1
 1230 262 1230 262 1230 223 c 0,2,3
 1230 118 1230 118 1109.5 49 c 128,-1,4
 989 -20 989 -20 816 -27 c 1,5,6
 808 -47 808 -47 808 -72 c 0,7,8
 808 -88 808 -88 828.5 -98.5 c 128,-1,9
 849 -109 849 -109 879 -117.5 c 128,-1,10
 909 -126 909 -126 938.5 -139 c 128,-1,11
 968 -152 968 -152 988.5 -180.5 c 128,-1,12
 1009 -209 1009 -209 1009 -252 c 0,13,14
 1009 -346 1009 -346 940.5 -413.5 c 128,-1,15
 872 -481 872 -481 775 -481 c 0,16,17
 702 -481 702 -481 659 -453 c 128,-1,18
 616 -425 616 -425 616 -377 c 0,19,20
 616 -353 616 -353 624 -332 c 1,21,22
 669 -375 669 -375 769 -375 c 0,23,24
 818 -375 818 -375 851 -353.5 c 128,-1,25
 884 -332 884 -332 884 -297 c 0,26,27
 884 -271 884 -271 855.5 -252 c 128,-1,28
 827 -233 827 -233 793 -222.5 c 128,-1,29
 759 -212 759 -212 730.5 -187.5 c 128,-1,30
 702 -163 702 -163 702 -127 c 0,31,32
 702 -69 702 -69 757 -27 c 1,33,34
 572 -22 572 -22 439.5 65.5 c 128,-1,35
 307 153 307 153 241 301.5 c 128,-1,36
 175 450 175 450 175 645 c 0,37,38
 175 856 175 856 259 1021.5 c 128,-1,39
 343 1187 343 1187 495 1279.5 c 128,-1,40
 647 1372 647 1372 841 1372 c 0,41,42
 932 1372 932 1372 1020 1347.5 c 128,-1,43
 1108 1323 1108 1323 1170 1272.5 c 128,-1,44
 1232 1222 1232 1222 1232 1157 c 0,45,46
 1232 1125 1232 1125 1203 1092 c 128,-1,47
 1174 1059 1174 1059 1126 1059 c 0,48,49
 1091 1059 1091 1059 1048 1081 c 1,50,51
 1047 1097 1047 1097 1040.5 1116 c 128,-1,52
 1034 1135 1034 1135 1017.5 1159.5 c 128,-1,53
 1001 1184 1001 1184 976.5 1203 c 128,-1,54
 952 1222 952 1222 910.5 1235.5 c 128,-1,55
 869 1249 869 1249 816 1249 c 0,56,57
 734 1249 734 1249 666 1221 c 128,-1,58
 598 1193 598 1193 551.5 1144.5 c 128,-1,59
 505 1096 505 1096 473 1029.5 c 128,-1,60
 441 963 441 963 426 888.5 c 128,-1,61
 411 814 411 814 411 733 c 0,62,63
 411 646 411 646 425.5 561 c 128,-1,64
 440 476 440 476 473 393.5 c 128,-1,65
 506 311 506 311 554.5 248.5 c 128,-1,66
 603 186 603 186 677.5 147.5 c 128,-1,67
 752 109 752 109 843 109 c 0,68,69
 887 109 887 109 936.5 119.5 c 128,-1,70
 986 130 986 130 1039 152 c 128,-1,71
 1092 174 1092 174 1138 214.5 c 128,-1,72
 1184 255 1184 255 1208 309 c 1,0,1
EndSplineSet
Validated: 1
EndChar

StartChar: Eacute
Encoding: 201 201 158
Width: 1095
GlyphClass: 2
Flags: W
HStem: 0 129<446.272 896.864> 621 124<443 826.122> 1245 103<457 784.301>
VStem: 240 203<129.249 614.669 745 1244.53>
LayerCount: 2
Fore
SplineSet
771 1737 m 2,0,-1
 922 1737 l 1,1,-1
 842 1638 l 2,2,3
 776 1557 776 1557 709.5 1518 c 128,-1,4
 643 1479 643 1479 543 1479 c 0,5,6
 488 1479 488 1479 457 1516 c 1,7,8
 501 1530 501 1530 536.5 1553 c 128,-1,9
 572 1576 572 1576 592.5 1599.5 c 128,-1,10
 613 1623 613 1623 633.5 1648.5 c 128,-1,11
 654 1674 654 1674 670.5 1693 c 128,-1,12
 687 1712 687 1712 713 1724.5 c 128,-1,13
 739 1737 739 1737 771 1737 c 2,0,-1
240 1085 m 2,14,15
 240 1142 240 1142 235 1184 c 128,-1,16
 230 1226 230 1226 222 1246.5 c 128,-1,17
 214 1267 214 1267 204.5 1285 c 128,-1,18
 195 1303 195 1303 187 1313 c 1,19,-1
 201 1348 l 1,20,-1
 508 1348 l 1,21,-1
 859 1354 l 1,22,23
 882 1330 882 1330 892.5 1278.5 c 128,-1,24
 903 1227 903 1227 900 1182.5 c 128,-1,25
 897 1138 897 1138 885 1126 c 1,26,-1
 846 1126 l 1,27,28
 837 1173 837 1173 777 1204.5 c 128,-1,29
 717 1236 717 1236 631 1239 c 2,30,-1
 457 1245 l 1,31,32
 443 1002 443 1002 443 745 c 1,33,-1
 764 745 l 2,34,35
 792 745 792 745 811 751.5 c 128,-1,36
 830 758 830 758 835 765 c 2,37,-1
 840 772 l 2,38,39
 844 772 844 772 844 731 c 0,40,41
 844 707 844 707 837 688.5 c 128,-1,42
 830 670 830 670 821 658.5 c 128,-1,43
 812 647 812 647 794 638.5 c 128,-1,44
 776 630 776 630 763.5 626 c 128,-1,45
 751 622 751 622 727.5 620 c 128,-1,46
 704 618 704 618 693.5 618 c 128,-1,47
 683 618 683 618 660 618 c 0,48,49
 658 618 658 618 609.5 619 c 128,-1,50
 561 620 561 620 518.5 621 c 128,-1,51
 476 622 476 622 441 621 c 1,52,53
 439 419 439 419 447 141 c 0,54,55
 447 137 447 137 451 129 c 1,56,-1
 840 129 l 2,57,58
 868 129 868 129 887 135.5 c 128,-1,59
 906 142 906 142 911 149 c 2,60,-1
 916 156 l 2,61,62
 920 156 920 156 920 115 c 0,63,64
 920 82 920 82 906.5 59 c 128,-1,65
 893 36 893 36 876.5 24.5 c 128,-1,66
 860 13 860 13 830.5 7.5 c 128,-1,67
 801 2 801 2 783.5 1 c 128,-1,68
 766 0 766 0 736 0 c 2,69,-1
 238 0 l 1,70,-1
 240 139 l 1,71,-1
 240 1085 l 2,14,15
EndSplineSet
Validated: 33
EndChar

StartChar: Ntilde
Encoding: 209 209 159
Width: 1578
GlyphClass: 2
Flags: W
HStem: 0 21G<238 386 1208.51 1338> 0 21G<238 386 1208.51 1338> 1501 121<809.124 1092.51> 1579 119<430.049 678.901>
VStem: 238 148<0 476.728> 241 124<167.109 1016.75> 1193 135<311.797 440> 1197 156<864.287 1304.72>
LayerCount: 2
Fore
SplineSet
331 1522 m 1,0,1
 362 1541 362 1541 374.5 1548.5 c 128,-1,2
 387 1556 387 1556 420.5 1567.5 c 128,-1,3
 454 1579 454 1579 484 1579 c 0,4,5
 526 1579 526 1579 590 1559.5 c 128,-1,6
 654 1540 654 1540 733 1520.5 c 128,-1,7
 812 1501 812 1501 892 1501 c 0,8,9
 1007 1501 1007 1501 1094.5 1546.5 c 128,-1,10
 1182 1592 1182 1592 1205 1681 c 1,11,12
 1173 1663 1173 1663 1154.5 1653.5 c 128,-1,13
 1136 1644 1136 1644 1098 1633 c 128,-1,14
 1060 1622 1060 1622 1025 1622 c 0,15,16
 970 1622 970 1622 833.5 1660 c 128,-1,17
 697 1698 697 1698 626 1698 c 0,18,19
 553 1698 553 1698 493 1680.5 c 128,-1,20
 433 1663 433 1663 388 1622.5 c 128,-1,21
 343 1582 343 1582 331 1522 c 1,0,1
1193 440 m 1,22,23
 1197 440 1197 440 1197 1094 c 0,24,25
 1197 1253 1197 1253 1144 1315 c 1,26,-1
 1158 1350 l 1,27,28
 1194 1374 1194 1374 1260 1374 c 0,29,30
 1323 1374 1323 1374 1353 1352 c 1,31,32
 1328 827 1328 827 1328 391 c 0,33,34
 1328 160 1328 160 1338 0 c 1,35,-1
 1226 0 l 1,36,-1
 447 891 l 1,37,-1
 409 943 l 2,38,39
 372 995 372 995 363 1018 c 1,40,41
 370 978 370 978 370 928 c 128,-1,42
 370 878 370 878 367.5 777 c 128,-1,43
 365 676 365 676 365 625 c 0,44,45
 365 169 365 169 386 0 c 1,46,-1
 238 0 l 1,47,-1
 238 33 l 2,48,49
 241 299 241 299 241 764 c 2,50,-1
 241 1094 l 2,51,52
 241 1177 241 1177 230 1224.5 c 128,-1,53
 219 1272 219 1272 187 1315 c 1,54,-1
 202 1350 l 1,55,56
 281 1382 281 1382 324 1370 c 1,57,-1
 1131 442 l 2,58,59
 1158 413 1158 413 1183 362 c 2,60,-1
 1207 311 l 1,61,-1
 1200 362 l 2,62,63
 1193 413 1193 413 1193 440 c 1,22,23
EndSplineSet
Validated: 41
EndChar

StartChar: Odieresis
Encoding: 214 214 160
Width: 1543
GlyphClass: 2
Flags: W
HStem: -27 123<648.892 931.164> 1245 127<601.635 888.505> 1487 225<446.94 589.544 926.456 1069.06>
VStem: 174 222<438.754 930.596> 416 205<1520.52 1691.55> 895 205<1520.52 1691.55> 1137 223<429.668 910.16>
LayerCount: 2
Fore
SplineSet
621 1599 m 0,0,1
 621 1552 621 1552 590.5 1519.5 c 128,-1,2
 560 1487 560 1487 518 1487 c 128,-1,3
 476 1487 476 1487 446 1519.5 c 128,-1,4
 416 1552 416 1552 416 1599 c 0,5,6
 416 1645 416 1645 446.5 1678.5 c 128,-1,7
 477 1712 477 1712 518 1712 c 0,8,9
 560 1712 560 1712 590.5 1678.5 c 128,-1,10
 621 1645 621 1645 621 1599 c 0,0,1
1100 1599 m 0,11,12
 1100 1552 1100 1552 1070 1519.5 c 128,-1,13
 1040 1487 1040 1487 998 1487 c 128,-1,14
 956 1487 956 1487 925.5 1519.5 c 128,-1,15
 895 1552 895 1552 895 1599 c 0,16,17
 895 1645 895 1645 925.5 1678.5 c 128,-1,18
 956 1712 956 1712 998 1712 c 0,19,20
 1039 1712 1039 1712 1069.5 1678.5 c 128,-1,21
 1100 1645 1100 1645 1100 1599 c 0,11,12
815 1372 m 0,22,23
 679 1372 679 1372 560 1318.5 c 128,-1,24
 441 1265 441 1265 356 1171 c 128,-1,25
 271 1077 271 1077 222.5 942 c 128,-1,26
 174 807 174 807 174 651 c 0,27,28
 174 522 174 522 203.5 410.5 c 128,-1,29
 233 299 233 299 283.5 220 c 128,-1,30
 334 141 334 141 401 84.5 c 128,-1,31
 468 28 468 28 542.5 0.5 c 128,-1,32
 617 -27 617 -27 695 -27 c 0,33,34
 893 -27 893 -27 1044 69.5 c 128,-1,35
 1195 166 1195 166 1275.5 330 c 128,-1,36
 1356 494 1356 494 1360 698 c 0,37,38
 1360 860 1360 860 1317 989.5 c 128,-1,39
 1274 1119 1274 1119 1199 1201.5 c 128,-1,40
 1124 1284 1124 1284 1026 1328 c 128,-1,41
 928 1372 928 1372 815 1372 c 0,22,23
793 96 m 0,42,43
 685 96 685 96 592.5 185 c 128,-1,44
 500 274 500 274 448 416.5 c 128,-1,45
 396 559 396 559 396 717 c 0,46,47
 396 861 396 861 441 982 c 128,-1,48
 486 1103 486 1103 566 1174 c 128,-1,49
 646 1245 646 1245 744 1245 c 0,50,51
 848 1245 848 1245 938.5 1162.5 c 128,-1,52
 1029 1080 1029 1080 1083 937.5 c 128,-1,53
 1137 795 1137 795 1137 629 c 0,54,55
 1137 484 1137 484 1092.5 362 c 128,-1,56
 1048 240 1048 240 968.5 168 c 128,-1,57
 889 96 889 96 793 96 c 0,42,43
EndSplineSet
Validated: 9
EndChar

StartChar: Udieresis
Encoding: 220 220 161
Width: 1480
GlyphClass: 2
Flags: W
HStem: -29 138<565.252 936.123> 1356 20G<299.5 356> 1487 225<446.94 589.544 925.94 1068.54>
VStem: 231 199<249.557 1286.4> 416 205<1520.52 1691.55> 895 205<1520.52 1691.55> 1112 156<861.88 1304.72>
LayerCount: 2
Fore
SplineSet
621 1599 m 0,0,1
 621 1552 621 1552 590.5 1519.5 c 128,-1,2
 560 1487 560 1487 518 1487 c 128,-1,3
 476 1487 476 1487 446 1519.5 c 128,-1,4
 416 1552 416 1552 416 1599 c 0,5,6
 416 1645 416 1645 446.5 1678.5 c 128,-1,7
 477 1712 477 1712 518 1712 c 0,8,9
 560 1712 560 1712 590.5 1678.5 c 128,-1,10
 621 1645 621 1645 621 1599 c 0,0,1
1100 1599 m 0,11,12
 1100 1552 1100 1552 1069.5 1519.5 c 128,-1,13
 1039 1487 1039 1487 997 1487 c 128,-1,14
 955 1487 955 1487 925 1519.5 c 128,-1,15
 895 1552 895 1552 895 1599 c 0,16,17
 895 1645 895 1645 925.5 1678.5 c 128,-1,18
 956 1712 956 1712 997 1712 c 0,19,20
 1039 1712 1039 1712 1069.5 1678.5 c 128,-1,21
 1100 1645 1100 1645 1100 1599 c 0,11,12
1247 444 m 0,22,23
 1247 239 1247 239 1107.5 105 c 128,-1,24
 968 -29 968 -29 725 -29 c 0,25,26
 636 -29 636 -29 566 -16.5 c 128,-1,27
 496 -4 496 -4 433.5 27.5 c 128,-1,28
 371 59 371 59 328.5 110.5 c 128,-1,29
 286 162 286 162 260 242 c 128,-1,30
 234 322 234 322 231 428 c 0,31,32
 221 818 221 818 221 1090 c 0,33,34
 221 1147 221 1147 216 1188.5 c 128,-1,35
 211 1230 211 1230 203 1250 c 128,-1,36
 195 1270 195 1270 185.5 1287.5 c 128,-1,37
 176 1305 176 1305 168 1315 c 1,38,-1
 182 1350 l 1,39,-1
 228 1363 l 2,40,41
 275 1376 275 1376 324 1376 c 0,42,43
 388 1376 388 1376 440 1352 c 1,44,45
 430 1098 430 1098 430 455 c 0,46,47
 430 369 430 369 451.5 304 c 128,-1,48
 473 239 473 239 505 203 c 128,-1,49
 537 167 537 167 581.5 144.5 c 128,-1,50
 626 122 626 122 664 115.5 c 128,-1,51
 702 109 702 109 743 109 c 0,52,53
 893 109 893 109 994.5 188.5 c 128,-1,54
 1096 268 1096 268 1104 383 c 1,55,56
 1112 383 1112 383 1112 1094 c 0,57,58
 1112 1253 1112 1253 1059 1315 c 1,59,-1
 1073 1350 l 1,60,61
 1109 1374 1109 1374 1176 1374 c 0,62,63
 1238 1374 1238 1374 1268 1352 c 1,64,65
 1247 911 1247 911 1247 444 c 0,22,23
EndSplineSet
Validated: 1
EndChar

